<svg width="1000" height="1000" viewBox="0 0 1000 1000" fill="none" xmlns="http://www.w3.org/2000/svg">
<g clip-path="url(#clip0_778_9142)">
<path fill-rule="evenodd" clip-rule="evenodd" d="M894.985 394.366C894.985 331.147 869.872 270.518 825.169 225.816C780.467 181.113 719.838 156 656.62 156C596.286 156 565.325 158.523 523.531 197.787C522.663 198.602 522.685 200.002 523.574 200.795C537.351 213.085 558.055 239.706 563.021 246.659C565.593 250.259 582.037 280.91 583.364 285.133C587.096 293.531 590.391 300.834 592.018 304.429C592.56 305.629 594.093 305.976 595.124 305.157C614.441 289.807 629.127 287.101 656.62 287.101C685.068 287.101 712.351 298.402 732.467 318.518C752.583 338.634 763.884 365.917 763.884 394.366V482.813L762.765 490.711C762.759 490.752 762.753 490.787 762.745 490.829C762.579 491.632 760.654 500.996 759.661 507.136C759.598 507.52 759.55 507.841 759.507 508.123C759.459 508.438 759.419 508.703 759.376 508.95C759.202 509.951 759.627 510.998 760.547 511.428L876.298 565.445C877.383 565.951 878.666 565.397 879.042 564.261L879.507 562.858L883.045 550.475L885.256 541.188L888.351 529.248L893.216 500.945L894.543 490.773L894.985 482.813V394.366ZM342.634 156C405.852 156 466.481 181.113 511.184 225.816C537.871 252.503 557.577 284.867 569.125 320.07C571.46 327.185 573.46 334.416 575.118 341.739C576.441 347.581 577.545 353.482 578.426 359.429C579.401 366.01 580.103 372.649 580.525 379.33C580.84 384.321 580.999 411.005 580.999 416.035V424.393C580.999 425.856 579.479 426.824 578.153 426.205L470.154 375.792L446.677 364.693C446.141 364.44 445.745 363.959 445.591 363.387C440.768 345.501 431.88 331.917 418.481 318.518C398.365 298.402 371.082 287.101 342.634 287.101C314.185 287.101 286.902 298.402 266.786 318.518C246.67 338.634 235.369 365.917 235.369 394.366L233.405 472.485C233.403 472.589 233.407 472.688 233.421 472.791C233.578 473.978 234.647 481.988 235.533 487.235C237.108 496.554 238.312 501.758 240.428 510.904L240.477 511.116C241.906 517.292 242.708 521.951 243.063 524.206C243.203 525.095 242.712 525.953 241.883 526.304L124.259 576.101C123.131 576.579 121.842 575.939 121.541 574.751L118.861 564.185C116.571 555.782 113.982 544.284 111.786 533.67C111.635 532.939 111.482 532.203 111.328 531.463C108.788 519.229 106.012 505.861 105.595 492.1C104.45 482.422 104.438 472.482 104.427 462.738C104.421 457.863 104.416 453.038 104.268 448.319C104.268 442.094 104.268 436.034 104.268 430.141L104.268 419.131C104.268 412.497 105.739 367.743 106.116 364.736C107.295 355.326 109.031 346.023 111.304 336.875C113.773 326.944 116.875 317.195 120.586 307.687C123.647 299.847 127.122 292.17 130.998 284.691C134.363 278.196 138.031 271.85 141.992 265.675C151.157 251.384 161.892 238.008 174.084 225.816C218.786 181.113 279.415 156 342.634 156ZM773.277 735.118C789.501 719.966 792.809 718.102 814.452 691.065C815.387 689.897 814.76 688.117 813.312 687.737C811.096 687.155 808.625 686.443 807 686C801.5 684.5 794.312 680.936 792.101 680.052C790.024 679.221 705.971 637.402 693.977 631.246C693.155 630.824 692.145 630.988 691.516 631.665C690.96 632.263 690.293 632.99 689.604 633.74C688.027 635.458 686.332 637.304 685.579 638.039L681.406 642.019C677.657 645.518 673.803 648.915 669.847 652.203C642.801 674.686 611.538 691.686 577.841 702.234C544.17 712.773 522.939 717.533 487.769 714.553C487.734 714.55 487.708 714.52 487.709 714.486C487.711 714.451 487.683 714.421 487.648 714.419C422.421 711.446 366.416 690.719 319.353 645.999C317.046 643.807 316.375 643.117 316.217 642.924C316.236 642.915 316.238 642.889 316.221 642.877C316.184 642.853 316.142 642.832 316.217 642.924C312.85 644.605 310.035 645.775 306.797 647.12L306.796 647.12C302.401 648.946 297.226 651.095 288.839 655.286C279.994 659.195 231.348 681.378 219.408 687.127C207.909 691.992 206.86 692.318 200 695.5C198.749 696.08 195.498 696.993 192.879 697.672C191.385 698.059 190.811 699.932 191.855 701.068C195.099 704.599 195.584 705.087 198.467 707.983C206.207 716.771 214.365 725.247 222.925 733.381C228.21 738.403 233.622 743.27 239.153 747.976C252.5 759.334 266.539 769.763 281.165 779.217C340.637 817.66 409.819 840 481.713 843.265C481.716 843.265 481.718 843.263 481.718 843.26C481.718 843.258 481.721 843.256 481.723 843.256C533.901 847.664 567.319 840.874 617.295 825.231C667.343 809.565 713.777 784.316 753.946 750.923C761.949 744.271 768.19 739.228 773.277 735.118ZM402.965 487.151C403.505 486.924 404.117 486.944 404.64 487.207L489.867 530.03C491.366 530.784 491.328 532.937 489.802 533.636L173.408 678.548C153.47 687.68 129.899 679.01 120.631 659.135L103.5 622.397C101.588 618.297 103.463 613.429 107.632 611.671L402.965 487.151ZM441.401 390.946C440.297 390.432 438.993 391.015 438.641 392.181L417.22 463.169C416.938 464.102 417.37 465.103 418.243 465.537L825.253 668.245C845.338 678.248 869.719 669.728 879.202 649.392L896.626 612.026C898.489 608.032 896.761 603.284 892.766 601.421L441.401 390.946Z" fill="url(#paint0_linear_778_9142)"/>
<path d="M569.125 320.07C557.577 284.867 537.871 252.503 511.184 225.816C466.481 181.113 405.852 156 342.634 156C279.415 156 218.786 181.113 174.084 225.816C161.892 238.008 151.157 251.384 141.992 265.675C138.031 271.85 134.363 278.196 130.998 284.691M569.125 320.07C571.46 327.185 573.46 334.416 575.118 341.739M569.125 320.07L575.118 341.739M575.118 341.739C576.441 347.581 577.545 353.482 578.426 359.429M578.426 359.429C579.401 366.01 580.103 372.649 580.525 379.33M578.426 359.429L580.525 379.33M580.525 379.33C580.84 384.321 580.999 411.005 580.999 416.035V424.393C580.999 425.856 579.479 426.824 578.153 426.205L470.154 375.792L446.677 364.693C446.141 364.44 445.745 363.959 445.591 363.387C440.768 345.501 431.88 331.917 418.481 318.518C398.365 298.402 371.082 287.101 342.634 287.101C314.185 287.101 286.902 298.402 266.786 318.518C246.67 338.634 235.369 365.917 235.369 394.366L233.405 472.485C233.403 472.589 233.407 472.688 233.421 472.791C233.578 473.978 234.647 481.988 235.533 487.235C237.108 496.554 238.312 501.758 240.428 510.904L240.477 511.116C241.906 517.292 242.708 521.951 243.063 524.206C243.203 525.095 242.712 525.953 241.883 526.304L124.259 576.101C123.131 576.579 121.842 575.939 121.541 574.751L118.861 564.185C116.571 555.782 113.982 544.284 111.786 533.67M111.786 533.67C111.635 532.939 111.482 532.203 111.328 531.463C108.788 519.229 106.012 505.861 105.595 492.1M111.786 533.67L105.595 492.1M105.595 492.1C104.45 482.422 104.438 472.482 104.427 462.738C104.421 457.863 104.416 453.038 104.268 448.319C104.268 442.094 104.268 436.034 104.268 430.141L104.268 419.131C104.268 412.497 105.739 367.743 106.116 364.736M106.116 364.736C107.295 355.326 109.031 346.023 111.304 336.875M106.116 364.736L111.304 336.875M111.304 336.875C113.773 326.944 116.875 317.195 120.586 307.687M120.586 307.687C123.647 299.847 127.122 292.17 130.998 284.691M120.586 307.687L130.998 284.691M685.579 638.039C686.332 637.304 688.027 635.458 689.604 633.74C690.293 632.989 690.96 632.263 691.516 631.665C692.145 630.988 693.155 630.824 693.977 631.246C705.971 637.402 790.024 679.221 792.101 680.052C794.312 680.936 801.5 684.5 807 686C808.625 686.443 811.096 687.155 813.312 687.737C814.76 688.117 815.387 689.897 814.452 691.065C792.809 718.102 789.501 719.966 773.277 735.118C768.19 739.228 761.949 744.271 753.946 750.923C713.777 784.316 667.343 809.565 617.295 825.231C567.319 840.874 533.901 847.664 481.723 843.256C481.721 843.256 481.718 843.258 481.718 843.26V843.26C481.718 843.263 481.716 843.265 481.713 843.265C409.819 840 340.637 817.66 281.165 779.217C266.539 769.763 252.5 759.334 239.153 747.976M685.579 638.039L681.406 642.019M685.579 638.039C684.203 639.38 682.812 640.707 681.406 642.019M681.406 642.019C677.657 645.518 673.803 648.915 669.847 652.203C642.801 674.686 611.538 691.686 577.841 702.234C544.17 712.773 522.939 717.533 487.769 714.553C487.734 714.55 487.708 714.52 487.709 714.486V714.486C487.711 714.451 487.683 714.421 487.648 714.419C422.421 711.446 366.416 690.719 319.353 645.999C317.046 643.807 316.375 643.117 316.217 642.924M316.217 642.924V642.924C316.236 642.915 316.238 642.889 316.221 642.877C316.184 642.853 316.142 642.832 316.217 642.924ZM316.217 642.924C312.85 644.605 310.035 645.775 306.797 647.12L306.796 647.12C302.401 648.946 297.226 651.095 288.839 655.286M288.839 655.286C279.994 659.195 231.348 681.378 219.408 687.127M288.839 655.286L219.408 687.127M219.408 687.127C207.909 691.992 206.86 692.318 200 695.5C198.749 696.08 195.498 696.993 192.879 697.672C191.385 698.059 190.811 699.932 191.855 701.068C195.099 704.599 195.584 705.087 198.467 707.983M198.467 707.983C206.207 716.771 214.365 725.247 222.925 733.381C228.21 738.403 233.622 743.27 239.153 747.976M198.467 707.983L239.153 747.976M825.169 225.816C869.872 270.518 894.985 331.147 894.985 394.366V482.813L894.543 490.773L893.216 500.945L888.351 529.248L885.256 541.188L883.045 550.475L879.507 562.858L879.042 564.261C878.666 565.397 877.383 565.951 876.298 565.445L760.547 511.428C759.627 510.998 759.202 509.951 759.376 508.95C759.419 508.703 759.459 508.438 759.507 508.123C759.55 507.841 759.598 507.52 759.661 507.136C760.654 500.996 762.579 491.632 762.745 490.829C762.753 490.787 762.759 490.752 762.765 490.711L763.884 482.813V394.366C763.884 365.917 752.583 338.634 732.467 318.518C712.351 298.402 685.068 287.101 656.62 287.101C629.127 287.101 614.441 289.807 595.124 305.157C594.093 305.976 592.56 305.629 592.018 304.429C590.391 300.834 587.096 293.53 583.364 285.133C582.037 280.91 565.593 250.259 563.021 246.659C558.055 239.706 537.351 213.085 523.574 200.795C522.685 200.002 522.663 198.602 523.531 197.787C565.325 158.523 596.286 156 656.62 156C719.838 156 780.467 181.113 825.169 225.816ZM173.408 678.548L489.802 533.636C491.328 532.937 491.366 530.784 489.867 530.03L404.64 487.207C404.117 486.944 403.505 486.924 402.965 487.151L107.632 611.671C103.463 613.429 101.588 618.297 103.5 622.397L120.631 659.135C129.899 679.01 153.47 687.68 173.408 678.548ZM825.253 668.245L418.243 465.537C417.37 465.102 416.938 464.102 417.22 463.169L438.641 392.181C438.993 391.015 440.297 390.432 441.401 390.946L892.766 601.421C896.761 603.284 898.489 608.032 896.626 612.026L879.202 649.392C869.719 669.728 845.338 678.248 825.253 668.245Z" stroke="black" stroke-width="8"/>
</g>
<defs>
<linearGradient id="paint0_linear_778_9142" x1="412.42" y1="474.147" x2="447.007" y2="400.695" gradientUnits="userSpaceOnUse">
<stop stop-color="#FFB05B"/>
</linearGradient>
<clipPath id="clip0_778_9142">
<rect width="1000" height="1000" fill="white"/>
</clipPath>
</defs>
</svg>
