<svg width="1000" height="1000" viewBox="0 0 1000 1000" fill="none" xmlns="http://www.w3.org/2000/svg">
<path d="M437.33 216.66C448.005 216.66 456.66 208.005 456.66 197.33C456.66 186.654 448.005 178 437.33 178C426.654 178 418 186.654 418 197.33C418 208.005 426.654 216.66 437.33 216.66Z" fill="#0077FF" stroke="black" stroke-width="8"/>
<path d="M239.576 314.925C250.251 314.925 258.906 306.271 258.906 295.595C258.906 284.92 250.251 276.266 239.576 276.266C228.9 276.266 220.246 284.92 220.246 295.595C220.246 306.271 228.9 314.925 239.576 314.925Z" fill="#00E0AC" stroke="black" stroke-width="8"/>
<path d="M492.539 484.414C503.214 484.414 511.869 475.76 511.869 465.085C511.869 454.409 503.214 445.755 492.539 445.755C481.863 445.755 473.209 454.409 473.209 465.085C473.209 475.76 481.863 484.414 492.539 484.414Z" fill="#FF1654" stroke="black" stroke-width="8"/>
<path d="M294.33 720.66C305.005 720.66 313.66 712.005 313.66 701.33C313.66 690.654 305.005 682 294.33 682C283.654 682 275 690.654 275 701.33C275 712.005 283.654 720.66 294.33 720.66Z" fill="#00E0AC" stroke="black" stroke-width="8"/>
<path d="M161.33 625.66C172.005 625.66 180.66 617.005 180.66 606.33C180.66 595.654 172.005 587 161.33 587C150.654 587 142 595.654 142 606.33C142 617.005 150.654 625.66 161.33 625.66Z" fill="#FF1654" stroke="black" stroke-width="8"/>
<path d="M735.33 216.66C746.005 216.66 754.66 208.005 754.66 197.33C754.66 186.654 746.005 178 735.33 178C724.654 178 716 186.654 716 197.33C716 208.005 724.654 216.66 735.33 216.66Z" fill="#FF1654" stroke="black" stroke-width="8"/>
<path d="M686.968 595.579C697.644 595.579 706.298 586.925 706.298 576.25C706.298 565.574 697.644 556.92 686.968 556.92C676.293 556.92 667.639 565.574 667.639 576.25C667.639 586.925 676.293 595.579 686.968 595.579Z" fill="#00E0AC" stroke="black" stroke-width="8"/>
<path d="M787.33 595.66C798.005 595.66 806.66 587.005 806.66 576.33C806.66 565.654 798.005 557 787.33 557C776.654 557 768 565.654 768 576.33C768 587.005 776.654 595.66 787.33 595.66Z" fill="#0077FF" stroke="black" stroke-width="8"/>
<path d="M572.33 747.66C583.005 747.66 591.66 739.005 591.66 728.33C591.66 717.654 583.005 709 572.33 709C561.654 709 553 717.654 553 728.33C553 739.005 561.654 747.66 572.33 747.66Z" fill="#0077FF" stroke="black" stroke-width="8"/>
<path d="M368.49 209.66C379.165 209.66 387.82 201.005 387.82 190.33C387.82 179.654 379.165 171 368.49 171C357.814 171 349.16 179.654 349.16 190.33C349.16 201.005 357.814 209.66 368.49 209.66Z" fill="#00E0AC" stroke="black" stroke-width="8"/>
<path d="M607.33 195.66C618.005 195.66 626.66 187.005 626.66 176.33C626.66 165.654 618.005 157 607.33 157C596.654 157 588 165.654 588 176.33C588 187.005 596.654 195.66 607.33 195.66Z" fill="#FF1654" stroke="black" stroke-width="8"/>
<path d="M469.33 755.66C480.005 755.66 488.66 747.005 488.66 736.33C488.66 725.654 480.005 717 469.33 717C458.654 717 450 725.654 450 736.33C450 747.005 458.654 755.66 469.33 755.66Z" fill="#0077FF" stroke="black" stroke-width="8"/>
<path d="M234.39 602.867C245.066 602.867 253.72 594.212 253.72 583.537C253.72 572.861 245.066 564.207 234.39 564.207C223.715 564.207 215.061 572.861 215.061 583.537C215.061 594.212 223.715 602.867 234.39 602.867Z" fill="#0077FF" stroke="black" stroke-width="8"/>
<path d="M156.451 385.119C167.126 385.119 175.781 376.465 175.781 365.79C175.781 355.114 167.126 346.46 156.451 346.46C145.775 346.46 137.121 355.114 137.121 365.79C137.121 376.465 145.775 385.119 156.451 385.119Z" fill="#0077FF" stroke="black" stroke-width="8"/>
<path d="M91.3298 664.66C102.005 664.66 110.66 656.005 110.66 645.33C110.66 634.654 102.005 626 91.3298 626C80.6542 626 72 634.654 72 645.33C72 656.005 80.6542 664.66 91.3298 664.66Z" fill="#0077FF" stroke="black" stroke-width="8"/>
<path d="M786.416 255.252C797.091 255.252 805.746 246.598 805.746 235.923C805.746 225.247 797.091 216.593 786.416 216.593C775.74 216.593 767.086 225.247 767.086 235.923C767.086 246.598 775.74 255.252 786.416 255.252Z" fill="#0077FF" stroke="black" stroke-width="8"/>
<path d="M865.576 494.1C876.251 494.1 884.906 485.446 884.906 474.77C884.906 464.095 876.251 455.44 865.576 455.44C854.9 455.44 846.246 464.095 846.246 474.77C846.246 485.446 854.9 494.1 865.576 494.1Z" fill="#0077FF" stroke="black" stroke-width="8"/>
<path d="M720.039 714.406C730.714 714.406 739.369 705.751 739.369 695.076C739.369 684.4 730.714 675.746 720.039 675.746C709.363 675.746 700.709 684.4 700.709 695.076C700.709 705.751 709.363 714.406 720.039 714.406Z" fill="#00E0AC" stroke="black" stroke-width="8"/>
<path d="M410.947 831.012C421.623 831.012 430.277 822.358 430.277 811.682C430.277 801.007 421.623 792.353 410.947 792.353C400.271 792.353 391.617 801.007 391.617 811.682C391.617 822.358 400.271 831.012 410.947 831.012Z" fill="#FF1654" stroke="black" stroke-width="8"/>
<path d="M253.72 759.188C264.396 759.188 273.05 750.534 273.05 739.858C273.05 729.183 264.396 720.528 253.72 720.528C243.045 720.528 234.391 729.183 234.391 739.858C234.391 750.534 243.045 759.188 253.72 759.188Z" fill="#FF1654" stroke="black" stroke-width="8"/>
<path d="M805.746 385.119C816.421 385.119 825.076 376.465 825.076 365.79C825.076 355.114 816.421 346.46 805.746 346.46C795.07 346.46 786.416 355.114 786.416 365.79C786.416 376.465 795.07 385.119 805.746 385.119Z" fill="#0077FF" stroke="black" stroke-width="8"/>
<path d="M857.455 660.526C868.13 660.526 876.785 651.871 876.785 641.196C876.785 630.52 868.13 621.866 857.455 621.866C846.779 621.866 838.125 630.52 838.125 641.196C838.125 651.871 846.779 660.526 857.455 660.526Z" fill="#00E0AC" stroke="black" stroke-width="8"/>
<path d="M631.97 731.11C642.646 731.11 651.3 722.455 651.3 711.78C651.3 701.104 642.646 692.45 631.97 692.45C621.295 692.45 612.641 701.104 612.641 711.78C612.641 722.455 621.295 731.11 631.97 731.11Z" fill="#FF1654" stroke="black" stroke-width="8"/>
<path d="M454.353 288.98C465.029 288.98 473.683 280.326 473.683 269.65C473.683 258.975 465.029 250.32 454.353 250.32C443.678 250.32 435.023 258.975 435.023 269.65C435.023 280.326 443.678 288.98 454.353 288.98Z" fill="#FF1654" stroke="black" stroke-width="8"/>
<path d="M398.33 750.66C409.005 750.66 417.66 742.005 417.66 731.33C417.66 720.654 409.005 712 398.33 712C387.654 712 379 720.654 379 731.33C379 742.005 387.654 750.66 398.33 750.66Z" fill="#FF1654" stroke="black" stroke-width="8"/>
<path d="M557.33 404.66C568.005 404.66 576.66 396.005 576.66 385.33C576.66 374.654 568.005 366 557.33 366C546.654 366 538 374.654 538 385.33C538 396.005 546.654 404.66 557.33 404.66Z" fill="#0077FF" stroke="black" stroke-width="8"/>
<path d="M447.48 437.272C458.156 437.272 466.81 428.618 466.81 417.942C466.81 407.267 458.156 398.612 447.48 398.612C436.805 398.612 428.15 407.267 428.15 417.942C428.15 428.618 436.805 437.272 447.48 437.272Z" fill="#00E0AC" stroke="black" stroke-width="8"/>
<path d="M349.33 582.66C360.005 582.66 368.66 574.005 368.66 563.33C368.66 552.654 360.005 544 349.33 544C338.654 544 330 552.654 330 563.33C330 574.005 338.654 582.66 349.33 582.66Z" fill="#00E0AC" stroke="black" stroke-width="8"/>
<path d="M715.996 263.493C726.671 263.493 735.326 254.838 735.326 244.163C735.326 233.487 726.671 224.833 715.996 224.833C705.32 224.833 696.666 233.487 696.666 244.163C696.666 254.838 705.32 263.493 715.996 263.493Z" fill="#FF1654" stroke="black" stroke-width="8"/>
<path d="M795.33 443.66C806.005 443.66 814.66 435.005 814.66 424.33C814.66 413.654 806.005 405 795.33 405C784.654 405 776 413.654 776 424.33C776 435.005 784.654 443.66 795.33 443.66Z" fill="#FF1654" stroke="black" stroke-width="8"/>
<path d="M525.33 839.66C536.005 839.66 544.66 831.005 544.66 820.33C544.66 809.654 536.005 801 525.33 801C514.654 801 506 809.654 506 820.33C506 831.005 514.654 839.66 525.33 839.66Z" fill="#FF1654" stroke="black" stroke-width="8"/>
<path d="M130.547 420.51C141.222 420.51 149.876 411.856 149.876 401.18C149.876 390.505 141.222 381.851 130.547 381.851C119.871 381.851 111.217 390.505 111.217 401.18C111.217 411.856 119.871 420.51 130.547 420.51Z" fill="#FF1654" stroke="black" stroke-width="8"/>
<path d="M288.33 609.66C299.005 609.66 307.66 601.005 307.66 590.33C307.66 579.654 299.005 571 288.33 571C277.654 571 269 579.654 269 590.33C269 601.005 277.654 609.66 288.33 609.66Z" fill="#FF1654" stroke="black" stroke-width="8"/>
<path d="M831.447 321.576C842.123 321.576 850.777 312.921 850.777 302.246C850.777 291.57 842.123 282.916 831.447 282.916C820.771 282.916 812.117 291.57 812.117 302.246C812.117 312.921 820.771 321.576 831.447 321.576Z" fill="#00E0AC" stroke="black" stroke-width="8"/>
<path d="M195.33 507.66C206.005 507.66 214.66 499.005 214.66 488.33C214.66 477.654 206.005 469 195.33 469C184.654 469 176 477.654 176 488.33C176 499.005 184.654 507.66 195.33 507.66Z" fill="#FF1654" stroke="black" stroke-width="8"/>
<path d="M536.511 357.893C547.187 357.893 555.841 349.239 555.841 338.563C555.841 327.888 547.187 319.233 536.511 319.233C525.836 319.233 517.182 327.888 517.182 338.563C517.182 349.239 525.836 357.893 536.511 357.893Z" fill="#00E0AC" stroke="black" stroke-width="8"/>
<path d="M795.33 651.66C806.005 651.66 814.66 643.005 814.66 632.33C814.66 621.654 806.005 613 795.33 613C784.654 613 776 621.654 776 632.33C776 643.005 784.654 651.66 795.33 651.66Z" fill="#FF1654" stroke="black" stroke-width="8"/>
<path d="M678.851 790.419C689.527 790.419 698.181 781.765 698.181 771.09C698.181 760.414 689.527 751.76 678.851 751.76C668.176 751.76 659.521 760.414 659.521 771.09C659.521 781.765 668.176 790.419 678.851 790.419Z" fill="#0077FF" stroke="black" stroke-width="8"/>
<path d="M313.33 195.66C324.005 195.66 332.66 187.005 332.66 176.33C332.66 165.654 324.005 157 313.33 157C302.654 157 294 165.654 294 176.33C294 187.005 302.654 195.66 313.33 195.66Z" fill="#FF1654" stroke="black" stroke-width="8"/>
<path d="M117.72 507.559C128.396 507.559 137.05 498.905 137.05 488.229C137.05 477.554 128.396 468.899 117.72 468.899C107.045 468.899 98.3906 477.554 98.3906 488.229C98.3906 498.905 107.045 507.559 117.72 507.559Z" fill="#FF1654" stroke="black" stroke-width="8"/>
<path d="M591.33 255.66C602.005 255.66 610.66 247.005 610.66 236.33C610.66 225.654 602.005 217 591.33 217C580.654 217 572 225.654 572 236.33C572 247.005 580.654 255.66 591.33 255.66Z" fill="#00E0AC" stroke="black" stroke-width="8"/>
<path d="M629.982 572.598C640.658 572.598 649.312 563.944 649.312 553.268C649.312 542.593 640.658 533.938 629.982 533.938C619.307 533.938 610.652 542.593 610.652 553.268C610.652 563.944 619.307 572.598 629.982 572.598Z" fill="#FF1654" stroke="black" stroke-width="8"/>
<path d="M873.693 376.383C884.369 376.383 893.023 367.729 893.023 357.053C893.023 346.378 884.369 337.724 873.693 337.724C863.018 337.724 854.363 346.378 854.363 357.053C854.363 367.729 863.018 376.383 873.693 376.383Z" fill="#FF1654" stroke="black" stroke-width="8"/>
<path d="M774.33 713.66C785.005 713.66 793.66 705.005 793.66 694.33C793.66 683.654 785.005 675 774.33 675C763.654 675 755 683.654 755 694.33C755 705.005 763.654 713.66 774.33 713.66Z" fill="#0077FF" stroke="black" stroke-width="8"/>
<path d="M345.998 806.657C356.673 806.657 365.328 798.002 365.328 787.327C365.328 776.651 356.673 767.997 345.998 767.997C335.322 767.997 326.668 776.651 326.668 787.327C326.668 798.002 335.322 806.657 345.998 806.657Z" fill="#0077FF" stroke="black" stroke-width="8"/>
<path d="M349.33 533.66C360.005 533.66 368.66 525.005 368.66 514.33C368.66 503.654 360.005 495 349.33 495C338.654 495 330 503.654 330 514.33C330 525.005 338.654 533.66 349.33 533.66Z" fill="#0077FF" stroke="black" stroke-width="8"/>
<path d="M466.33 365.66C477.005 365.66 485.66 357.005 485.66 346.33C485.66 335.654 477.005 327 466.33 327C455.654 327 447 335.654 447 346.33C447 357.005 455.654 365.66 466.33 365.66Z" fill="#0077FF" stroke="black" stroke-width="8"/>
<path d="M152.33 543.66C163.005 543.66 171.66 535.005 171.66 524.33C171.66 513.654 163.005 505 152.33 505C141.654 505 133 513.654 133 524.33C133 535.005 141.654 543.66 152.33 543.66Z" fill="#00E0AC" stroke="black" stroke-width="8"/>
<path d="M156.451 306.343C167.126 306.343 175.781 297.689 175.781 287.013C175.781 276.338 167.126 267.684 156.451 267.684C145.775 267.684 137.121 276.338 137.121 287.013C137.121 297.689 145.775 306.343 156.451 306.343Z" fill="#FF1654" stroke="black" stroke-width="8"/>
<path d="M640.33 275.66C651.005 275.66 659.66 267.005 659.66 256.33C659.66 245.654 651.005 237 640.33 237C629.654 237 621 245.654 621 256.33C621 267.005 629.654 275.66 640.33 275.66Z" fill="#0077FF" stroke="black" stroke-width="8"/>
<path d="M801.33 516.66C812.005 516.66 820.66 508.005 820.66 497.33C820.66 486.654 812.005 478 801.33 478C790.654 478 782 486.654 782 497.33C782 508.005 790.654 516.66 801.33 516.66Z" fill="#00E0AC" stroke="black" stroke-width="8"/>
<path d="M181.33 670.66C192.005 670.66 200.66 662.005 200.66 651.33C200.66 640.654 192.005 632 181.33 632C170.654 632 162 640.654 162 651.33C162 662.005 170.654 670.66 181.33 670.66Z" fill="#00E0AC" stroke="black" stroke-width="8"/>
<path d="M517.33 791.66C528.005 791.66 536.66 783.005 536.66 772.33C536.66 761.654 528.005 753 517.33 753C506.654 753 498 761.654 498 772.33C498 783.005 506.654 791.66 517.33 791.66Z" fill="#00E0AC" stroke="black" stroke-width="8"/>
<path d="M569.25 506.279C579.925 506.279 588.579 497.624 588.579 486.949C588.579 476.273 579.925 467.619 569.25 467.619C558.574 467.619 549.92 476.273 549.92 486.949C549.92 497.624 558.574 506.279 569.25 506.279Z" fill="#00E0AC" stroke="black" stroke-width="8"/>
<path d="M357.234 255.252C367.91 255.252 376.564 246.598 376.564 235.923C376.564 225.247 367.91 216.593 357.234 216.593C346.559 216.593 337.904 225.247 337.904 235.923C337.904 246.598 346.559 255.252 357.234 255.252Z" fill="#FF1654" stroke="black" stroke-width="8"/>
<path d="M538.271 314.925C548.947 314.925 557.601 306.271 557.601 295.595C557.601 284.92 548.947 276.266 538.271 276.266C527.596 276.266 518.941 284.92 518.941 295.595C518.941 306.271 527.596 314.925 538.271 314.925Z" fill="#FF1654" stroke="black" stroke-width="8"/>
<path d="M234.39 247.392C245.066 247.392 253.72 238.738 253.72 228.062C253.72 217.387 245.066 208.732 234.39 208.732C223.715 208.732 215.061 217.387 215.061 228.062C215.061 238.738 223.715 247.392 234.39 247.392Z" fill="#0077FF" stroke="black" stroke-width="8"/>
<path d="M190.9 468.505C201.576 468.505 210.23 459.851 210.23 449.176C210.23 438.5 201.576 429.846 190.9 429.846C180.225 429.846 171.57 438.5 171.57 449.176C171.57 459.851 180.225 468.505 190.9 468.505Z" fill="#0077FF" stroke="black" stroke-width="8"/>
<path d="M873.547 436.42C884.222 436.42 892.876 427.766 892.876 417.091C892.876 406.415 884.222 397.761 873.547 397.761C862.871 397.761 854.217 406.415 854.217 417.091C854.217 427.766 862.871 436.42 873.547 436.42Z" fill="#00E0AC" stroke="black" stroke-width="8"/>
<path d="M632.33 520.66C643.005 520.66 651.66 512.005 651.66 501.33C651.66 490.654 643.005 482 632.33 482C621.654 482 613 490.654 613 501.33C613 512.005 621.654 520.66 632.33 520.66Z" fill="#0077FF" stroke="black" stroke-width="8"/>
</svg>
