<svg width="1000" height="1000" viewBox="0 0 1000 1000" fill="none" xmlns="http://www.w3.org/2000/svg">
<path fill-rule="evenodd" clip-rule="evenodd" d="M388.867 476.076L530.058 546.445C530.058 546.445 506.881 543.722 481.576 554.368C456.271 565.015 404.71 587.367 386.855 595.762C369 604.157 300.056 636.328 276.645 647.207C253.232 658.093 146.804 707.054 146.804 707.054C146.804 707.054 122.563 705.398 84.3679 685.529C46.1724 665.66 50.3112 657.381 49.2467 648.862C48.1822 640.352 55.2777 628.521 70.7685 619.059C86.2593 609.604 118.66 596.234 145.031 584.288C171.401 572.35 241.17 541.006 257.725 534.027C274.28 527.048 328.796 504.695 355.516 491.805C382.244 478.915 388.867 476.076 388.867 476.076Z" fill="#A74600"/>
<path fill-rule="evenodd" clip-rule="evenodd" d="M388.867 476.076L530.058 546.445C530.058 546.445 506.881 543.722 481.576 554.368C456.271 565.015 404.71 587.367 386.855 595.762C369 604.157 300.056 636.328 276.645 647.207C253.232 658.093 146.804 707.054 146.804 707.054C146.804 707.054 122.563 705.398 84.3679 685.529C46.1724 665.66 50.3112 657.381 49.2467 648.862C48.1822 640.352 55.2777 628.521 70.7685 619.059C86.2593 609.604 118.66 596.234 145.031 584.288C171.401 572.35 241.17 541.006 257.725 534.027C274.28 527.048 328.796 504.695 355.516 491.805C382.244 478.915 388.867 476.076 388.867 476.076ZM388.684 485.232L499.207 540.319C492.701 541.66 485.616 543.689 478.364 546.735C452.977 557.415 401.25 579.85 383.337 588.27C365.482 596.665 296.563 628.828 273.157 639.706C251.693 649.674 160.457 691.664 145.44 698.568C139.214 697.707 118.29 693.841 88.188 678.186C68.2132 667.796 61.0001 661.728 58.6426 656.388C57.2296 653.184 57.7942 650.51 57.4606 647.836C57.1336 645.22 58.42 642.214 60.621 639.011C63.6572 634.59 68.5096 630.144 75.0837 626.129C90.3824 616.782 122.403 603.627 148.447 591.83C174.77 579.908 244.414 548.623 260.94 541.652C277.56 534.648 332.289 512.204 359.117 499.265C375.689 491.267 384.455 487.178 388.684 485.232Z" fill="black"/>
<path fill-rule="evenodd" clip-rule="evenodd" d="M405.775 468.037C405.775 468.037 486.54 512.146 522.134 531.784C557.728 551.413 588.471 567.73 608.453 577.905C628.444 588.079 670.892 607.121 704.242 622.254C737.584 637.396 848.985 687.657 848.985 687.657C848.985 687.657 857.85 692.74 865.06 692.508C872.278 692.268 884.099 691.564 901.482 678.55C918.865 665.544 925.843 657.853 930.106 648.158C934.36 638.456 931.993 628.993 925.967 620.367C919.933 611.732 909.172 606.525 892.616 599.67C876.061 592.807 820.841 567.026 804.757 559.807C788.674 552.596 735.929 527.644 708.969 514.398C682.008 501.152 637.193 480.927 602.427 465.073C567.661 449.228 507.946 420.608 481.93 408.546C455.913 396.483 413.929 376.614 413.929 376.614C413.929 376.614 415.113 389.736 417.24 403.462C419.376 417.18 422.803 434.798 421.619 446.032C420.435 457.275 414.285 465.553 405.775 468.037Z" fill="#A74600"/>
<path fill-rule="evenodd" clip-rule="evenodd" d="M405.775 468.037C405.775 468.037 486.54 512.146 522.134 531.784C557.728 551.413 588.471 567.73 608.453 577.905C628.444 588.079 670.892 607.121 704.242 622.254C737.584 637.396 848.985 687.657 848.985 687.657C848.985 687.657 857.85 692.74 865.06 692.508C872.278 692.268 884.099 691.564 901.482 678.55C918.865 665.544 925.843 657.853 930.106 648.158C934.36 638.456 931.993 628.993 925.967 620.367C919.933 611.732 909.172 606.525 892.616 599.67C876.061 592.807 820.841 567.026 804.757 559.807C788.674 552.596 735.929 527.644 708.969 514.398C682.008 501.152 637.193 480.927 602.427 465.073C567.661 449.228 507.946 420.608 481.93 408.546C455.913 396.483 413.929 376.614 413.929 376.614C413.929 376.614 415.113 389.736 417.24 403.462C419.376 417.18 422.803 434.798 421.619 446.032C420.435 457.275 414.285 465.553 405.775 468.037ZM421.536 467.209C425.965 462.076 428.986 455.139 429.855 446.901C431.097 435.104 427.661 416.593 425.426 402.187C424.789 398.098 424.243 394.058 423.788 390.423C438.315 397.278 461.691 408.289 478.445 416.054C504.47 428.125 564.218 456.753 598.992 472.607C633.692 488.428 678.416 508.603 705.318 521.824C732.353 535.103 785.239 560.13 801.372 567.366C817.488 574.593 872.849 600.44 889.446 607.311C904.064 613.371 913.857 617.486 919.179 625.102C923.475 631.253 925.553 637.926 922.523 644.83C918.691 653.556 912.16 660.221 896.523 671.927C881.359 683.277 871.086 684.031 864.795 684.238C859.522 684.403 853.099 680.479 853.099 680.479L852.751 680.28L852.387 680.115C852.387 680.115 741.011 629.854 707.661 614.72C674.434 599.637 632.127 580.662 612.211 570.528C592.287 560.387 561.627 544.111 526.132 524.531C498.915 509.522 445.285 480.19 421.536 467.209Z" fill="black"/>
<path fill-rule="evenodd" clip-rule="evenodd" d="M412.988 356.745L591.669 437.281C591.669 437.281 590.725 435.866 592.496 416.352C594.268 396.839 594.74 370.347 594.74 365.14C594.74 359.933 590.369 336.719 573.93 305.847C557.49 274.976 538.336 242.457 509.124 209.341C486.658 184.265 479.805 180.837 479.805 180.837C479.805 180.837 432.092 147.25 353.273 147.135C274.449 147.01 216.033 184.621 190.254 203.662C164.475 222.703 140.588 250.139 123.323 277.227C106.059 304.307 95.7703 332.339 90.6854 359.303C85.6012 386.267 83.4722 404.125 83.2355 422.338C82.9996 440.551 88.7939 475.678 93.287 500.871C97.781 526.063 111.262 588.038 111.262 588.038L246.542 530.914C246.542 530.914 237.318 461.488 237.555 423.762C237.791 386.036 239.092 367.822 255.293 336.719C271.493 305.607 302.001 294.613 324.707 289.877C347.412 285.15 406.432 294.232 412.988 356.745Z" fill="#A74600"/>
<path fill-rule="evenodd" clip-rule="evenodd" d="M412.988 356.745L591.669 437.281C591.669 437.281 590.725 435.866 592.496 416.352C594.268 396.839 594.74 370.347 594.74 365.14C594.74 359.933 590.369 336.719 573.93 305.847C557.49 274.976 538.336 242.457 509.124 209.341C486.658 184.265 479.805 180.837 479.805 180.837C479.805 180.837 432.092 147.25 353.273 147.135C274.449 147.01 216.033 184.621 190.254 203.662C164.475 222.703 140.588 250.139 123.323 277.227C106.059 304.307 95.7703 332.339 90.6854 359.303C85.6012 386.267 83.4722 404.125 83.2355 422.338C82.9996 440.551 88.7939 475.678 93.287 500.871C97.781 526.063 111.262 588.038 111.262 588.038L246.542 530.914C246.542 530.914 237.318 461.488 237.555 423.762C237.791 386.036 239.092 367.822 255.293 336.719C271.493 305.607 302.001 294.613 324.707 289.877C347.412 285.15 406.432 294.232 412.988 356.745ZM583.54 424.54L420.62 351.099C410.885 285.978 347.652 276.648 323.018 281.773C298.392 286.905 265.521 299.158 247.95 332.894C231.042 365.355 229.524 384.33 229.276 423.712C229.081 454.948 235.286 507.684 237.536 525.732L117.243 576.522C113.281 558.102 104.813 518.347 101.437 499.422C97.0318 474.726 91.2814 440.303 91.5131 422.446C91.7441 404.646 93.8507 387.195 98.8206 360.835C103.725 334.831 113.652 307.801 130.304 281.673C147.044 255.413 170.176 228.788 195.172 210.327C220.176 191.857 276.807 155.297 353.256 155.413C429.088 155.521 475.037 187.61 475.037 187.61L479.805 189.116L475.782 188.073C475.782 188.073 483.976 193.678 502.941 214.839C531.656 247.399 550.463 279.388 566.62 309.738C582.017 338.648 586.462 360.264 586.462 365.14C586.462 370.264 585.998 396.376 584.252 415.599C583.937 419.085 583.705 422.04 583.54 424.54Z" fill="black"/>
<path fill-rule="evenodd" clip-rule="evenodd" d="M504.73 186.128C504.73 186.128 538.528 220.625 558.949 254.014C579.362 287.402 590.123 308.381 597.986 332.248C602.87 318.365 607.812 303.107 626.685 295.408C654.829 286.715 677.452 293.197 694.421 300.648C711.39 308.099 729.328 325.899 749.335 355.843C769.333 385.787 766.85 422.628 765.335 453.119C763.82 483.609 759.127 517.42 759.127 517.42L886.189 576.473C886.189 576.473 905.641 525.699 915.16 463.326C924.68 400.962 912.677 329.55 885.775 286.028C858.873 242.498 824.934 210.078 789.2 188.14C753.473 166.201 707.251 147.847 647.238 147.019C587.225 146.191 535.772 172.956 523.628 179.306C511.485 185.656 508.869 185.085 504.73 186.128Z" fill="#A74600"/>
<path fill-rule="evenodd" clip-rule="evenodd" d="M504.73 186.128C504.73 186.128 538.528 220.625 558.949 254.014C579.362 287.402 590.123 308.381 597.986 332.248C602.87 318.365 607.812 303.107 626.685 295.408C654.829 286.715 677.452 293.197 694.421 300.648C711.39 308.099 729.328 325.899 749.335 355.843C769.333 385.787 766.85 422.628 765.335 453.119C763.82 483.609 759.127 517.42 759.127 517.42L886.189 576.473C886.189 576.473 905.641 525.699 915.16 463.326C924.68 400.962 912.677 329.55 885.775 286.028C858.873 242.498 824.934 210.078 789.2 188.14C753.473 166.201 707.251 147.847 647.238 147.019C587.225 146.191 535.772 172.956 523.628 179.306C511.485 185.656 508.869 185.085 504.73 186.128ZM519.953 190.284C522.022 189.381 524.481 188.197 527.461 186.641C539.215 180.498 589.022 154.495 647.122 155.298C705.356 156.101 750.204 173.9 784.87 195.193C819.612 216.519 852.582 248.061 878.731 290.383C904.78 332.522 916.195 401.699 906.974 462.076C899.888 508.52 887.215 548.432 881.454 565.147L768.125 512.469C769.54 501.285 772.462 476.481 773.605 453.533C775.202 421.436 777.263 382.757 756.213 351.248C735.023 319.524 715.727 300.963 697.748 293.073C679.339 284.985 654.779 278.064 624.243 287.501L623.895 287.609L623.556 287.742C610.858 292.924 603.483 300.955 598.433 309.921C591.058 292.535 581.141 274.454 566.01 249.692C551.938 226.694 531.666 203.166 519.953 190.284Z" fill="black"/>
<path fill-rule="evenodd" clip-rule="evenodd" d="M674.833 622.494C674.833 622.494 779.678 674.377 790.852 679.758C802.027 685.139 834.865 694.801 834.865 694.801C834.865 694.801 795.687 727.634 779.264 742.263C762.849 756.892 717.736 791.108 696.214 805.041C674.692 818.982 621.161 847.677 552.043 856.51C482.924 865.344 441.818 856.369 393.112 841.194C344.415 826.019 297.787 798.559 263.156 775.378C228.527 752.197 190.726 721.425 182.449 714.115C174.171 706.805 173.205 705.563 173.205 705.563C173.205 705.563 187.415 703.079 210.316 692.035C233.218 681 325.517 639.051 325.517 639.051C325.517 639.051 324.408 647.885 331.858 656.023C339.307 664.169 347.999 673.69 383.046 687.623C418.086 701.556 471.617 721.425 530.388 714.256C589.16 707.078 643.651 666.371 656.341 655.476C669.039 644.573 675.52 636.568 674.833 622.494Z" fill="#A74600"/>
<path fill-rule="evenodd" clip-rule="evenodd" d="M674.833 622.494C674.833 622.494 779.678 674.377 790.852 679.758C802.027 685.139 834.865 694.801 834.865 694.801C834.865 694.801 795.687 727.634 779.264 742.263C762.849 756.892 717.736 791.108 696.214 805.041C674.692 818.982 621.161 847.677 552.043 856.51C482.924 865.344 441.818 856.369 393.112 841.194C344.415 826.019 297.787 798.559 263.156 775.378C228.527 752.197 190.726 721.425 182.449 714.115C174.171 706.805 173.205 705.563 173.205 705.563C173.205 705.563 187.415 703.079 210.316 692.035C233.218 681 325.517 639.051 325.517 639.051C325.517 639.051 324.408 647.885 331.858 656.023C339.307 664.169 347.999 673.69 383.046 687.623C418.086 701.556 471.617 721.425 530.388 714.256C589.16 707.078 643.651 666.371 656.341 655.476C669.039 644.573 675.52 636.568 674.833 622.494ZM189.757 709.496C196.118 707.326 204.293 704.131 213.91 699.495C232.207 690.678 294.861 662.099 319.176 651.031C320.451 654.384 322.496 658.051 325.749 661.611C333.662 670.254 342.784 680.52 379.984 695.314C415.983 709.628 471.013 729.845 531.39 722.468C592.189 715.051 648.61 673.027 661.738 661.752C672.474 652.529 679.146 644.863 681.819 635.193C708.796 648.531 778.279 682.887 787.26 687.217C793.75 690.338 807.317 694.875 817.912 698.236C804.982 709.148 784.512 726.508 773.759 736.079C757.543 750.533 712.976 784.327 691.711 798.095C670.711 811.697 618.454 839.679 551 848.298C483.405 856.932 443.2 848.132 395.579 833.288C347.668 818.362 301.826 791.298 267.761 768.498C235.609 746.973 200.689 718.842 189.757 709.496Z" fill="black"/>
</svg>
