<svg width="1000" height="1000" viewBox="0 0 1000 1000" fill="none" xmlns="http://www.w3.org/2000/svg">
<path d="M417.87 329.933L477.72 289.5C480.866 287.632 483.195 284.724 484.268 281.324C485.254 277.764 484.737 273.974 482.829 270.779C478.943 264.971 469.877 261.479 463.347 265.869L403.479 306.303C400.332 308.171 398.004 311.078 396.931 314.479C395.944 318.039 396.462 321.829 398.37 325.024C402.273 330.832 411.34 334.324 417.87 329.933Z" fill="white" stroke="black" stroke-width="8"/>
<path d="M662.741 512.046L639.57 578.789C637.214 585.582 642.467 594.036 649.662 595.557C653.308 596.403 657.153 595.868 660.399 594.062C663.645 592.257 666.043 589.319 667.094 585.859C674.805 563.629 682.529 541.392 690.264 519.15C692.621 512.357 687.386 503.921 680.19 502.4C676.549 501.546 672.705 502.071 669.457 503.867C666.208 505.663 663.803 508.592 662.741 512.046Z" fill="white" stroke="black" stroke-width="8"/>
<path d="M588.792 753.51C587.47 754.78 586.421 756.287 585.705 757.947C584.989 759.607 584.621 761.385 584.621 763.182C584.621 764.978 584.989 766.757 585.705 768.416C586.421 770.076 587.47 771.584 588.792 772.853C591.551 775.292 595.12 776.713 598.866 776.864L671.776 782.776C675.551 782.761 679.169 781.32 681.85 778.765C684.522 776.198 686.022 772.716 686.022 769.085C686.022 765.454 684.522 761.972 681.85 759.405C679.085 756.977 675.518 755.564 671.776 755.411L598.848 749.465C595.074 749.494 591.462 750.947 588.792 753.51Z" fill="white" stroke="black" stroke-width="8"/>
<path d="M202.126 366.339C205.862 366.147 209.417 364.731 212.2 362.329L269.136 318.162C271.808 315.594 273.309 312.112 273.309 308.481C273.282 304.856 271.785 301.383 269.136 298.801C266.452 296.252 262.835 294.818 259.062 294.808C255.33 295.002 251.777 296.41 248.988 298.801L192.052 342.985C189.39 345.042 187.896 349.519 187.896 352.666C187.912 356.285 189.404 359.754 192.052 362.329C194.725 364.895 198.348 366.337 202.126 366.339Z" fill="white" stroke="black" stroke-width="8"/>
<path d="M897 373.063C897.005 371.265 896.641 369.484 895.927 367.822C895.214 366.16 894.166 364.65 892.844 363.378C891.522 362.106 889.952 361.097 888.223 360.41C886.495 359.723 884.642 359.37 882.771 359.372C879.035 359.565 875.48 360.98 872.697 363.383L815.761 407.55C813.103 410.125 811.604 413.602 811.588 417.23C811.588 419.028 811.956 420.808 812.672 422.469C813.388 424.13 814.438 425.64 815.761 426.911C817.084 428.182 818.655 429.191 820.383 429.879C822.112 430.567 823.964 430.921 825.835 430.921C829.571 430.728 833.126 429.313 835.909 426.91L892.845 382.743C895.507 380.171 897.001 376.691 897 373.063Z" fill="white" stroke="black" stroke-width="8"/>
<path d="M152.717 484.475L223.108 465.287C230.304 463.334 235.431 455.52 233.056 448.45C231.995 444.985 229.575 442.051 226.306 440.268C223.037 438.484 219.175 437.991 215.535 438.891L145.143 458.079C137.948 460.032 132.803 467.845 135.195 474.916C136.253 478.383 138.672 481.319 141.942 483.104C145.212 484.888 149.076 485.379 152.717 484.475Z" fill="white" stroke="black" stroke-width="8"/>
<path d="M601.712 182C597.956 182.071 594.375 183.536 591.719 186.088C589.063 188.641 587.538 192.082 587.465 195.691C586.661 219.12 585.839 242.543 585 265.961C585.037 269.58 586.551 273.042 589.214 275.602C591.878 278.161 595.48 279.615 599.247 279.651C603.003 279.581 606.584 278.116 609.24 275.563C611.896 273.011 613.421 269.569 613.495 265.961C614.298 242.532 615.114 219.108 615.941 195.691C615.904 192.074 614.393 188.615 611.733 186.056C609.073 183.496 605.476 182.041 601.712 182Z" fill="white" stroke="black" stroke-width="8"/>
<path d="M362.151 573.241C364.213 576.294 367.445 578.443 371.146 579.222C372.981 579.617 374.881 579.659 376.733 579.344C378.586 579.03 380.355 578.365 381.939 577.389C385.012 575.303 387.222 572.243 388.181 568.746L410.2 501.692C410.612 499.928 410.655 498.103 410.328 496.322C410 494.542 409.309 492.842 408.293 491.32C407.288 489.805 405.981 488.495 404.448 487.466C402.916 486.437 401.187 485.708 399.361 485.321C397.535 484.934 395.647 484.897 393.806 485.211C391.965 485.526 390.207 486.186 388.631 487.154C385.558 489.241 383.348 492.301 382.389 495.797L360.37 562.851C359.515 566.405 360.155 570.139 362.151 573.241Z" fill="white" stroke="black" stroke-width="8"/>
<path d="M329.967 772.628C328.538 775.943 328.505 779.662 329.877 783C331.328 786.403 334.112 789.122 337.63 790.571C341.078 791.95 344.948 791.987 348.424 790.675C351.888 789.156 354.684 786.512 356.321 783.207L390.968 721.27C392.368 717.943 392.368 714.224 390.968 710.898C389.574 707.524 386.844 704.819 383.377 703.377C379.91 701.935 375.989 701.873 372.475 703.205C369.018 704.734 366.225 707.376 364.578 710.673L329.967 772.628Z" fill="white" stroke="black" stroke-width="8"/>
<path d="M572.655 385.164C575.426 378.544 572.997 369.9 565.603 367.031L497.73 340.738C490.84 338.059 481.846 340.444 478.86 347.497C476.089 354.118 478.518 362.778 485.911 365.631L553.785 391.941C560.674 394.637 569.669 392.252 572.655 385.164Z" fill="white" stroke="black" stroke-width="8"/>
<path d="M726.129 678.615L692.759 741.192C689.359 747.553 690.798 756.335 697.868 759.913C704.38 763.232 713.716 761.815 717.35 755.004L750.72 692.427C754.12 686.065 752.663 677.284 745.611 673.705C739.099 670.404 729.762 671.821 726.129 678.615Z" fill="white" stroke="black" stroke-width="8"/>
<path d="M555.448 456.999C554.387 453.534 551.967 450.6 548.698 448.817C545.429 447.033 541.567 446.539 537.927 447.439L467.535 466.645C460.34 468.581 455.213 476.394 457.587 483.464C458.645 486.932 461.064 489.868 464.334 491.652C467.604 493.436 471.468 493.928 475.109 493.024L545.5 473.836C552.66 471.882 557.823 464.069 555.448 456.999Z" fill="white" stroke="black" stroke-width="8"/>
<path d="M119.495 407.961L121.941 337.691C121.904 334.071 120.391 330.61 117.727 328.05C115.063 325.49 111.461 324.036 107.694 324C103.942 324.075 100.365 325.542 97.7125 328.094C95.0602 330.646 93.538 334.085 93.4645 337.691L91 407.961C91.0375 411.58 92.5506 415.042 95.2144 417.602C97.8782 420.161 101.48 421.615 105.247 421.651C109.003 421.581 112.584 420.116 115.24 417.563C117.896 415.011 119.421 411.569 119.495 407.961Z" fill="white" stroke="black" stroke-width="8"/>
<path d="M331.502 689.785L258.592 683.873C255.774 683.873 253.02 684.676 250.677 686.181C248.334 687.685 246.508 689.823 245.43 692.325C244.352 694.826 244.07 697.579 244.619 700.235C245.169 702.89 246.526 705.33 248.518 707.244C251.282 709.677 254.848 711.096 258.592 711.255L331.502 717.167C335.278 717.152 338.896 715.711 341.576 713.156C344.248 710.589 345.749 707.107 345.749 703.476C345.749 699.845 344.248 696.363 341.576 693.796C338.81 691.367 335.245 689.948 331.502 689.785Z" fill="white" stroke="black" stroke-width="8"/>
<path d="M683.109 210.027L753.5 190.839C760.696 188.886 765.841 181.073 763.448 174.002C762.391 170.535 759.971 167.598 756.701 165.814C753.431 164.03 749.568 163.539 745.927 164.443L675.535 183.631C668.34 185.584 663.213 193.398 665.587 200.468C666.649 203.933 669.069 206.867 672.338 208.65C675.607 210.434 679.468 210.927 683.109 210.027Z" fill="white" stroke="black" stroke-width="8"/>
<path d="M357.301 277.73C363.543 273.875 366.728 265.439 362.41 259.008L322.708 199.94C318.678 193.942 309.882 190.917 303.226 195.014C296.983 198.886 293.799 207.304 298.117 213.752C311.309 233.424 324.543 253.108 337.819 272.803C341.848 278.836 350.645 281.861 357.301 277.73Z" fill="white" stroke="black" stroke-width="8"/>
<path d="M847.347 501.105L786.759 461.692C780.571 457.664 770.713 460.361 767.277 466.601C765.461 469.754 764.979 473.459 765.93 476.945C766.882 480.431 769.194 483.431 772.386 485.322L832.974 524.735C839.162 528.763 849.038 526.067 852.456 519.826C854.272 516.673 854.754 512.968 853.803 509.482C852.851 505.996 850.539 502.996 847.347 501.105Z" fill="white" stroke="black" stroke-width="8"/>
<path d="M105.31 633.536C107.881 636.145 111.301 637.834 115.006 638.324L186.963 651.427C190.729 651.719 194.462 650.563 197.342 648.212C200.197 645.844 201.983 642.504 202.325 638.895C202.615 635.277 201.413 631.695 198.979 628.92C196.412 626.31 192.989 624.625 189.283 624.149L117.398 611.046C115.537 610.899 113.664 611.105 111.886 611.654C110.108 612.203 108.46 613.083 107.037 614.244C104.182 616.612 102.396 619.953 102.054 623.562C101.727 627.169 102.898 630.754 105.31 633.536Z" fill="white" stroke="black" stroke-width="8"/>
<path d="M483.889 824.548C487.594 825.49 491.535 824.994 494.862 823.166C498.061 821.354 500.407 818.424 501.41 814.989C502.235 811.421 501.725 807.688 499.971 804.444L469.39 740.484C467.504 737.411 464.456 735.156 460.881 734.192C457.176 733.25 453.234 733.747 449.907 735.575C446.709 737.387 444.363 740.316 443.359 743.751C442.535 747.32 443.045 751.053 444.798 754.296L475.38 818.256C477.265 821.33 480.314 823.584 483.889 824.548Z" fill="white" stroke="black" stroke-width="8"/>
<path d="M864.851 600.563L795.898 624.02C792.352 625.016 789.299 627.207 787.299 630.192C785.359 633.367 784.797 637.149 785.734 640.719C787.857 647.323 795.61 653.044 803.13 650.486L872.118 627.045C875.665 626.043 878.718 623.846 880.717 620.857C882.657 617.681 883.219 613.9 882.282 610.329C880.123 603.743 872.37 598.021 864.851 600.563Z" fill="white" stroke="black" stroke-width="8"/>
<path d="M611.109 464.01L554.174 508.178C551.515 510.753 550.016 514.23 550 517.858C550 521.486 551.499 524.966 554.167 527.533C556.835 530.1 560.454 531.544 564.229 531.549C567.966 531.359 571.522 529.943 574.303 527.538L631.239 483.371C633.898 480.796 635.397 477.319 635.413 473.691C635.413 470.06 633.912 466.578 631.24 464.01C628.568 461.442 624.944 460 621.165 460C617.435 460.194 613.886 461.609 611.109 464.01Z" fill="white" stroke="black" stroke-width="8"/>
<path d="M395.374 182.927L464.615 205.728C471.666 208.045 480.481 203.066 482.118 196.169C483.036 192.671 482.514 188.968 480.66 185.832C478.807 182.695 475.766 180.367 472.17 179.332L402.948 156.583C395.896 154.249 387.063 159.227 385.426 166.142C384.529 169.632 385.06 173.32 386.912 176.444C388.763 179.568 391.793 181.889 395.374 182.927Z" fill="white" stroke="black" stroke-width="8"/>
<path d="M752.043 291.08C758.285 287.208 761.469 278.789 757.152 272.359L717.449 213.291C713.402 207.275 704.623 204.25 697.967 208.381C691.725 212.254 688.523 220.672 692.858 227.103L732.56 286.171C736.59 292.169 745.387 295.211 752.043 291.08Z" fill="white" stroke="black" stroke-width="8"/>
<path d="M312.163 622.333C315.939 622.333 319.56 620.893 322.231 618.329C324.903 615.765 326.406 612.287 326.411 608.659C326.226 605.066 324.751 601.645 322.237 598.979L275.303 545.01C272.631 542.444 269.008 541.002 265.229 541C261.456 541.026 257.843 542.465 255.155 545.01C252.508 547.585 251.016 551.054 251 554.674C251.163 558.268 252.634 561.694 255.155 564.354L302.089 618.305C304.759 620.878 308.382 622.326 312.163 622.333Z" fill="white" stroke="black" stroke-width="8"/>
<path d="M170.304 273.147L240.695 253.959C247.891 252.006 253.036 244.192 250.643 237.122C249.606 233.631 247.182 230.671 243.894 228.883C240.605 227.094 236.717 226.62 233.068 227.563L162.658 246.751C155.463 248.704 150.336 256.518 152.71 263.588C153.772 267.068 156.203 270.014 159.488 271.799C162.773 273.584 166.653 274.067 170.304 273.147Z" fill="white" stroke="black" stroke-width="8"/>
</svg>
