<svg width="1000" height="1000" viewBox="0 0 1000 1000" fill="none" xmlns="http://www.w3.org/2000/svg">
<path d="M426.871 329.933L486.721 289.5C489.867 287.632 492.195 284.724 493.269 281.324C494.255 277.764 493.738 273.974 491.83 270.779C487.944 264.971 478.878 261.479 472.348 265.869L412.48 306.303C409.333 308.171 407.005 311.078 405.932 314.479C404.945 318.039 405.463 321.829 407.371 325.024C411.274 330.832 420.341 334.324 426.871 329.933Z" fill="#0077FF" stroke="black" stroke-width="8"/>
<path d="M685.741 514.046L662.57 580.789C660.214 587.582 665.467 596.036 672.662 597.557C676.308 598.403 680.153 597.868 683.399 596.062C686.645 594.257 689.043 591.319 690.094 587.859C697.805 565.629 705.529 543.392 713.264 521.15C715.621 514.357 710.386 505.921 703.19 504.4C699.549 503.546 695.705 504.071 692.457 505.867C689.208 507.663 686.803 510.592 685.741 514.046Z" fill="#00E0AC" stroke="black" stroke-width="8"/>
<path d="M597.793 753.51C596.471 754.78 595.422 756.287 594.706 757.947C593.99 759.607 593.622 761.385 593.622 763.182C593.622 764.978 593.99 766.757 594.706 768.416C595.422 770.076 596.471 771.584 597.793 772.853C600.552 775.292 604.121 776.713 607.867 776.864L680.777 782.776C684.552 782.761 688.17 781.32 690.851 778.765C693.523 776.198 695.023 772.716 695.023 769.085C695.023 765.454 693.523 761.972 690.851 759.405C688.086 756.977 684.519 755.564 680.777 755.411L607.849 749.465C604.075 749.494 600.463 750.947 597.793 753.51Z" fill="#FF1654" stroke="black" stroke-width="8"/>
<path d="M211.126 366.339C214.862 366.147 218.417 364.731 221.2 362.329L278.136 318.162C280.808 315.594 282.309 312.112 282.309 308.481C282.282 304.856 280.785 301.383 278.136 298.801C275.452 296.252 271.835 294.818 268.062 294.808C264.33 295.002 260.777 296.41 257.988 298.801L201.052 342.985C198.39 345.042 196.896 349.519 196.896 352.666C196.912 356.285 198.404 359.754 201.052 362.329C203.725 364.895 207.348 366.337 211.126 366.339Z" fill="#00E0AC" stroke="black" stroke-width="8"/>
<path d="M906 373.063C906.005 371.265 905.641 369.484 904.927 367.822C904.214 366.16 903.166 364.65 901.844 363.378C900.522 362.106 898.952 361.097 897.223 360.41C895.495 359.723 893.642 359.37 891.771 359.372C888.035 359.565 884.48 360.98 881.697 363.383L824.761 407.55C822.103 410.125 820.604 413.602 820.588 417.23C820.588 419.028 820.956 420.808 821.672 422.469C822.388 424.13 823.438 425.64 824.761 426.911C826.084 428.182 827.655 429.191 829.383 429.879C831.112 430.567 832.964 430.921 834.835 430.921C838.571 430.728 842.126 429.313 844.909 426.91L901.845 382.743C904.507 380.171 906.001 376.691 906 373.063Z" fill="#00E0AC" stroke="black" stroke-width="8"/>
<path d="M159.115 506.024L229.507 486.836C236.702 484.882 241.829 477.069 239.455 469.999C238.393 466.534 235.973 463.6 232.704 461.817C229.436 460.033 225.574 459.539 221.933 460.439L151.542 479.627C144.346 481.581 139.201 489.394 141.594 496.464C142.651 499.932 145.071 502.868 148.341 504.652C151.611 506.436 155.475 506.928 159.115 506.024Z" fill="#0077FF" stroke="black" stroke-width="8"/>
<path d="M603.078 187.563C599.323 187.634 595.741 189.099 593.085 191.651C590.429 194.204 588.904 197.645 588.831 201.254C588.027 224.683 587.206 248.106 586.366 271.524C586.404 275.143 587.917 278.605 590.581 281.165C593.244 283.724 596.847 285.178 600.614 285.214C604.369 285.144 607.95 283.679 610.607 281.126C613.263 278.574 614.787 275.132 614.861 271.524C615.665 248.095 616.48 224.671 617.308 201.254C617.27 197.637 615.76 194.178 613.1 191.619C610.44 189.059 606.842 187.604 603.078 187.563Z" fill="#0077FF" stroke="black" stroke-width="8"/>
<path d="M332.151 564.241C334.213 567.294 337.445 569.443 341.146 570.222C342.981 570.617 344.881 570.659 346.733 570.344C348.586 570.03 350.355 569.365 351.939 568.389C355.012 566.303 357.222 563.243 358.181 559.746L380.2 492.692C380.612 490.928 380.655 489.103 380.328 487.322C380 485.542 379.309 483.842 378.293 482.32C377.288 480.805 375.981 479.495 374.448 478.466C372.916 477.437 371.187 476.708 369.361 476.321C367.535 475.934 365.647 475.897 363.806 476.211C361.965 476.526 360.207 477.186 358.631 478.154C355.558 480.241 353.348 483.301 352.389 486.797L330.37 553.851C329.515 557.405 330.155 561.139 332.151 564.241Z" fill="#0077FF" stroke="black" stroke-width="8"/>
<path d="M338.966 772.628C337.537 775.943 337.504 779.662 338.876 783C340.327 786.403 343.111 789.122 346.629 790.571C350.077 791.95 353.947 791.987 357.423 790.675C360.887 789.156 363.683 786.512 365.32 783.207L399.967 721.27C401.367 717.943 401.367 714.224 399.967 710.898C398.573 707.524 395.843 704.819 392.376 703.377C388.909 701.935 384.988 701.873 381.474 703.205C378.017 704.734 375.224 707.376 373.577 710.673L338.966 772.628Z" fill="#00E0AC" stroke="black" stroke-width="8"/>
<path d="M581.654 385.164C584.425 378.544 581.996 369.9 574.602 367.031L506.729 340.738C499.839 338.059 490.845 340.444 487.859 347.497C485.088 354.118 487.517 362.778 494.91 365.631L562.784 391.941C569.673 394.637 578.668 392.252 581.654 385.164Z" fill="#FF1654" stroke="black" stroke-width="8"/>
<path d="M682.385 657.615L649.015 720.192C645.616 726.553 647.055 735.335 654.124 738.913C660.637 742.232 669.973 740.815 673.607 734.004L706.977 671.427C710.377 665.065 708.919 656.284 701.868 652.705C695.356 649.404 686.019 650.821 682.385 657.615Z" fill="#0077FF" stroke="black" stroke-width="8"/>
<path d="M555.448 456.999C554.387 453.534 551.967 450.6 548.698 448.817C545.429 447.033 541.567 446.539 537.927 447.439L467.535 466.645C460.34 468.581 455.213 476.394 457.587 483.464C458.645 486.932 461.064 489.868 464.334 491.652C467.604 493.436 471.468 493.928 475.109 493.024L545.5 473.836C552.66 471.882 557.823 464.069 555.448 456.999Z" fill="#00E0AC" stroke="black" stroke-width="8"/>
<path d="M144.495 408.156L146.941 337.887C146.904 334.267 145.391 330.805 142.727 328.246C140.063 325.686 136.461 324.232 132.694 324.196C128.942 324.271 125.365 325.738 122.713 328.29C120.06 330.842 118.538 334.281 118.465 337.887L116 408.156C116.037 411.776 117.551 415.238 120.214 417.797C122.878 420.357 126.48 421.811 130.247 421.847C134.003 421.776 137.584 420.311 140.24 417.759C142.896 415.207 144.421 411.765 144.495 408.156Z" fill="#FF1654" stroke="black" stroke-width="8"/>
<path d="M340.501 689.785L267.591 683.873C264.773 683.873 262.019 684.676 259.676 686.181C257.333 687.685 255.507 689.823 254.429 692.325C253.351 694.826 253.069 697.579 253.618 700.235C254.168 702.89 255.525 705.33 257.517 707.244C260.281 709.677 263.847 711.096 267.591 711.255L340.501 717.167C344.277 717.152 347.895 715.711 350.575 713.156C353.247 710.589 354.748 707.107 354.748 703.476C354.748 699.845 353.247 696.363 350.575 693.796C347.809 691.367 344.244 689.948 340.501 689.785Z" fill="#FF1654" stroke="black" stroke-width="8"/>
<path d="M692.539 248.134L762.93 228.946C770.126 226.993 775.271 219.179 772.878 212.109C771.821 208.641 769.401 205.705 766.131 203.921C762.861 202.137 758.997 201.645 755.357 202.549L684.965 221.737C677.769 223.691 672.643 231.504 675.017 238.574C676.078 242.04 678.499 244.973 681.768 246.757C685.036 248.54 688.898 249.034 692.539 248.134Z" fill="#0077FF" stroke="black" stroke-width="8"/>
<path d="M366.301 277.73C372.543 273.875 375.728 265.439 371.41 259.008L331.708 199.94C327.678 193.942 318.882 190.917 312.226 195.014C305.983 198.886 302.799 207.304 307.117 213.752C320.309 233.424 333.543 253.108 346.819 272.803C350.848 278.836 359.645 281.861 366.301 277.73Z" fill="#FF1654" stroke="black" stroke-width="8"/>
<path d="M856.347 501.105L795.759 461.692C789.571 457.664 779.713 460.361 776.277 466.601C774.461 469.754 773.979 473.459 774.93 476.945C775.882 480.431 778.194 483.431 781.386 485.322L841.974 524.735C848.162 528.763 858.038 526.067 861.456 519.826C863.272 516.673 863.754 512.968 862.803 509.482C861.851 505.996 859.539 502.996 856.347 501.105Z" fill="#FF1654" stroke="black" stroke-width="8"/>
<path d="M96.3097 631.536C98.8811 634.145 102.301 635.834 106.006 636.324L177.963 649.427C181.729 649.719 185.462 648.563 188.342 646.212C191.197 643.844 192.983 640.504 193.325 636.895C193.615 633.277 192.413 629.695 189.979 626.92C187.412 624.31 183.989 622.625 180.283 622.149L108.398 609.046C106.537 608.899 104.664 609.105 102.886 609.654C101.108 610.203 99.4605 611.083 98.0367 612.244C95.1821 614.612 93.3957 617.953 93.0537 621.562C92.7274 625.169 93.8977 628.754 96.3097 631.536Z" fill="#00E0AC" stroke="black" stroke-width="8"/>
<path d="M492.889 824.548C496.594 825.49 500.535 824.994 503.862 823.166C507.061 821.354 509.407 818.424 510.41 814.989C511.235 811.421 510.725 807.688 508.971 804.444L478.39 740.484C476.504 737.411 473.456 735.156 469.881 734.192C466.176 733.25 462.234 733.747 458.907 735.575C455.709 737.387 453.363 740.316 452.359 743.751C451.535 747.32 452.045 751.053 453.798 754.296L484.38 818.256C486.265 821.33 489.314 823.584 492.889 824.548Z" fill="#0077FF" stroke="black" stroke-width="8"/>
<path d="M900.56 609.616L831.607 633.074C828.061 634.069 825.008 636.261 823.008 639.245C821.068 642.421 820.506 646.202 821.443 649.773C823.566 656.376 831.319 662.098 838.839 659.54L907.827 636.099C911.374 635.097 914.427 632.9 916.426 629.911C918.366 626.735 918.928 622.954 917.991 619.383C915.832 612.797 908.079 607.075 900.56 609.616Z" fill="#00E0AC" stroke="black" stroke-width="8"/>
<path d="M612.109 483.01L555.174 527.178C552.515 529.753 551.016 533.23 551 536.858C551 540.486 552.499 543.966 555.167 546.533C557.835 549.1 561.454 550.544 565.229 550.549C568.966 550.359 572.522 548.943 575.303 546.538L632.239 502.371C634.898 499.796 636.397 496.319 636.413 492.691C636.413 489.06 634.912 485.578 632.24 483.01C629.568 480.442 625.944 479 622.165 479C618.435 479.194 614.886 480.609 612.109 483.01Z" fill="#FF1654" stroke="black" stroke-width="8"/>
<path d="M399.374 203.927L468.615 226.728C475.666 229.045 484.481 224.066 486.118 217.169C487.036 213.671 486.514 209.968 484.66 206.832C482.807 203.695 479.766 201.367 476.17 200.332L406.948 177.583C399.896 175.249 391.063 180.227 389.426 187.142C388.529 190.632 389.06 194.32 390.912 197.444C392.763 200.568 395.793 202.889 399.374 203.927Z" fill="#00E0AC" stroke="black" stroke-width="8"/>
<path d="M761.043 291.08C767.285 287.208 770.469 278.789 766.152 272.359L726.449 213.291C722.402 207.275 713.623 204.25 706.967 208.381C700.725 212.254 697.523 220.672 701.858 227.103L741.56 286.171C745.59 292.169 754.387 295.211 761.043 291.08Z" fill="#00E0AC" stroke="black" stroke-width="8"/>
<path d="M290.163 629.333C293.939 629.333 297.56 627.893 300.231 625.329C302.903 622.765 304.406 619.287 304.411 615.659C304.226 612.066 302.751 608.645 300.237 605.979L253.303 552.01C250.631 549.444 247.008 548.002 243.229 548C239.456 548.026 235.843 549.465 233.155 552.01C230.508 554.585 229.016 558.054 229 561.674C229.163 565.268 230.634 568.694 233.155 571.354L280.089 625.305C282.759 627.878 286.382 629.326 290.163 629.333Z" fill="#0077FF" stroke="black" stroke-width="8"/>
<path d="M179.305 273.147L249.696 253.959C256.892 252.006 262.037 244.192 259.644 237.122C258.607 233.631 256.183 230.671 252.895 228.883C249.606 227.094 245.718 226.62 242.069 227.563L171.659 246.751C164.464 248.704 159.337 256.518 161.711 263.588C162.773 267.068 165.204 270.014 168.489 271.799C171.774 273.584 175.654 274.067 179.305 273.147Z" fill="#0077FF" stroke="black" stroke-width="8"/>
</svg>
