<svg width="1000" height="1000" viewBox="0 0 1000 1000" fill="none" xmlns="http://www.w3.org/2000/svg">
<path d="M417.871 329.933L477.721 289.5C480.867 287.632 483.195 284.724 484.269 281.324C485.255 277.764 484.738 273.974 482.83 270.779C478.944 264.971 469.878 261.479 463.348 265.869L403.48 306.303C400.333 308.171 398.005 311.078 396.932 314.479C395.945 318.039 396.463 321.829 398.371 325.024C402.274 330.832 411.341 334.324 417.871 329.933Z" fill="#BE05FF" stroke="black" stroke-width="8"/>
<path d="M689.741 510.046L666.57 576.789C664.214 583.582 669.467 592.036 676.662 593.557C680.308 594.403 684.153 593.868 687.399 592.062C690.645 590.257 693.043 587.319 694.094 583.859C701.805 561.629 709.529 539.392 717.264 517.15C719.621 510.357 714.386 501.921 707.19 500.4C703.549 499.546 699.705 500.071 696.457 501.867C693.208 503.663 690.803 506.592 689.741 510.046Z" fill="#BE05FF" stroke="black" stroke-width="8"/>
<path d="M526.171 750.045C524.849 751.315 523.8 752.823 523.084 754.482C522.368 756.142 522 757.92 522 759.717C522 761.513 522.368 763.292 523.084 764.952C523.8 766.611 524.849 768.119 526.171 769.389C528.93 771.827 532.499 773.248 536.245 773.399L609.155 779.311C612.93 779.296 616.548 777.855 619.229 775.301C621.901 772.733 623.401 769.251 623.401 765.62C623.401 761.989 621.901 758.507 619.229 755.94C616.463 753.513 612.897 752.099 609.155 751.947L536.227 746C532.453 746.029 528.841 747.482 526.171 750.045Z" fill="#FF003D" stroke="black" stroke-width="8"/>
<path d="M202.126 366.339C205.862 366.147 209.417 364.731 212.2 362.329L269.136 318.162C271.808 315.594 273.309 312.112 273.309 308.481C273.282 304.856 271.785 301.383 269.136 298.801C266.452 296.252 262.835 294.818 259.062 294.808C255.33 295.002 251.777 296.41 248.988 298.801L192.052 342.985C189.39 345.042 187.896 349.519 187.896 352.666C187.912 356.285 189.404 359.754 192.052 362.329C194.725 364.895 198.348 366.337 202.126 366.339Z" fill="#FF003D" stroke="black" stroke-width="8"/>
<path d="M897 373.063C897.005 371.265 896.641 369.484 895.927 367.822C895.214 366.16 894.166 364.65 892.844 363.378C891.522 362.106 889.952 361.097 888.223 360.41C886.495 359.723 884.642 359.37 882.771 359.372C879.035 359.565 875.48 360.98 872.697 363.383L815.761 407.55C813.103 410.125 811.604 413.602 811.588 417.23C811.588 419.028 811.956 420.808 812.672 422.469C813.388 424.13 814.438 425.64 815.761 426.911C817.084 428.182 818.655 429.191 820.383 429.879C822.112 430.567 823.964 430.921 825.835 430.921C829.571 430.728 833.126 429.313 835.909 426.91L892.845 382.743C895.507 380.171 897.001 376.691 897 373.063Z" fill="#FF003D" stroke="black" stroke-width="8"/>
<path d="M152.716 484.475L223.107 465.287C230.303 463.334 235.43 455.52 233.055 448.45C231.994 444.985 229.574 442.051 226.305 440.268C223.036 438.484 219.174 437.991 215.534 438.891L145.142 458.079C137.947 460.032 132.802 467.845 135.194 474.916C136.252 478.383 138.671 481.319 141.941 483.104C145.211 484.888 149.075 485.379 152.716 484.475Z" fill="#FF9737" stroke="black" stroke-width="8"/>
<path d="M594.078 187.563C590.323 187.634 586.741 189.099 584.085 191.651C581.429 194.204 579.904 197.645 579.831 201.254C579.027 224.683 578.206 248.106 577.366 271.524C577.404 275.143 578.917 278.605 581.581 281.165C584.244 283.724 587.847 285.178 591.614 285.214C595.369 285.144 598.95 283.679 601.607 281.126C604.263 278.574 605.787 275.132 605.861 271.524C606.665 248.095 607.48 224.671 608.308 201.254C608.27 197.637 606.76 194.178 604.1 191.619C601.44 189.059 597.842 187.604 594.078 187.563Z" fill="#FF9737" stroke="black" stroke-width="8"/>
<path d="M332.151 550.241C334.213 553.294 337.445 555.443 341.146 556.222C342.981 556.617 344.881 556.659 346.733 556.344C348.586 556.03 350.355 555.365 351.939 554.389C355.012 552.303 357.222 549.243 358.181 545.746L380.2 478.692C380.612 476.928 380.655 475.103 380.328 473.322C380 471.542 379.309 469.842 378.293 468.32C377.288 466.805 375.981 465.495 374.448 464.466C372.916 463.437 371.187 462.708 369.361 462.321C367.535 461.934 365.647 461.897 363.806 462.211C361.965 462.526 360.207 463.186 358.631 464.154C355.558 466.241 353.348 469.301 352.389 472.797L330.37 539.851C329.515 543.405 330.155 547.139 332.151 550.241Z" fill="#FF9737" stroke="black" stroke-width="8"/>
<path d="M320.096 771.379C318.667 774.694 318.634 778.413 320.006 781.751C321.457 785.154 324.241 787.873 327.759 789.322C331.207 790.701 335.077 790.738 338.553 789.426C342.017 787.907 344.813 785.262 346.45 781.958L381.097 720.021C382.497 716.694 382.497 712.975 381.097 709.649C379.703 706.275 376.973 703.57 373.506 702.128C370.039 700.686 366.118 700.624 362.604 701.956C359.147 703.485 356.354 706.127 354.707 709.424L320.096 771.379Z" fill="#FF00D6" stroke="black" stroke-width="8"/>
<path d="M572.654 385.164C575.425 378.544 572.996 369.9 565.602 367.031L497.729 340.738C490.839 338.059 481.845 340.444 478.859 347.497C476.088 354.118 478.517 362.778 485.91 365.631L553.784 391.941C560.673 394.637 569.668 392.252 572.654 385.164Z" fill="#FF00D6" stroke="black" stroke-width="8"/>
<path d="M701.129 657.615L667.759 720.192C664.359 726.553 665.798 735.335 672.868 738.913C679.38 742.232 688.716 740.815 692.35 734.004L725.72 671.427C729.12 665.065 727.663 656.284 720.611 652.705C714.099 649.404 704.762 650.821 701.129 657.615Z" fill="#FF00D6" stroke="black" stroke-width="8"/>
<path d="M554.448 456.999C553.387 453.534 550.967 450.6 547.698 448.817C544.429 447.033 540.567 446.539 536.927 447.439L466.535 466.645C459.34 468.581 454.213 476.394 456.587 483.464C457.645 486.932 460.064 489.868 463.334 491.652C466.604 493.436 470.468 493.928 474.109 493.024L544.5 473.836C551.66 471.882 556.823 464.069 554.448 456.999Z" fill="#BE05FF" stroke="black" stroke-width="8"/>
<path d="M135.495 408.156L137.941 337.887C137.904 334.267 136.391 330.805 133.727 328.246C131.063 325.686 127.461 324.232 123.694 324.196C119.942 324.271 116.365 325.738 113.713 328.29C111.06 330.842 109.538 334.281 109.465 337.887L107 408.156C107.037 411.776 108.551 415.238 111.214 417.797C113.878 420.357 117.48 421.811 121.247 421.847C125.003 421.776 128.584 420.311 131.24 417.759C133.896 415.207 135.421 411.765 135.495 408.156Z" fill="#3FE8FF" stroke="black" stroke-width="8"/>
<path d="M331.501 689.785L258.591 683.873C255.773 683.873 253.019 684.676 250.676 686.181C248.333 687.685 246.507 689.823 245.429 692.325C244.351 694.826 244.069 697.579 244.618 700.235C245.168 702.89 246.525 705.33 248.517 707.244C251.281 709.677 254.847 711.096 258.591 711.255L331.501 717.167C335.277 717.152 338.895 715.711 341.575 713.156C344.247 710.589 345.748 707.107 345.748 703.476C345.748 699.845 344.247 696.363 341.575 693.796C338.809 691.367 335.244 689.948 331.501 689.785Z" fill="#FFE500" stroke="black" stroke-width="8"/>
<path d="M683.539 248.134L753.93 228.946C761.126 226.993 766.271 219.179 763.878 212.109C762.821 208.641 760.401 205.705 757.131 203.921C753.861 202.137 749.997 201.645 746.357 202.549L675.965 221.737C668.769 223.691 663.643 231.504 666.017 238.574C667.078 242.04 669.499 244.973 672.768 246.757C676.036 248.54 679.898 249.034 683.539 248.134Z" fill="#FFE500" stroke="black" stroke-width="8"/>
<path d="M357.301 277.73C363.543 273.875 366.728 265.439 362.41 259.008L322.708 199.94C318.678 193.942 309.882 190.917 303.226 195.014C296.983 198.886 293.799 207.304 298.117 213.752C311.309 233.424 324.543 253.108 337.819 272.803C341.848 278.836 350.645 281.861 357.301 277.73Z" fill="#3FE8FF" stroke="black" stroke-width="8"/>
<path d="M847.347 501.105L786.759 461.692C780.571 457.664 770.713 460.361 767.277 466.601C765.461 469.754 764.979 473.459 765.93 476.945C766.882 480.431 769.194 483.431 772.386 485.322L832.974 524.735C839.162 528.763 849.038 526.067 852.456 519.826C854.272 516.673 854.754 512.968 853.803 509.482C852.851 505.996 850.539 502.996 847.347 501.105Z" fill="#3FE8FF" stroke="black" stroke-width="8"/>
<path d="M105.31 637.536C107.881 640.145 111.301 641.834 115.006 642.324L186.963 655.427C190.729 655.719 194.462 654.563 197.342 652.212C200.197 649.844 201.983 646.504 202.325 642.895C202.615 639.277 201.413 635.695 198.979 632.92C196.412 630.31 192.989 628.625 189.283 628.149L117.398 615.046C115.537 614.899 113.664 615.105 111.886 615.654C110.108 616.203 108.46 617.083 107.037 618.244C104.182 620.612 102.396 623.953 102.054 627.562C101.727 631.169 102.898 634.754 105.31 637.536Z" fill="#3FE8FF" stroke="black" stroke-width="8"/>
<path d="M483.889 824.548C487.594 825.49 491.535 824.994 494.862 823.166C498.061 821.354 500.407 818.424 501.41 814.989C502.235 811.421 501.725 807.688 499.971 804.444L469.39 740.484C467.504 737.411 464.456 735.156 460.881 734.192C457.176 733.25 453.234 733.747 449.907 735.575C446.709 737.387 444.363 740.316 443.359 743.751C442.535 747.32 443.045 751.053 444.798 754.296L475.38 818.256C477.265 821.33 480.314 823.584 483.889 824.548Z" fill="#3FE8FF" stroke="black" stroke-width="8"/>
<path d="M864.851 600.563L795.898 624.02C792.352 625.016 789.299 627.207 787.299 630.192C785.359 633.367 784.797 637.149 785.734 640.719C787.857 647.323 795.61 653.044 803.13 650.486L872.118 627.045C875.665 626.043 878.718 623.846 880.717 620.857C882.657 617.681 883.219 613.9 882.282 610.329C880.123 603.743 872.37 598.021 864.851 600.563Z" fill="#FFE500" stroke="black" stroke-width="8"/>
<path d="M599.109 461.01L542.174 505.178C539.515 507.753 538.016 511.23 538 514.858C538 518.486 539.499 521.966 542.167 524.533C544.835 527.1 548.454 528.544 552.229 528.549C555.966 528.359 559.522 526.943 562.303 524.538L619.239 480.371C621.898 477.796 623.397 474.319 623.413 470.691C623.413 467.06 621.912 463.578 619.24 461.01C616.568 458.442 612.944 457 609.165 457C605.435 457.194 601.886 458.609 599.109 461.01Z" fill="#FFE500" stroke="black" stroke-width="8"/>
<path d="M392.374 178.927L461.615 201.728C468.666 204.045 477.481 199.066 479.118 192.169C480.036 188.671 479.514 184.968 477.66 181.832C475.807 178.695 472.766 176.367 469.17 175.332L399.948 152.583C392.896 150.249 384.063 155.227 382.426 162.142C381.529 165.632 382.06 169.32 383.912 172.444C385.763 175.568 388.793 177.889 392.374 178.927Z" fill="#FFE500" stroke="black" stroke-width="8"/>
<path d="M827.178 339.603C833.421 335.731 836.605 327.312 832.287 320.882L792.585 261.814C788.538 255.798 779.759 252.773 773.103 256.904C766.861 260.776 763.659 269.195 767.994 275.626L807.696 334.694C811.726 340.692 820.522 343.734 827.178 339.603Z" fill="#00FF2A" stroke="black" stroke-width="8"/>
<path d="M334.163 628.333C337.939 628.333 341.56 626.893 344.231 624.329C346.903 621.765 348.406 618.287 348.411 614.659C348.226 611.066 346.751 607.645 344.237 604.979L297.303 551.01C294.631 548.444 291.008 547.002 287.229 547C283.456 547.026 279.843 548.465 277.155 551.01C274.508 553.585 273.016 557.054 273 560.674C273.163 564.268 274.634 567.694 277.155 570.354L324.089 624.305C326.759 626.878 330.382 628.326 334.163 628.333Z" fill="#00FF2A" stroke="black" stroke-width="8"/>
<path d="M170.305 273.147L240.696 253.959C247.892 252.006 253.037 244.192 250.644 237.122C249.607 233.631 247.183 230.671 243.895 228.883C240.606 227.094 236.718 226.62 233.069 227.563L162.659 246.751C155.464 248.704 150.337 256.518 152.711 263.588C153.773 267.068 156.204 270.014 159.489 271.799C162.774 273.584 166.654 274.067 170.305 273.147Z" fill="#00FF2A" stroke="black" stroke-width="8"/>
</svg>
