<svg width="1000" height="1000" viewBox="0 0 1000 1000" fill="none" xmlns="http://www.w3.org/2000/svg">
<path d="M98.8246 387.189C107.941 374.14 146.021 334.231 157.632 323.346C176.778 305.431 196.709 288.276 217.423 271.882C208.006 278.829 226.553 264.651 217.423 271.882C242.593 253.619 268.649 236.522 295.591 220.591C323.318 204.263 351.897 189.267 381.221 175.662C397.069 168.289 364.976 182.196 381.221 175.674C387.844 173.096 400.619 168.063 407.324 165.486C410.574 164.268 421.286 159.202 419.385 154.775C418.879 153.902 418.193 153.135 417.368 152.517C416.543 151.899 415.595 151.444 414.581 151.179C404.095 147.313 392.361 148.415 381.221 150C356.016 153.596 347.919 157.153 325.004 167.941C301.169 179.174 303.114 175.758 280.424 189.001C255.58 203.527 231.473 219.084 208.102 235.671C183.838 252.878 188.11 249.726 165.542 268.905C142.975 288.083 97.3732 334.99 85.4354 361.709C81.8173 369.828 79.0168 378.78 81.0201 387.383C81.7968 390.766 83.8819 394.42 87.5 395C91.1181 395.58 94.675 392.371 97.1688 389.529C97.3937 389.219 98.0274 388.33 98.8246 387.189Z" fill="#693903"/>
<path d="M217.423 271.882C196.709 288.276 176.778 305.431 157.632 323.346C146.021 334.231 107.941 374.14 98.8246 387.189C98.0274 388.33 97.3937 389.219 97.1688 389.529C94.675 392.371 91.1181 395.58 87.5 395C83.8819 394.42 81.7968 390.766 81.0201 387.383C79.0168 378.78 81.8173 369.828 85.4354 361.709C97.3732 334.99 142.975 288.083 165.542 268.905C188.11 249.726 183.838 252.878 208.102 235.671C231.473 219.084 255.58 203.527 280.424 189.001C303.114 175.758 301.169 179.174 325.004 167.941C347.919 157.153 356.016 153.596 381.221 150C392.361 148.415 404.095 147.313 414.581 151.179C415.595 151.444 416.543 151.899 417.368 152.517C418.193 153.135 418.879 153.902 419.385 154.775C421.286 159.202 410.574 164.268 407.324 165.486C400.619 168.063 387.844 173.096 381.221 175.674C364.976 182.196 397.069 168.289 381.221 175.662C351.897 189.267 323.318 204.263 295.591 220.591C268.649 236.522 242.593 253.619 217.423 271.882ZM217.423 271.882C226.553 264.651 208.006 278.829 217.423 271.882Z" stroke="black" stroke-width="8"/>
<path d="M178.19 458.142C185.917 451.839 206.359 436.682 214.412 430.766C225.39 422.685 244.461 409.075 242.887 394.227C242.56 390.979 241.845 387.209 238.799 385.701C237.013 384.978 235.031 384.809 233.137 385.218C221.24 386.88 210.651 394.884 200.839 400.858C189.916 407.279 166.809 423.29 156.665 430.766C127.598 452.651 98.4276 477.378 90.8438 513.318C90.0028 516.594 89.7882 519.986 90.2101 523.333C90.4349 525.007 91.0434 526.615 91.9931 528.045C92.9428 529.474 94.2109 530.69 95.7088 531.607C103.885 536.054 108.73 525.073 112.982 520.336C119.796 512.809 126.739 505.469 133.812 498.316C147.87 484.217 162.682 470.808 178.19 458.142Z" fill="#693903" stroke="black" stroke-width="8"/>
<path d="M719.694 304.223C718.433 306.704 717.427 309.293 716.689 311.956C715.974 314.046 715.812 316.27 716.219 318.432C717.343 322.937 722.535 325.682 727.421 325.798C744.816 326.204 760.842 309.327 774.109 300.665C790.544 289.929 807.422 279.844 824.742 270.409C832.837 266.001 841.014 261.748 849.272 257.649C855.793 254.402 861.537 245.431 854.812 240.617C848.679 236.19 836.742 238.413 829.935 239.824C810.533 243.847 791.772 250.256 774.129 258.887C758.798 266.388 744.367 279.225 731.202 289.916C726.362 293.882 722.444 298.753 719.694 304.223Z" fill="#693903" stroke="black" stroke-width="8"/>
<path d="M362.586 699.02C371.458 694.728 376.589 677.618 363.956 674.389C360.242 673.693 356.4 673.933 352.815 675.085C329.41 680.885 308.049 692.253 288.793 706.018C270.784 718.817 258.206 728.113 251.44 749.128C249.886 754 249.13 759.471 251.583 764.014C260.802 781.105 279.792 757.286 286.538 751.158C300.262 738.496 307.543 734.52 322.542 723.225C335.118 714.067 348.517 705.968 362.586 699.02Z" fill="#693903" stroke="black" stroke-width="8"/>
<path d="M765.552 397.252C759.706 405.875 758.643 413.047 767.433 415.754C778.246 419.079 791.165 406.687 799.628 401.641C815.449 391.893 844.406 373.795 861.266 365.756C868.298 362.528 875.412 359.493 882.587 356.573C891.377 353.132 910.285 345.921 906.626 333.374C905.987 331.616 904.91 330.03 903.487 328.748C902.064 327.466 900.337 326.526 898.449 326.008C894.636 325.029 890.658 324.76 886.736 325.215C844.014 328.212 788.631 363.149 765.552 397.252Z" fill="#693903" stroke="black" stroke-width="8"/>
<path d="M543.362 718.618C557.16 711.291 536.636 706.67 529.85 707.018C495.099 708.507 463.619 723.877 436.105 743.113C422.185 752.78 409.306 763.703 396.203 774.355C382.671 785.24 370.181 795.389 362.005 810.721C360.139 813.679 359.104 817.04 359 820.484C359.388 829.88 369.466 833.031 377.827 831.987C386.187 830.943 390.889 825.491 396.96 820.097C414.349 804.631 432.467 789.963 451.314 776.095C480.506 754.882 511.267 735.674 543.362 718.618V718.618Z" fill="#693903" stroke="black" stroke-width="8"/>
<path fill-rule="evenodd" clip-rule="evenodd" d="M545.294 264.973C527.809 275.078 511.004 285.976 487.833 303.236C470.315 316.228 453.757 329.451 439.591 345.768C436.407 349.245 433.546 352.966 431.035 356.89L459.061 370.755C461.881 368.383 464.714 366.025 467.555 363.69C470.315 361.412 472.32 359.748 473.828 358.497C476.839 355.998 477.863 355.148 478.931 354.357C479.482 353.949 480.044 353.556 480.897 352.961C482.532 351.82 485.233 349.935 490.963 345.769C514.447 328.687 538.575 312.465 563.347 297.103C557.946 286.409 551.85 275.593 545.294 264.973ZM583.4 284.938C584.244 284.438 585.089 283.938 585.934 283.439C619.301 263.771 653.693 245.704 688.98 229.307C695.331 226.371 699.071 224.458 702.247 222.833C707.249 220.275 710.853 218.432 721.054 214.435C739.37 207.282 761.693 198.331 779.709 190.533C781.373 189.994 782.793 188.933 783.733 187.527C784.674 186.121 785.078 184.453 784.881 182.8C784.757 181.984 784.458 181.201 784 180.499C783.543 179.798 782.938 179.192 782.224 178.721C777.399 174.99 770.695 174.545 764.46 174.526C710.098 174.339 668.554 197.349 624.016 222.019C617.826 225.447 611.579 228.907 605.231 232.342C596.663 236.996 588.945 241.127 581.814 244.944L581.812 244.945C575.763 248.183 570.135 251.196 564.768 254.11C571.524 264.352 577.849 274.761 583.4 284.938Z" fill="#693903"/>
<path d="M545.294 264.973L548.698 262.872L546.657 259.565L543.293 261.51L545.294 264.973ZM487.833 303.236L490.216 306.449L490.223 306.444L487.833 303.236ZM439.591 345.768L442.541 348.47L442.577 348.431L442.612 348.391L439.591 345.768ZM431.035 356.89L427.666 354.734L425.259 358.495L429.261 360.475L431.035 356.89ZM459.061 370.755L457.288 374.34L459.633 375.5L461.636 373.816L459.061 370.755ZM467.555 363.69L470.095 366.78L470.102 366.775L467.555 363.69ZM473.828 358.497L476.383 361.575L476.383 361.575L473.828 358.497ZM478.931 354.357L481.312 357.571L481.312 357.571L478.931 354.357ZM480.897 352.961L478.608 349.681L478.608 349.681L480.897 352.961ZM490.963 345.769L493.315 349.004L493.316 349.003L490.963 345.769ZM563.347 297.103L565.455 300.503L568.569 298.571L566.917 295.3L563.347 297.103ZM583.4 284.938L579.888 286.854L581.874 290.495L585.441 288.379L583.4 284.938ZM585.934 283.439L583.903 279.993L583.902 279.994L585.934 283.439ZM688.98 229.307L687.301 225.676L687.294 225.679L688.98 229.307ZM702.247 222.833L700.426 219.272L700.426 219.272L702.247 222.833ZM721.054 214.435L719.599 210.709L719.595 210.711L721.054 214.435ZM779.709 190.533L778.475 186.728L778.295 186.787L778.12 186.862L779.709 190.533ZM783.733 187.527L780.408 185.303L780.408 185.303L783.733 187.527ZM784.881 182.8L788.853 182.326L788.845 182.263L788.836 182.201L784.881 182.8ZM784 180.499L780.649 182.683L780.649 182.683L784 180.499ZM782.224 178.721L779.776 181.885L779.896 181.977L780.022 182.06L782.224 178.721ZM764.46 174.526L764.446 178.526L764.447 178.526L764.46 174.526ZM624.016 222.019L622.077 218.52L622.077 218.52L624.016 222.019ZM605.231 232.342L603.327 228.824L603.322 228.827L605.231 232.342ZM581.814 244.944L579.926 241.418L579.915 241.424L581.814 244.944ZM581.812 244.945L583.7 248.472L583.711 248.466L581.812 244.945ZM564.768 254.11L562.859 250.595L559.029 252.675L561.429 256.313L564.768 254.11ZM543.293 261.51C525.661 271.699 508.728 282.684 485.444 300.028L490.223 306.444C513.281 289.268 529.956 278.457 547.296 268.436L543.293 261.51ZM485.451 300.023C467.882 313.052 451.034 326.487 436.571 343.146L442.612 348.391C456.481 332.416 472.748 319.403 490.216 306.449L485.451 300.023ZM436.642 343.067C433.303 346.712 430.301 350.615 427.666 354.734L434.404 359.046C436.79 355.317 439.511 351.778 442.541 348.47L436.642 343.067ZM429.261 360.475L457.288 374.34L460.835 367.17L432.809 353.305L429.261 360.475ZM461.636 373.816C464.445 371.453 467.266 369.105 470.095 366.78L465.016 360.6C462.161 362.946 459.317 365.313 456.486 367.694L461.636 373.816ZM470.102 366.775C472.865 364.494 474.874 362.826 476.383 361.575L471.274 355.418C469.767 356.669 467.764 358.331 465.009 360.605L470.102 366.775ZM476.383 361.575C479.436 359.041 480.356 358.28 481.312 357.571L476.55 351.143C475.37 352.017 474.241 352.956 471.274 355.418L476.383 361.575ZM481.312 357.571C481.809 357.203 482.321 356.845 483.186 356.241L478.608 349.681C477.768 350.267 477.155 350.694 476.55 351.143L481.312 357.571ZM483.186 356.241C484.838 355.088 487.561 353.188 493.315 349.004L488.611 342.533C482.905 346.682 480.226 348.552 478.608 349.681L483.186 356.241ZM493.316 349.003C516.72 331.98 540.767 315.813 565.455 300.503L561.239 293.704C536.384 309.118 512.174 325.394 488.61 342.534L493.316 349.003ZM566.917 295.3C561.461 284.495 555.308 273.58 548.698 262.872L541.89 267.074C548.392 277.606 554.432 288.323 559.776 298.906L566.917 295.3ZM585.441 288.379C586.282 287.879 587.124 287.381 587.967 286.884L583.902 279.994C583.053 280.494 582.206 280.996 581.359 281.498L585.441 288.379ZM587.965 286.885C621.219 267.284 655.496 249.277 690.665 232.934L687.294 225.679C651.89 242.132 617.382 260.259 583.903 279.993L587.965 286.885ZM690.658 232.938C697.08 229.969 700.874 228.029 704.069 226.394L700.426 219.272C697.269 220.887 693.583 222.772 687.301 225.676L690.658 232.938ZM704.069 226.394C708.98 223.882 712.461 222.097 722.513 218.159L719.595 210.711C709.244 214.766 705.518 216.668 700.426 219.272L704.069 226.394ZM722.51 218.161C740.842 211.001 763.217 202.03 781.298 194.204L778.12 186.862C760.17 194.632 737.898 203.562 719.599 210.709L722.51 218.161ZM780.943 194.338C783.43 193.532 785.6 191.931 787.058 189.751L780.408 185.303C779.986 185.935 779.316 186.456 778.475 186.728L780.943 194.338ZM787.058 189.751C788.52 187.565 789.165 184.943 788.853 182.326L780.909 183.275C780.991 183.964 780.827 184.677 780.408 185.303L787.058 189.751ZM788.836 182.201C788.625 180.811 788.116 179.489 787.352 178.316L780.649 182.683C780.799 182.913 780.889 183.157 780.926 183.399L788.836 182.201ZM787.352 178.316C786.588 177.143 785.588 176.148 784.425 175.381L780.022 182.06C780.289 182.236 780.498 182.452 780.649 182.683L787.352 178.316ZM784.671 175.557C778.647 170.898 770.614 170.545 764.472 170.526L764.447 178.526C770.775 178.545 776.151 179.081 779.776 181.885L784.671 175.557ZM764.474 170.526C708.926 170.335 666.514 193.907 622.077 218.52L625.954 225.518C670.594 200.792 711.269 178.343 764.446 178.526L764.474 170.526ZM622.077 218.52C615.885 221.949 609.655 225.4 603.327 228.824L607.135 235.86C613.502 232.415 619.767 228.945 625.954 225.518L622.077 218.52ZM603.322 228.827C594.766 233.474 587.058 237.6 579.926 241.418L583.702 248.471C590.832 244.654 598.56 240.518 607.14 235.857L603.322 228.827ZM579.915 241.424L579.913 241.425L583.711 248.466L583.713 248.465L579.915 241.424ZM579.925 241.419C573.878 244.655 568.239 247.674 562.859 250.595L566.676 257.625C572.032 254.718 577.648 251.711 583.7 248.472L579.925 241.419ZM561.429 256.313C568.133 266.475 574.398 276.788 579.888 286.854L586.912 283.023C581.299 272.734 574.915 262.229 568.107 251.908L561.429 256.313Z" fill="black"/>
<path fill-rule="evenodd" clip-rule="evenodd" d="M574.964 550.477C578.329 548.729 581.494 546.388 584.113 544.451C584.735 543.991 585.325 543.554 585.881 543.153L617.227 522.384C624.631 517.038 624.849 516.856 625.099 516.766C625.352 516.676 625.638 516.679 633.33 511.596C640.023 507.11 641.757 505.704 647.223 501.27C647.657 500.918 648.115 500.547 648.601 500.154C655.501 496 660.477 488.554 654.61 481.942C650.686 477.495 642.959 477.959 637.501 478.501C624.051 480.137 618.563 482.924 606.708 488.942L606.45 489.073C603.365 491.136 601.002 492.688 599.034 493.981C591.452 498.961 589.763 500.07 575.424 511.596C574.72 512.243 574.021 512.879 573.33 513.509C564.345 521.694 556.645 528.709 555.791 540.737C555.79 540.744 555.79 540.752 555.789 540.759L574.964 550.477Z" fill="#693903"/>
<path d="M574.964 550.477L573.156 554.045L574.986 554.972L576.807 554.027L574.964 550.477ZM584.113 544.451L586.492 547.667L586.492 547.667L584.113 544.451ZM585.881 543.153L583.671 539.819L583.605 539.863L583.54 539.91L585.881 543.153ZM617.227 522.384L619.436 525.718L619.503 525.674L619.568 525.627L617.227 522.384ZM625.099 516.766L623.752 513L623.752 513L625.099 516.766ZM633.33 511.596L635.535 514.933L635.546 514.926L635.557 514.919L633.33 511.596ZM647.223 501.27L644.703 498.164L644.703 498.164L647.223 501.27ZM648.601 500.154L646.538 496.727L646.299 496.87L646.083 497.045L648.601 500.154ZM654.61 481.942L651.611 484.589L651.618 484.597L654.61 481.942ZM637.501 478.501L637.106 474.52L637.062 474.525L637.018 474.53L637.501 478.501ZM606.708 488.942L608.518 492.509L608.518 492.509L606.708 488.942ZM606.45 489.073L604.639 485.507L604.425 485.615L604.226 485.748L606.45 489.073ZM599.034 493.981L601.23 497.324L601.23 497.324L599.034 493.981ZM575.424 511.596L572.918 508.479L572.815 508.561L572.718 508.65L575.424 511.596ZM573.33 513.509L570.636 510.552L570.636 510.552L573.33 513.509ZM555.791 540.737L559.778 541.059L559.779 541.04L559.781 541.02L555.791 540.737ZM555.789 540.759L551.802 540.441L551.589 543.115L553.981 544.327L555.789 540.759ZM576.807 554.027C580.499 552.11 583.912 549.575 586.492 547.667L581.734 541.235C579.076 543.201 576.16 545.349 573.121 546.927L576.807 554.027ZM586.492 547.667C587.118 547.204 587.689 546.782 588.222 546.397L583.54 539.91C582.962 540.327 582.351 540.779 581.734 541.235L586.492 547.667ZM588.09 546.488L619.436 525.718L615.017 519.05L583.671 539.819L588.09 546.488ZM619.568 525.627C623.283 522.945 625.172 521.575 626.176 520.855C626.693 520.485 626.913 520.332 627.009 520.268C627.074 520.225 626.826 520.397 626.447 520.533L623.752 513C623.248 513.18 622.878 513.409 622.6 513.593C622.354 513.755 622.01 513.998 621.515 514.353C620.497 515.083 618.575 516.477 614.885 519.141L619.568 525.627ZM626.447 520.533C626.282 520.592 626.566 520.492 626.674 520.449C626.857 520.377 627.032 520.297 627.208 520.208C627.533 520.045 627.94 519.813 628.5 519.473C629.635 518.785 631.684 517.478 635.535 514.933L631.125 508.259C627.284 510.797 625.344 512.031 624.35 512.634C623.845 512.94 623.652 513.042 623.612 513.062C623.606 513.065 623.657 513.039 623.746 513.004C623.76 512.999 623.98 512.918 623.752 513L626.447 520.533ZM635.557 514.919C642.383 510.344 644.218 508.858 649.743 504.377L644.703 498.164C639.295 502.55 637.662 503.877 631.103 508.274L635.557 514.919ZM649.743 504.377C650.177 504.025 650.634 503.654 651.118 503.262L646.083 497.045C645.596 497.44 645.138 497.812 644.703 498.164L649.743 504.377ZM650.663 503.581C654.553 501.24 658.258 497.777 660.07 493.544C660.998 491.376 661.45 488.948 661.074 486.407C660.695 483.852 659.519 481.447 657.602 479.287L651.618 484.597C652.636 485.743 653.037 486.748 653.16 487.579C653.285 488.424 653.161 489.356 652.716 490.395C651.782 492.576 649.549 494.914 646.538 496.727L650.663 503.581ZM657.609 479.295C654.712 476.013 650.652 474.804 647.107 474.379C643.531 473.951 639.854 474.248 637.106 474.52L637.896 482.481C640.606 482.212 643.521 482.007 646.154 482.322C648.818 482.642 650.584 483.424 651.612 484.589L657.609 479.295ZM637.018 474.53C622.859 476.253 616.866 479.299 604.897 485.376L608.518 492.509C620.26 486.548 625.243 484.022 637.984 482.471L637.018 474.53ZM604.897 485.376L604.639 485.507L608.26 492.64L608.518 492.509L604.897 485.376ZM604.226 485.748C601.156 487.801 598.804 489.346 596.838 490.637L601.23 497.324C603.199 496.031 605.574 494.471 608.673 492.398L604.226 485.748ZM596.838 490.637C589.116 495.709 587.321 496.901 572.918 508.479L577.93 514.714C592.206 503.239 593.788 502.212 601.23 497.324L596.838 490.637ZM572.718 508.65C572.021 509.29 571.328 509.922 570.636 510.552L576.023 516.466C576.714 515.837 577.419 515.195 578.129 514.542L572.718 508.65ZM570.636 510.552C561.847 518.559 552.785 526.595 551.801 540.453L559.781 541.02C560.505 530.823 566.844 524.829 576.023 516.466L570.636 510.552ZM551.804 540.414C551.803 540.423 551.802 540.432 551.802 540.441L559.776 541.077C559.777 541.071 559.777 541.065 559.778 541.059L551.804 540.414ZM553.981 544.327L573.156 554.045L576.772 546.909L557.597 537.191L553.981 544.327Z" fill="black"/>
<path fill-rule="evenodd" clip-rule="evenodd" d="M513.375 427.803C502.159 433.424 492.086 438.765 480.983 445.194C464.46 454.768 447.99 464.425 431.574 474.165L466.728 493.909C483.203 484.23 499.729 474.633 516.286 465.088C518.494 463.817 520.748 462.519 523.039 461.201L523.281 461.061L523.543 460.91L523.575 460.892L523.622 460.865C532.242 455.902 541.356 450.656 550.412 445.457L513.375 427.803ZM382.006 503.928C389.747 499.224 397.5 494.54 405.266 489.873L442.947 507.965C418.163 522.707 393.523 537.669 369.107 552.956C353.414 562.785 343.83 568.493 336.421 572.906C321.314 581.904 315.247 585.517 284.869 607.698C276.61 613.691 268.434 619.762 260.339 625.91C240.674 640.809 221.411 656.179 202.551 672.019C201.67 672.754 200.7 673.55 199.654 674.396C175.969 685.124 154.78 694.805 141.277 700.99C140.881 700.422 140.559 699.672 140.307 698.66C139.898 696.791 139.898 694.864 140.307 692.995C141.86 684.798 147.073 677.645 152.571 671.149C173.581 646.348 201.566 625.792 228.483 606.022L228.485 606.02C233.754 602.15 238.982 598.31 244.108 594.474C253.022 587.831 257.537 584.398 260.169 582.397L260.169 582.397C262.187 580.862 263.098 580.17 264.036 579.516C264.809 578.979 265.6 578.468 267.042 577.536C269.639 575.858 274.349 572.815 284.868 565.793C316.852 544.463 349.231 523.841 382.006 503.928ZM582.932 426.734C590.657 421.78 600.911 413.035 591.694 402.159C587.606 400.226 582.741 401.057 578.326 402.159C568.203 404.563 558.376 407.682 548.783 411.328L582.932 426.734Z" fill="#693903"/>
<path d="M480.983 445.194L478.979 441.733L478.978 441.733L480.983 445.194ZM513.375 427.803L515.096 424.192L513.331 423.351L511.583 424.227L513.375 427.803ZM431.574 474.165L429.533 470.725L423.575 474.26L429.616 477.653L431.574 474.165ZM466.728 493.909L464.77 497.397L466.773 498.522L468.755 497.358L466.728 493.909ZM516.286 465.088L514.291 461.621L514.288 461.622L516.286 465.088ZM523.039 461.201L521.043 457.734L521.043 457.734L523.039 461.201ZM523.281 461.061L525.276 464.528L525.276 464.528L523.281 461.061ZM523.543 460.91L521.548 457.443L521.548 457.443L523.543 460.91ZM523.575 460.892L525.57 464.359L525.571 464.358L523.575 460.892ZM523.622 460.865L521.626 457.398L521.626 457.398L523.622 460.865ZM550.412 445.457L552.403 448.926L559.019 445.128L552.133 441.846L550.412 445.457ZM405.266 489.873L406.997 486.268L405.054 485.334L403.206 486.445L405.266 489.873ZM382.006 503.928L384.083 507.346L384.083 507.346L382.006 503.928ZM442.947 507.965L444.992 511.403L451.405 507.588L444.679 504.359L442.947 507.965ZM369.107 552.956L366.984 549.566L366.984 549.566L369.107 552.956ZM336.421 572.906L334.374 569.47L334.374 569.47L336.421 572.906ZM284.869 607.698L287.218 610.935L287.227 610.928L284.869 607.698ZM260.339 625.91L262.754 629.098L262.758 629.095L260.339 625.91ZM202.551 672.019L205.114 675.09L205.123 675.082L202.551 672.019ZM199.654 674.396L201.304 678.04L201.77 677.829L202.168 677.507L199.654 674.396ZM141.277 700.99L137.997 703.279L139.908 706.017L142.943 704.627L141.277 700.99ZM140.307 698.66L136.399 699.515L136.411 699.571L136.425 699.627L140.307 698.66ZM140.307 692.995L144.214 693.85L144.226 693.795L144.237 693.74L140.307 692.995ZM152.571 671.149L149.519 668.563L149.518 668.564L152.571 671.149ZM228.483 606.022L230.85 609.246L230.862 609.237L230.873 609.229L228.483 606.022ZM228.485 606.02L226.117 602.796L226.106 602.804L226.094 602.813L228.485 606.02ZM244.108 594.474L241.718 591.267L241.712 591.271L244.108 594.474ZM260.169 582.397L262.59 585.581L262.629 585.551L262.667 585.52L260.169 582.397ZM260.169 582.397L257.748 579.212L257.709 579.242L257.67 579.273L260.169 582.397ZM264.036 579.516L261.751 576.234L261.751 576.234L264.036 579.516ZM267.042 577.536L269.212 580.896L269.212 580.896L267.042 577.536ZM284.868 565.793L282.648 562.465L282.647 562.466L284.868 565.793ZM591.694 402.159L594.746 399.573L594.187 398.913L593.404 398.543L591.694 402.159ZM582.932 426.734L581.287 430.381L583.265 431.273L585.092 430.101L582.932 426.734ZM578.326 402.159L579.25 406.051L579.272 406.045L579.294 406.04L578.326 402.159ZM548.783 411.328L547.362 407.589L538.355 411.012L547.138 414.974L548.783 411.328ZM482.988 448.656C494.006 442.275 504.007 436.973 515.167 431.379L511.583 424.227C500.312 429.876 490.165 435.255 478.979 441.733L482.988 448.656ZM433.616 477.605C450.019 467.872 466.477 458.222 482.989 448.655L478.978 441.733C462.443 451.314 445.961 460.978 429.533 470.725L433.616 477.605ZM468.687 490.421L433.533 470.678L429.616 477.653L464.77 497.397L468.687 490.421ZM514.288 461.622C497.724 471.172 481.188 480.774 464.702 490.46L468.755 497.358C485.217 487.685 501.734 478.094 518.284 468.553L514.288 461.622ZM521.043 457.734C518.753 459.052 516.499 460.35 514.291 461.621L518.281 468.555C520.49 467.284 522.744 465.986 525.034 464.667L521.043 457.734ZM521.285 457.595L521.043 457.734L525.034 464.667L525.276 464.528L521.285 457.595ZM521.548 457.443L521.285 457.595L525.276 464.528L525.539 464.377L521.548 457.443ZM521.58 457.425L521.548 457.443L525.539 464.377L525.57 464.359L521.58 457.425ZM521.626 457.398L521.579 457.425L525.571 464.358L525.618 464.331L521.626 457.398ZM548.42 441.988C539.362 447.188 530.246 452.436 521.626 457.398L525.618 464.331C534.238 459.368 543.35 454.123 552.403 448.926L548.42 441.988ZM511.654 431.414L548.691 449.068L552.133 441.846L515.096 424.192L511.654 431.414ZM403.206 486.445C395.435 491.114 387.676 495.802 379.929 500.509L384.083 507.346C391.818 502.646 399.566 497.965 407.326 493.302L403.206 486.445ZM444.679 504.359L406.997 486.268L403.535 493.479L441.216 511.571L444.679 504.359ZM371.23 556.346C395.615 541.078 420.228 526.132 444.992 511.403L440.903 504.527C416.097 519.281 391.431 534.259 366.984 549.566L371.23 556.346ZM338.467 576.343C345.888 571.923 355.501 566.198 371.23 556.346L366.984 549.566C351.327 559.373 341.772 565.063 334.374 569.47L338.467 576.343ZM287.227 610.928C317.523 588.808 323.485 585.266 338.467 576.343L334.374 569.47C319.142 578.541 312.971 582.226 282.51 604.467L287.227 610.928ZM262.758 629.095C270.83 622.965 278.983 616.912 287.218 610.935L282.519 604.461C274.237 610.471 266.038 616.559 257.92 622.724L262.758 629.095ZM205.123 675.082C223.933 659.285 243.143 643.957 262.754 629.098L257.923 622.721C238.205 637.661 218.89 653.073 199.978 668.956L205.123 675.082ZM202.168 677.507C203.228 676.65 204.215 675.84 205.114 675.09L199.988 668.948C199.125 669.668 198.171 670.451 197.139 671.285L202.168 677.507ZM198.003 670.752C174.312 681.484 153.117 691.167 139.611 697.353L142.943 704.627C156.442 698.443 177.626 688.765 201.304 678.04L198.003 670.752ZM136.425 699.627C136.754 700.945 137.237 702.19 137.997 703.279L144.557 698.701C144.525 698.654 144.364 698.399 144.188 697.692L136.425 699.627ZM136.399 692.14C135.867 694.572 135.867 697.083 136.399 699.515L144.214 697.805C143.929 696.5 143.929 695.155 144.214 693.85L136.399 692.14ZM149.518 668.564C143.985 675.102 138.14 682.945 136.377 692.25L144.237 693.74C145.58 686.651 150.161 680.188 155.624 673.733L149.518 668.564ZM226.115 602.798C199.279 622.509 170.888 643.338 149.519 668.563L155.624 673.734C176.274 649.357 203.854 629.075 230.85 609.246L226.115 602.798ZM226.094 602.813L226.092 602.815L230.873 609.229L230.876 609.227L226.094 602.813ZM241.712 591.271C236.602 595.095 231.389 598.924 226.117 602.796L230.853 609.244C236.119 605.376 241.362 601.525 246.505 597.677L241.712 591.271ZM257.748 579.213C255.123 581.208 250.619 584.633 241.718 591.267L246.499 597.681C255.425 591.028 259.951 587.588 262.59 585.581L257.748 579.213ZM257.67 579.273L257.67 579.273L262.667 585.52L262.668 585.52L257.67 579.273ZM261.751 576.234C260.727 576.946 259.739 577.699 257.748 579.212L262.59 585.581C264.635 584.026 265.468 583.393 266.322 582.799L261.751 576.234ZM264.871 574.176C263.449 575.095 262.592 575.648 261.751 576.234L266.322 582.799C267.025 582.31 267.75 581.84 269.212 580.896L264.871 574.176ZM282.647 562.466C272.147 569.476 267.454 572.508 264.871 574.176L269.212 580.896C271.824 579.208 276.551 576.154 287.088 569.12L282.647 562.466ZM379.929 500.509C347.106 520.451 314.679 541.104 282.648 562.465L287.087 569.121C319.024 547.821 351.356 527.23 384.083 507.346L379.929 500.509ZM588.643 404.745C590.532 406.974 591.189 408.805 591.316 410.242C591.443 411.683 591.073 413.142 590.193 414.685C588.329 417.95 584.56 420.938 580.773 423.368L585.092 430.101C589.03 427.576 594.25 423.714 597.141 418.65C598.637 416.028 599.586 412.951 599.285 409.539C598.983 406.123 597.465 402.782 594.746 399.573L588.643 404.745ZM579.294 406.04C583.762 404.925 587.318 404.514 589.984 405.775L593.404 398.543C587.894 395.937 581.72 397.189 577.357 398.278L579.294 406.04ZM550.204 415.067C559.657 411.475 569.318 408.41 579.25 406.051L577.401 398.267C567.088 400.717 557.094 403.89 547.362 407.589L550.204 415.067ZM584.577 423.088L550.428 407.682L547.138 414.974L581.287 430.381L584.577 423.088Z" fill="black"/>
<path fill-rule="evenodd" clip-rule="evenodd" d="M670.34 587.846C670.828 586.093 671.503 583.67 671.998 582.5C672.115 582.226 672.272 581.794 672.47 581.249C673.357 578.812 675.064 574.121 677.588 571.214C679.276 569.27 680.756 567.551 682.084 566.009C691.902 554.606 693.393 552.875 708.824 541.431C715.737 536.282 721.559 531.951 726.634 528.216L763.006 545.003C760.606 546.49 759.35 547.443 756.2 549.835C753.205 552.109 748.497 555.684 739.466 562.253C726.215 571.887 723.081 574.511 715.047 581.234C712.522 583.348 709.512 585.866 705.552 589.135C698.389 595.023 697.586 595.499 692.228 598.682C691.287 599.241 690.205 599.884 688.924 600.654C681 605.415 673.532 608.754 669.975 598.16C668.968 594.516 668.716 592.708 669.976 589.135C670.077 588.789 670.201 588.345 670.34 587.846ZM793.165 527.319C823.597 509.753 854.863 493.51 886.864 478.639C888.478 477.889 889.437 477.488 891.582 476.591C894.267 475.468 898.811 473.569 908.827 469.233C910.492 468.694 911.911 467.633 912.851 466.227C913.792 464.821 914.197 463.153 913.999 461.5C913.876 460.684 913.576 459.901 913.119 459.199C912.662 458.498 912.057 457.892 911.342 457.421C906.518 453.69 899.499 452.666 893.578 453.226C878.194 454.679 852.262 467.491 821.566 482.656C804.218 491.228 785.348 500.551 766 509C765.625 511.251 765.355 512.78 765.152 513.82L793.165 527.319Z" fill="#693903"/>
<path d="M671.998 582.5L668.315 580.94L668.315 580.94L671.998 582.5ZM670.34 587.846L666.486 586.772L666.486 586.772L670.34 587.846ZM672.47 581.249L676.229 582.617L676.229 582.617L672.47 581.249ZM677.588 571.214L674.568 568.591L674.568 568.591L677.588 571.214ZM682.084 566.009L679.053 563.399L679.053 563.399L682.084 566.009ZM708.824 541.431L711.207 544.644L711.213 544.639L708.824 541.431ZM726.634 528.216L728.31 524.584L726.166 523.594L724.263 524.994L726.634 528.216ZM763.006 545.003L765.113 548.403L771.433 544.487L764.682 541.371L763.006 545.003ZM756.2 549.835L758.619 553.021L758.619 553.021L756.2 549.835ZM739.466 562.253L741.818 565.488L741.818 565.488L739.466 562.253ZM715.047 581.234L712.48 578.167L712.48 578.167L715.047 581.234ZM705.552 589.135L708.092 592.226L708.099 592.22L705.552 589.135ZM692.228 598.682L690.185 595.243L690.185 595.243L692.228 598.682ZM688.924 600.654L690.984 604.082L690.984 604.082L688.924 600.654ZM669.975 598.16L666.119 599.225L666.148 599.33L666.183 599.433L669.975 598.16ZM669.976 589.135L673.749 590.466L673.786 590.358L673.818 590.249L669.976 589.135ZM793.165 527.319L791.429 530.923L793.334 531.84L795.165 530.783L793.165 527.319ZM886.864 478.639L885.178 475.011L885.178 475.011L886.864 478.639ZM891.582 476.591L893.125 480.281L893.125 480.281L891.582 476.591ZM908.827 469.233L907.593 465.428L907.413 465.487L907.239 465.562L908.827 469.233ZM913.999 461.5L917.971 461.026L917.963 460.963L917.954 460.901L913.999 461.5ZM911.342 457.421L908.895 460.585L909.014 460.677L909.14 460.76L911.342 457.421ZM893.578 453.226L893.202 449.243L893.202 449.243L893.578 453.226ZM821.566 482.656L823.338 486.243L823.338 486.243L821.566 482.656ZM766 509L764.399 505.334L762.411 506.203L762.054 508.342L766 509ZM765.152 513.82L761.226 513.051L760.632 516.082L763.415 517.423L765.152 513.82ZM668.315 580.94C667.692 582.412 666.935 585.16 666.486 586.772L674.193 588.919C674.72 587.026 675.314 584.929 675.682 584.06L668.315 580.94ZM668.711 579.881C668.495 580.476 668.381 580.785 668.315 580.94L675.682 584.06C675.849 583.666 676.049 583.111 676.229 582.617L668.711 579.881ZM674.568 568.591C671.467 572.163 669.536 577.615 668.711 579.881L676.229 582.617C677.178 580.009 678.661 576.08 680.609 573.836L674.568 568.591ZM679.053 563.399C677.725 564.941 676.249 566.654 674.568 568.591L680.609 573.836C682.302 571.885 683.787 570.161 685.115 568.619L679.053 563.399ZM706.441 538.218C698.734 543.934 694.335 547.349 690.622 550.809C686.901 554.277 683.926 557.739 679.053 563.399L685.115 568.619C690.06 562.876 692.739 559.772 696.076 556.662C699.421 553.545 703.483 550.373 711.207 544.644L706.441 538.218ZM724.263 524.994C719.178 528.737 713.347 533.074 706.434 538.224L711.213 544.639C718.128 539.489 723.941 535.165 729.005 531.438L724.263 524.994ZM724.958 531.848L761.33 548.635L764.682 541.371L728.31 524.584L724.958 531.848ZM758.619 553.021C761.774 550.625 762.893 549.779 765.113 548.403L760.899 541.603C758.319 543.201 756.926 544.262 753.782 546.649L758.619 553.021ZM741.818 565.488C750.879 558.897 755.61 555.306 758.619 553.021L753.782 546.649C750.8 548.913 746.116 552.47 737.113 559.018L741.818 565.488ZM717.614 584.301C725.587 577.629 728.65 575.063 741.818 565.488L737.113 559.018C723.78 568.712 720.574 571.393 712.48 578.167L717.614 584.301ZM708.099 592.22C712.07 588.942 715.088 586.416 717.614 584.301L712.48 578.167C709.955 580.279 706.955 582.791 703.006 586.051L708.099 592.22ZM694.27 602.121C699.826 598.821 700.794 598.223 708.092 592.226L703.013 586.045C695.983 591.822 695.346 592.177 690.185 595.243L694.27 602.121ZM690.984 604.082C692.256 603.318 693.329 602.68 694.27 602.121L690.185 595.243C689.244 595.802 688.154 596.449 686.864 597.225L690.984 604.082ZM666.183 599.433C667.212 602.498 668.674 605.024 670.762 606.763C672.941 608.577 675.452 609.243 677.94 609.163C680.311 609.087 682.632 608.341 684.722 607.428C686.835 606.505 688.966 605.295 690.984 604.082L686.864 597.225C684.92 598.393 683.145 599.387 681.519 600.097C679.869 600.818 678.614 601.138 677.684 601.167C676.869 601.193 676.35 601.005 675.881 600.615C675.321 600.149 674.516 599.119 673.767 596.887L666.183 599.433ZM666.204 587.805C665.469 589.888 665.081 591.731 665.127 593.713C665.17 595.605 665.611 597.385 666.119 599.225L673.83 597.095C673.332 595.29 673.143 594.345 673.125 593.528C673.108 592.803 673.223 591.955 673.749 590.466L666.204 587.805ZM666.486 586.772C666.345 587.279 666.228 587.7 666.135 588.021L673.818 590.249C673.926 589.878 674.056 589.411 674.193 588.919L666.486 586.772ZM795.165 530.783C825.494 513.277 856.655 497.088 888.55 482.266L885.178 475.011C853.07 489.932 821.7 506.23 791.166 523.855L795.165 530.783ZM888.55 482.266C890.085 481.553 890.979 481.179 893.125 480.281L890.039 472.9C887.896 473.797 886.871 474.224 885.178 475.011L888.55 482.266ZM893.125 480.281C895.823 479.153 900.383 477.247 910.416 472.904L907.239 465.562C897.24 469.89 892.711 471.783 890.039 472.9L893.125 480.281ZM910.061 473.038C912.549 472.232 914.718 470.631 916.176 468.451L909.526 464.003C909.104 464.635 908.434 465.156 907.593 465.428L910.061 473.038ZM916.176 468.451C917.638 466.265 918.284 463.643 917.971 461.026L910.027 461.975C910.11 462.664 909.946 463.377 909.526 464.003L916.176 468.451ZM917.954 460.901C917.743 459.511 917.235 458.189 916.47 457.016L909.767 461.383C909.917 461.613 910.008 461.857 910.044 462.099L917.954 460.901ZM916.47 457.016C915.706 455.843 914.707 454.848 913.544 454.081L909.14 460.76C909.407 460.936 909.617 461.152 909.767 461.383L916.47 457.016ZM913.789 454.257C907.856 449.668 899.669 448.632 893.202 449.243L893.954 457.208C899.33 456.7 905.179 457.711 908.895 460.585L913.789 454.257ZM893.202 449.243C884.825 450.035 873.987 453.839 861.73 459.126C849.372 464.456 835.114 471.502 819.795 479.07L823.338 486.243C838.715 478.645 852.77 471.702 864.898 466.472C877.127 461.197 886.947 457.87 893.954 457.208L893.202 449.243ZM819.795 479.07C802.434 487.647 783.647 496.929 764.399 505.334L767.601 512.666C787.049 504.173 806.002 494.808 823.338 486.243L819.795 479.07ZM762.054 508.342C761.68 510.587 761.418 512.07 761.226 513.051L769.077 514.589C769.292 513.491 769.569 511.915 769.946 509.658L762.054 508.342ZM794.902 523.716L766.888 510.216L763.415 517.423L791.429 530.923L794.902 523.716Z" fill="black"/>
<path fill-rule="evenodd" clip-rule="evenodd" d="M736.544 658.585C733.851 660.568 730.83 662.757 727.35 665.228C701.458 683.517 675.947 702.206 650.817 721.294C625.102 740.82 601.042 761.236 576.656 781.98C552.984 802.087 540.07 814.832 523.595 840.719C521.285 844.334 519.057 848.645 520.59 852.608C522.409 857.306 528.95 859.008 533.999 857.5C543.508 854.575 552.759 845.933 560.834 838.39C563.434 835.96 565.913 833.645 568.239 831.671C576.365 824.75 580.923 821.142 586.283 816.901C589.786 814.128 593.631 811.085 599.039 806.669C623.569 786.614 648.46 766.978 673.712 747.761C687.339 737.373 701.076 727.12 714.922 717.002C723.473 710.766 731.245 705.059 738.541 699.702C750.166 691.165 760.58 683.517 771.013 676.034C761.38 671.242 749.334 665.157 736.544 658.585ZM798.819 656.585C787.021 651.406 774.265 645.808 761.064 640.023C765.725 636.62 771.278 632.75 779.096 627.605C789.963 620.385 801.278 614.003 812.595 607.619C816.945 605.165 821.296 602.711 825.621 600.21C834.448 595.11 834.937 594.973 841.575 593.107C842.977 592.713 844.652 592.242 846.738 591.632C851.479 590.169 855.119 589.498 860 589.499C860.288 589.499 860.607 589.494 860.945 589.489C863.544 589.446 867.364 589.384 868.349 591.516C872.5 600.499 860.475 614.541 855.119 618.601L854.65 618.96C844.165 626.971 844.155 626.978 832.632 634.313C819.93 642.442 808.948 649.695 798.819 656.585Z" fill="#693903"/>
<path d="M736.544 658.585L738.372 655.027L736.168 653.895L734.172 655.364L736.544 658.585ZM727.35 665.228L729.658 668.496L729.666 668.49L727.35 665.228ZM650.817 721.294L653.236 724.48L653.237 724.479L650.817 721.294ZM576.656 781.98L579.245 785.029L579.247 785.027L576.656 781.98ZM523.595 840.719L526.965 842.873L526.969 842.867L523.595 840.719ZM520.59 852.608L516.859 854.052L516.86 854.053L520.59 852.608ZM533.999 857.5L535.144 861.332L535.16 861.328L535.175 861.323L533.999 857.5ZM560.834 838.39L563.564 841.313L563.564 841.313L560.834 838.39ZM568.239 831.671L570.827 834.721L570.832 834.716L568.239 831.671ZM586.283 816.901L583.801 813.764L583.801 813.764L586.283 816.901ZM599.039 806.669L601.569 809.767L601.571 809.765L599.039 806.669ZM673.712 747.761L676.134 750.944L676.137 750.942L673.712 747.761ZM714.922 717.002L712.565 713.77L712.562 713.772L714.922 717.002ZM738.541 699.702L736.173 696.478L736.173 696.478L738.541 699.702ZM771.013 676.034L773.344 679.284L778.743 675.412L772.795 672.453L771.013 676.034ZM798.819 656.585L797.212 660.247L799.239 661.137L801.069 659.892L798.819 656.585ZM761.064 640.023L758.705 636.792L753.086 640.894L759.458 643.686L761.064 640.023ZM779.096 627.605L781.295 630.946L781.302 630.941L781.31 630.936L779.096 627.605ZM812.595 607.619L814.56 611.103L814.56 611.103L812.595 607.619ZM825.621 600.21L823.62 596.746L823.618 596.747L825.621 600.21ZM841.575 593.107L842.657 596.958L842.657 596.958L841.575 593.107ZM846.738 591.632L847.862 595.47L847.89 595.462L847.917 595.454L846.738 591.632ZM860 589.499L860.001 585.499L860 589.499ZM860.945 589.489L861.011 593.488L861.011 593.488L860.945 589.489ZM868.349 591.516L871.981 589.838L871.981 589.838L868.349 591.516ZM855.119 618.601L852.703 615.413L852.697 615.418L852.691 615.423L855.119 618.601ZM854.65 618.96L852.221 615.781L852.221 615.781L854.65 618.96ZM832.632 634.313L830.484 630.939L830.476 630.944L832.632 634.313ZM734.172 655.364C731.499 657.333 728.496 659.508 725.034 661.967L729.666 668.49C733.165 666.005 736.204 663.803 738.916 661.806L734.172 655.364ZM725.042 661.961C699.112 680.277 673.564 698.993 648.398 718.109L653.237 724.479C678.329 705.419 703.803 686.758 729.658 668.496L725.042 661.961ZM648.398 718.108C622.582 737.712 598.441 758.197 574.064 778.934L579.247 785.027C603.643 764.275 627.622 743.929 653.236 724.48L648.398 718.108ZM574.066 778.932C550.218 799.188 536.986 812.229 520.22 838.571L526.969 842.867C543.155 817.436 555.751 804.985 579.245 785.029L574.066 778.932ZM520.224 838.565C519.024 840.443 517.661 842.775 516.845 845.304C516.016 847.869 515.654 850.937 516.859 854.052L524.32 851.165C523.992 850.317 523.978 849.247 524.457 847.763C524.949 846.241 525.855 844.61 526.965 842.873L520.224 838.565ZM516.86 854.053C518.323 857.832 521.565 860.101 524.828 861.179C528.095 862.259 531.83 862.322 535.144 861.332L532.855 853.667C531.12 854.185 529.06 854.152 527.338 853.583C525.614 853.013 524.675 852.082 524.32 851.164L516.86 854.053ZM535.175 861.323C540.588 859.658 545.719 856.442 550.393 852.847C555.082 849.241 559.552 845.061 563.564 841.313L558.103 835.467C554.04 839.262 549.849 843.174 545.516 846.506C541.168 849.849 536.919 852.417 532.823 853.676L535.175 861.323ZM563.564 841.313C566.183 838.867 568.588 836.621 570.827 834.721L565.651 828.621C563.238 830.669 560.686 833.054 558.103 835.467L563.564 841.313ZM570.832 834.716C578.905 827.84 583.42 824.267 588.765 820.037L583.801 813.764C578.426 818.018 573.825 821.659 565.645 828.626L570.832 834.716ZM588.765 820.037C592.271 817.263 596.136 814.204 601.569 809.767L596.509 803.571C591.126 807.967 587.3 810.994 583.801 813.764L588.765 820.037ZM601.571 809.765C626.064 789.74 650.919 770.133 676.134 750.944L671.289 744.578C646 763.823 621.073 783.488 596.507 803.572L601.571 809.765ZM676.137 750.942C689.743 740.57 703.458 730.333 717.282 720.232L712.562 713.772C698.694 723.906 684.936 734.175 671.287 744.58L676.137 750.942ZM717.278 720.234C725.836 713.994 733.613 708.283 740.908 702.926L736.173 696.478C728.877 701.835 721.111 707.539 712.565 713.77L717.278 720.234ZM740.908 702.926C752.537 694.387 762.933 686.752 773.344 679.284L768.682 672.784C758.228 680.282 747.794 687.944 736.173 696.478L740.908 702.926ZM734.716 662.143C747.52 668.723 759.581 674.815 769.231 679.615L772.795 672.453C763.178 667.669 751.147 661.592 738.372 655.027L734.716 662.143ZM800.427 652.922C788.628 647.743 775.871 642.145 762.669 636.359L759.458 643.686C772.658 649.471 785.413 655.069 797.212 660.247L800.427 652.922ZM776.897 624.264C769.034 629.439 763.427 633.345 758.705 636.792L763.422 643.254C768.023 639.895 773.522 636.062 781.295 630.946L776.897 624.264ZM810.629 604.135C799.334 610.507 787.891 616.959 776.883 624.273L781.31 630.936C792.035 623.811 803.223 617.498 814.56 611.103L810.629 604.135ZM823.618 596.747C819.315 599.236 814.983 601.68 810.629 604.135L814.56 611.103C818.907 608.651 823.276 606.187 827.624 603.672L823.618 596.747ZM840.493 589.256C837.232 590.173 835.167 590.745 832.807 591.785C830.511 592.796 827.98 594.227 823.62 596.746L827.622 603.673C832.088 601.093 834.215 599.906 836.031 599.106C837.781 598.336 839.28 597.907 842.657 596.958L840.493 589.256ZM845.614 587.793C843.551 588.397 841.894 588.863 840.493 589.256L842.657 596.958C844.06 596.564 845.754 596.088 847.862 595.47L845.614 587.793ZM860.001 585.499C854.644 585.498 850.602 586.254 845.559 587.809L847.917 595.454C852.356 594.084 855.594 593.498 859.999 593.499L860.001 585.499ZM860.88 585.489C860.533 585.495 860.25 585.499 860.001 585.499L859.999 593.499C860.327 593.499 860.68 593.493 861.011 593.488L860.88 585.489ZM871.981 589.838C870.604 586.86 867.58 586.033 865.943 585.747C864.097 585.424 862.099 585.469 860.88 585.489L861.011 593.488C862.391 593.465 863.602 593.459 864.563 593.627C864.778 593.665 864.942 593.705 865.061 593.743C865.181 593.78 865.229 593.806 865.225 593.805C865.203 593.792 864.915 593.619 864.718 593.194L871.981 589.838ZM857.535 621.789C860.635 619.439 865.309 614.533 868.708 608.998C870.42 606.21 871.92 603.084 872.678 599.891C873.437 596.693 873.511 593.151 871.981 589.838L864.718 593.194C865.263 594.373 865.39 595.955 864.895 598.043C864.398 600.136 863.335 602.459 861.89 604.811C858.976 609.558 854.958 613.703 852.703 615.413L857.535 621.789ZM857.078 622.138L857.548 621.779L852.691 615.423L852.221 615.781L857.078 622.138ZM834.78 637.688C846.396 630.293 846.5 630.221 857.078 622.138L852.221 615.781C841.83 623.721 841.914 623.663 830.484 630.939L834.78 637.688ZM801.069 659.892C811.165 653.025 822.116 645.792 834.788 637.682L830.476 630.944C817.745 639.091 806.732 646.365 796.57 653.277L801.069 659.892Z" fill="black"/>
<path fill-rule="evenodd" clip-rule="evenodd" d="M126.786 572.942C145.613 546.939 188.293 520.977 220.999 514.5C223.105 514.075 225.251 513.727 227.397 513.456C230.862 512.838 234.419 512.838 237.884 513.456C249.484 516.078 247.655 522.66 241.762 528.183L124.89 575.603C125.514 574.707 126.149 573.82 126.786 572.942ZM117.965 601.109C119.426 605.6 122.554 609.59 127.399 611.26C136.052 614.233 139.396 610.021 143.468 604.893C144.109 604.085 144.769 603.254 145.47 602.425C153.434 593.041 163.026 584.359 173.047 576.223L117.965 601.109Z" fill="#693903"/>
<path d="M220.999 514.5L221.776 518.424L221.784 518.422L221.791 518.421L220.999 514.5ZM126.786 572.942L130.024 575.291L130.026 575.288L126.786 572.942ZM227.397 513.456L227.898 517.425L227.999 517.412L228.1 517.394L227.397 513.456ZM237.884 513.456L238.766 509.555L238.677 509.534L238.587 509.518L237.884 513.456ZM241.762 528.183L243.266 531.889L243.955 531.61L244.497 531.101L241.762 528.183ZM124.89 575.603L121.606 573.319L113.917 584.373L126.394 579.31L124.89 575.603ZM117.965 601.109L116.318 597.464L113.052 598.939L114.161 602.347L117.965 601.109ZM127.399 611.26L126.096 615.042L126.1 615.043L127.399 611.26ZM143.468 604.893L146.6 607.38L146.6 607.38L143.468 604.893ZM145.47 602.425L142.42 599.836L142.416 599.842L145.47 602.425ZM173.047 576.223L175.569 579.329L171.401 572.578L173.047 576.223ZM220.222 510.576C203.277 513.932 183.983 522.269 166.588 532.994C149.209 543.71 133.369 557.029 123.546 570.596L130.026 575.288C139.03 562.852 153.944 550.189 170.787 539.803C187.616 529.427 206.015 521.545 221.776 518.424L220.222 510.576ZM226.897 509.487C224.658 509.77 222.414 510.133 220.207 510.579L221.791 518.421C223.795 518.016 225.844 517.684 227.898 517.425L226.897 509.487ZM238.587 509.518C234.657 508.817 230.624 508.817 226.694 509.518L228.1 517.394C231.1 516.858 234.181 516.858 237.181 517.394L238.587 509.518ZM244.497 531.101C246.161 529.542 247.672 527.788 248.747 525.904C249.811 524.039 250.598 521.78 250.364 519.349C249.843 513.921 244.927 510.947 238.766 509.555L237.002 517.358C239.587 517.942 241.017 518.665 241.745 519.235C242.375 519.729 242.392 520.021 242.401 520.115C242.423 520.347 242.373 520.933 241.799 521.938C241.237 522.923 240.309 524.062 239.027 525.264L244.497 531.101ZM126.394 579.31L243.266 531.889L240.258 524.476L123.386 571.897L126.394 579.31ZM123.548 570.593C122.903 571.483 122.251 572.393 121.606 573.319L128.174 577.888C128.777 577.021 129.395 576.157 130.024 575.291L123.548 570.593ZM114.161 602.347C115.913 607.73 119.795 612.87 126.096 615.042L128.703 607.478C125.313 606.31 122.939 603.469 121.768 599.871L114.161 602.347ZM126.1 615.043C131.207 616.798 135.42 616.613 139.066 614.626C142.344 612.84 144.699 609.775 146.6 607.38L140.335 602.406C138.165 605.139 136.813 606.743 135.237 607.602C134.03 608.26 132.245 608.695 128.699 607.477L126.1 615.043ZM146.6 607.38C147.247 606.565 147.869 605.782 148.524 605.008L142.416 599.842C141.668 600.726 140.971 601.604 140.335 602.406L146.6 607.38ZM148.519 605.013C156.26 595.893 165.643 587.386 175.569 579.329L170.526 573.118C160.409 581.331 150.608 590.189 142.42 599.836L148.519 605.013ZM171.401 572.578L116.318 597.464L119.612 604.754L174.694 579.869L171.401 572.578Z" fill="black"/>
<path fill-rule="evenodd" clip-rule="evenodd" d="M484.209 190.795C441.722 207.036 397.705 232.17 370.477 264.16L367.341 267.551C363.58 272.036 360.002 276.946 359.164 282.592C358.326 288.237 360.697 294.733 366.217 297.053C371.204 299.141 377.091 297.304 381.691 294.54C389.715 289.702 397.992 282.948 405.971 276.437C410.493 272.747 414.919 269.136 419.148 265.996C439.523 250.612 460.795 236.322 482.864 223.193C488.536 219.882 495.88 215.057 503.208 209.818C496.773 202.877 490.39 196.479 484.209 190.795ZM520.616 196.411C523.188 194.24 525.506 192.159 527.444 190.25C529.165 188.901 530.306 187.003 530.653 184.914C530.533 183.469 529.893 182.105 528.841 181.051C527.789 179.996 526.387 179.313 524.868 179.114C521.785 178.785 518.663 179.17 515.772 180.236C512.944 181.046 510.086 181.903 507.204 182.805C511.487 186.673 515.995 191.258 520.616 196.411Z" fill="#693903"/>
<path d="M484.209 190.795L486.916 187.851L485.094 186.175L482.781 187.059L484.209 190.795ZM370.477 264.16L373.414 266.875L373.469 266.815L373.523 266.752L370.477 264.16ZM367.341 267.551L364.404 264.835L364.338 264.906L364.276 264.98L367.341 267.551ZM359.164 282.592L355.208 282.004L359.164 282.592ZM366.217 297.053L364.667 300.74L364.672 300.743L366.217 297.053ZM381.691 294.54L383.752 297.968L383.756 297.965L381.691 294.54ZM405.971 276.437L403.442 273.338L403.442 273.338L405.971 276.437ZM419.148 265.996L421.532 269.208L421.545 269.198L421.558 269.188L419.148 265.996ZM482.864 223.193L480.847 219.739L480.833 219.747L480.819 219.755L482.864 223.193ZM503.208 209.818L505.534 213.072L509.229 210.431L506.141 207.099L503.208 209.818ZM520.616 196.411L517.638 199.081L520.23 201.971L523.196 199.467L520.616 196.411ZM527.444 190.25L524.976 187.102L524.798 187.242L524.637 187.4L527.444 190.25ZM530.653 184.914L534.599 185.569L534.681 185.078L534.639 184.581L530.653 184.914ZM528.841 181.051L531.673 178.226L531.673 178.226L528.841 181.051ZM524.868 179.114L525.386 175.148L525.34 175.142L525.293 175.137L524.868 179.114ZM515.772 180.236L516.874 184.081L517.017 184.04L517.156 183.989L515.772 180.236ZM507.204 182.805L506.01 178.987L499.325 181.079L504.523 185.773L507.204 182.805ZM482.781 187.059C439.994 203.415 395.275 228.854 367.431 261.567L373.523 266.752C400.135 235.487 443.45 210.658 485.637 194.532L482.781 187.059ZM367.54 261.444L364.404 264.835L370.278 270.266L373.414 266.875L367.54 261.444ZM364.276 264.98C360.506 269.476 356.226 275.145 355.208 282.004L363.121 283.179C363.779 278.748 366.653 274.596 370.406 270.121L364.276 264.98ZM355.208 282.004C354.196 288.821 356.935 297.49 364.667 300.74L367.767 293.365C364.46 291.975 362.457 287.653 363.121 283.179L355.208 282.004ZM364.672 300.743C371.451 303.581 378.801 300.944 383.752 297.968L379.63 291.111C375.382 293.664 370.957 294.701 367.761 293.363L364.672 300.743ZM383.756 297.965C392.071 292.953 400.578 286.001 408.5 279.536L403.442 273.338C395.407 279.895 387.359 286.452 379.626 291.114L383.756 297.965ZM408.5 279.536C413.038 275.833 417.39 272.283 421.532 269.208L416.764 262.785C412.447 265.989 407.948 269.662 403.442 273.338L408.5 279.536ZM421.558 269.188C441.815 253.893 462.966 239.685 484.909 226.631L480.819 219.755C458.625 232.959 437.23 247.331 416.738 262.804L421.558 269.188ZM484.881 226.648C490.688 223.257 498.139 218.359 505.534 213.072L500.881 206.564C493.621 211.755 486.383 216.507 480.847 219.739L484.881 226.648ZM506.141 207.099C499.644 200.091 493.186 193.616 486.916 187.851L481.501 193.74C487.593 199.342 493.901 205.663 500.274 212.538L506.141 207.099ZM523.196 199.467C525.82 197.252 528.219 195.101 530.251 193.1L524.637 187.4C522.793 189.216 520.556 191.227 518.036 193.354L523.196 199.467ZM529.912 193.398C532.392 191.454 534.083 188.68 534.599 185.569L526.707 184.259C526.53 185.326 525.939 186.347 524.976 187.102L529.912 193.398ZM534.639 184.581C534.438 182.168 533.372 179.929 531.673 178.226L526.009 183.875C526.414 184.281 526.627 184.77 526.667 185.247L534.639 184.581ZM531.673 178.226C529.978 176.526 527.755 175.457 525.386 175.148L524.351 183.081C525.02 183.168 525.6 183.465 526.009 183.875L531.673 178.226ZM525.293 175.137C521.602 174.743 517.861 175.202 514.388 176.483L517.156 183.989C519.465 183.137 521.968 182.827 524.444 183.092L525.293 175.137ZM514.67 176.391C511.81 177.21 508.922 178.076 506.01 178.987L508.399 186.622C511.25 185.73 514.077 184.883 516.874 184.081L514.67 176.391ZM504.523 185.773C508.681 189.528 513.089 194.009 517.638 199.081L523.594 193.74C518.901 188.507 514.294 183.818 509.885 179.836L504.523 185.773Z" fill="black"/>
</svg>
