<svg width="1000" height="1000" viewBox="0 0 1000 1000" fill="none" xmlns="http://www.w3.org/2000/svg">
<path d="M118.465 578.466L118.805 579.827C119.07 580.883 120.213 581.465 121.212 581.033L242.562 528.632C243.372 528.283 243.857 527.448 243.758 526.572C238.238 477.806 235.428 422.718 240.289 392.03C248.093 342.767 266.011 317.47 298.152 300.45C327.835 284.751 362.699 284.27 390.208 306.457C392.352 308.194 394.334 310.146 396.126 312.284C408.913 327.571 413.221 338.321 414.624 353.024C414.693 353.745 415.137 354.379 415.796 354.679L586.364 432.168C587.744 432.795 589.306 431.717 589.283 430.202C589.21 425.487 589.612 420.499 590.068 414.834L590.068 414.832C590.378 410.992 590.712 406.841 590.941 402.253C591.308 394.888 591.556 387.423 591.798 380.132L591.798 380.13C592.195 368.161 592.577 356.662 593.445 346.857C593.478 346.48 593.415 346.122 593.242 345.786C574.378 309.13 517.27 223.081 479.53 182.835C479.367 182.661 479.179 182.524 478.965 182.418C476.172 181.026 473.424 179.49 470.677 177.955L470.676 177.954C467.28 176.057 463.885 174.16 460.408 172.535C448.988 167.194 437.201 162.782 425.147 159.339C401.19 152.538 376.434 149.422 351.639 150.088C301.568 151.558 252.803 167.333 210.501 195.743C180.182 216.177 154.062 242.873 133.703 274.238C117.901 297.843 106.634 324.506 100.541 352.713C96.1849 372.798 93.365 393.222 92.1087 413.787C90.3126 443.743 111.261 549.29 118.465 578.466Z" fill="#A74600"/>
<path d="M601.31 461.439C601.125 461.233 600.901 461.066 600.651 460.95L418.618 376.684C417.236 376.044 415.68 377.121 415.824 378.637C416.558 386.391 417.906 394.589 419.256 402.803C421.367 415.644 423.485 428.527 423.278 439.818C423.117 448.579 419.889 455.88 414.94 462.346C414.165 463.359 414.455 464.842 415.584 465.435L522.092 521.42C522.576 521.674 523.133 521.715 523.661 521.575C535.284 518.483 564.593 526.189 590.132 532.902C607.393 537.44 622.932 541.525 630.122 541.517C630.37 541.517 630.62 541.517 630.869 541.517C637.745 541.522 644.83 541.526 651.051 538.453C657.498 535.27 672.671 527.72 670.837 520.432C668.947 512.762 660.788 496.048 648.729 490.012C642.537 485.88 635.874 482.69 629.326 479.557C618.907 474.57 608.781 469.723 601.31 461.439Z" fill="#A74600"/>
<path d="M497.043 534.676C498.519 533.979 498.531 531.906 497.08 531.158L397.948 480.036C397.258 479.68 396.423 479.757 395.806 480.23C393.849 481.73 391.866 483.216 389.884 484.701C381.652 490.867 373.456 497.007 367.35 504.076C364.892 506.919 362.302 510.083 361.848 513.848C361.738 516.131 362.206 518.404 363.203 520.432C364.2 522.459 365.69 524.168 367.52 525.382C371.179 527.787 375.222 529.463 379.45 530.327L455.228 537.396C455.371 537.409 455.513 537.438 455.651 537.482C461.572 539.354 467.686 540.461 473.859 540.78C481.996 540.827 489.596 538.188 497.043 534.676Z" fill="#A74600"/>
<path d="M242.971 556.64C243.036 555.167 241.548 554.117 240.188 554.685L127.014 601.945C125.952 602.388 125.475 603.639 126.056 604.632C128.337 608.531 131.551 611.697 136.369 613.488C139.472 614.646 142.668 615.241 145.861 615.836C149.848 616.578 153.83 617.32 157.62 619.155C163.512 621.991 168.645 626.194 173.778 630.396L173.779 630.397C175.894 632.128 178.008 633.859 180.176 635.495C194.789 646.547 211.667 653.773 229.427 656.58C229.758 656.631 230.096 656.583 230.401 656.446C236.34 653.796 242.414 651.082 248.413 648.397C248.881 648.188 249.25 647.808 249.444 647.334C252.264 640.427 254.301 634.224 252.356 627.635C249.688 618.962 248.539 611.249 247.343 603.212C246.572 598.037 245.782 592.727 244.553 586.939C242.637 577.995 242.507 567.231 242.971 556.64Z" fill="#A74600"/>
<path d="M620.22 296.511C620.112 296.546 620.004 296.592 619.904 296.645C611.686 301.023 605.464 308.317 601.082 316.731C600.275 318.279 597.963 318.288 597.222 316.708C580.464 280.972 541.252 225.032 511.397 189.611C510.439 188.475 511.008 186.722 512.417 186.251C517.318 184.611 522.095 182.08 527.567 179.181C528.125 178.885 528.691 178.585 529.266 178.282C543.816 170.557 559.054 164.38 574.755 159.84C606.899 150.582 640.423 147.951 673.504 152.09C762.194 163.024 842.793 219.151 885.654 302.632C899.777 330.126 905.392 358.32 907.037 388.977C908.266 413.486 908.928 438.196 905.147 462.526C902.907 477.172 891.662 534.384 878.739 567.985C878.327 569.056 877.098 569.533 876.057 569.05L754.67 512.787C753.887 512.424 753.426 511.597 753.524 510.74C760.454 450.297 764.99 394.847 751.232 368.652C724.408 316.876 680.965 276.822 620.22 296.511Z" fill="#A74600"/>
<path d="M753.296 534.091C752.084 533.54 750.681 534.303 750.464 535.616C748.924 544.916 746.01 557.794 743.226 570.097C740.749 581.048 738.374 591.543 737.163 598.655C735.74 607.032 751.156 616.365 763.507 623.842C767.569 626.301 771.3 628.559 773.991 630.517C778.075 633.481 783.596 633.301 788.247 631.498C792.785 629.397 797.059 626.706 800.971 623.489C810.755 616.336 821.318 610.46 832.431 605.988C835.371 604.799 838.355 603.705 841.338 602.61L841.341 602.609C849.466 599.628 857.591 596.647 864.837 591.77C865.874 591.072 866.916 590.084 867.96 588.84C868.767 587.879 868.373 586.44 867.231 585.921L753.296 534.091Z" fill="#A74600"/>
<path d="M118.465 578.466L118.805 579.827C119.07 580.883 120.213 581.465 121.212 581.033L242.562 528.632C243.372 528.283 243.857 527.448 243.758 526.572C238.238 477.806 235.428 422.718 240.289 392.03C248.093 342.767 266.011 317.47 298.152 300.45C327.835 284.751 362.699 284.27 390.208 306.457C392.352 308.194 394.334 310.146 396.126 312.284C408.913 327.571 413.221 338.321 414.624 353.024C414.693 353.745 415.137 354.379 415.796 354.679L586.364 432.168C587.744 432.795 589.306 431.717 589.283 430.202C589.21 425.487 589.612 420.499 590.068 414.834L590.068 414.832C590.378 410.992 590.712 406.841 590.941 402.253C591.308 394.888 591.556 387.423 591.798 380.132L591.798 380.13C592.195 368.161 592.577 356.662 593.445 346.857C593.478 346.48 593.415 346.122 593.242 345.786C574.378 309.13 517.27 223.081 479.53 182.835C479.367 182.661 479.179 182.524 478.965 182.418C476.172 181.026 473.424 179.49 470.677 177.955L470.676 177.954C467.28 176.057 463.885 174.16 460.408 172.535C448.988 167.194 437.201 162.782 425.147 159.339C401.19 152.538 376.434 149.422 351.639 150.088C301.568 151.558 252.803 167.333 210.501 195.743C180.182 216.177 154.062 242.873 133.703 274.238C117.901 297.843 106.634 324.506 100.541 352.713C96.1849 372.798 93.365 393.222 92.1087 413.787C90.3126 443.743 111.261 549.29 118.465 578.466Z" stroke="black" stroke-width="8"/>
<path d="M601.31 461.439C601.125 461.233 600.901 461.066 600.651 460.95L418.618 376.684C417.236 376.044 415.68 377.121 415.824 378.637C416.558 386.391 417.906 394.589 419.256 402.803C421.367 415.644 423.485 428.527 423.278 439.818C423.117 448.579 419.889 455.88 414.94 462.346C414.165 463.359 414.455 464.842 415.584 465.435L522.092 521.42C522.576 521.674 523.133 521.715 523.661 521.575C535.284 518.483 564.593 526.189 590.132 532.902C607.393 537.44 622.932 541.525 630.122 541.517C630.37 541.517 630.62 541.517 630.869 541.517C637.745 541.522 644.83 541.526 651.051 538.453C657.498 535.27 672.671 527.72 670.837 520.432C668.947 512.762 660.788 496.048 648.729 490.012C642.537 485.88 635.874 482.69 629.326 479.557C618.907 474.57 608.781 469.723 601.31 461.439Z" stroke="black" stroke-width="8"/>
<path d="M497.043 534.676C498.519 533.979 498.531 531.906 497.08 531.158L397.948 480.036C397.258 479.68 396.423 479.757 395.806 480.23C393.849 481.73 391.866 483.216 389.884 484.701C381.652 490.867 373.456 497.007 367.35 504.076C364.892 506.919 362.302 510.083 361.848 513.848C361.738 516.131 362.206 518.404 363.203 520.432C364.2 522.459 365.69 524.168 367.52 525.382C371.179 527.787 375.222 529.463 379.45 530.327L455.228 537.396C455.371 537.409 455.513 537.438 455.651 537.482C461.572 539.354 467.686 540.461 473.859 540.78C481.996 540.827 489.596 538.188 497.043 534.676Z" stroke="black" stroke-width="8"/>
<path d="M242.971 556.64C243.036 555.167 241.548 554.117 240.188 554.685L127.014 601.945C125.952 602.388 125.475 603.639 126.056 604.632C128.337 608.531 131.551 611.697 136.369 613.488C139.472 614.646 142.668 615.241 145.861 615.836C149.848 616.578 153.83 617.32 157.62 619.155C163.512 621.991 168.645 626.194 173.778 630.396L173.779 630.397C175.894 632.128 178.008 633.859 180.176 635.495C194.789 646.547 211.667 653.773 229.427 656.58C229.758 656.631 230.096 656.583 230.401 656.446C236.34 653.796 242.414 651.082 248.413 648.397C248.881 648.188 249.25 647.808 249.444 647.334C252.264 640.427 254.301 634.224 252.356 627.635C249.688 618.962 248.539 611.249 247.343 603.212C246.572 598.037 245.782 592.727 244.553 586.939C242.637 577.995 242.507 567.231 242.971 556.64Z" stroke="black" stroke-width="8"/>
<path d="M620.22 296.511C620.112 296.546 620.004 296.592 619.904 296.645C611.686 301.023 605.464 308.317 601.082 316.731C600.275 318.279 597.963 318.288 597.222 316.708C580.464 280.972 541.252 225.032 511.397 189.611C510.439 188.475 511.008 186.722 512.417 186.251C517.318 184.611 522.095 182.08 527.567 179.181C528.125 178.885 528.691 178.585 529.266 178.282C543.816 170.557 559.054 164.38 574.755 159.84C606.899 150.582 640.423 147.951 673.504 152.09C762.194 163.024 842.793 219.151 885.654 302.632C899.777 330.126 905.392 358.32 907.037 388.977C908.266 413.486 908.928 438.196 905.147 462.526C902.907 477.172 891.662 534.384 878.739 567.985C878.327 569.056 877.098 569.533 876.057 569.05L754.67 512.787C753.887 512.424 753.426 511.597 753.524 510.74C760.454 450.297 764.99 394.847 751.232 368.652C724.408 316.876 680.965 276.822 620.22 296.511Z" stroke="black" stroke-width="8"/>
<path d="M753.296 534.091C752.084 533.54 750.681 534.303 750.464 535.616C748.924 544.916 746.01 557.794 743.226 570.097C740.749 581.048 738.374 591.543 737.163 598.655C735.74 607.032 751.156 616.365 763.507 623.842C767.569 626.301 771.3 628.559 773.991 630.517C778.075 633.481 783.596 633.301 788.247 631.498C792.785 629.397 797.059 626.706 800.971 623.489C810.755 616.336 821.318 610.46 832.431 605.988C835.371 604.799 838.355 603.705 841.338 602.61L841.341 602.609C849.466 599.628 857.591 596.647 864.837 591.77C865.874 591.072 866.916 590.084 867.96 588.84C868.767 587.879 868.373 586.44 867.231 585.921L753.296 534.091Z" stroke="black" stroke-width="8"/>
</svg>
