<svg width="1000" height="1000" viewBox="0 0 1000 1000" fill="none" xmlns="http://www.w3.org/2000/svg">
<path d="M622.641 466.331C622.641 462.53 621.048 458.885 618.212 456.198C615.377 453.51 611.531 452 607.521 452C603.562 452.203 599.796 453.684 596.85 456.198L536.429 502.413C533.595 505.101 532.002 508.745 532 512.546C532 516.344 533.59 519.986 536.422 522.673C539.253 525.36 543.094 526.872 547.1 526.877C551.066 526.678 554.839 525.196 557.791 522.679L618.212 476.428C621.04 473.751 622.632 470.12 622.641 466.331Z" fill="#00FF2A" stroke="black" stroke-width="8"/>
<path d="M150.999 410.51L153.527 333.95C153.498 329.998 151.959 326.215 149.242 323.418C146.524 320.621 142.846 319.034 139 319C135.181 319.077 131.538 320.671 128.837 323.448C126.135 326.224 124.585 329.968 124.51 333.894L122 410.51C122.043 414.45 123.586 418.215 126.298 421C129.01 423.784 132.676 425.365 136.509 425.404C140.33 425.332 143.975 423.739 146.677 420.962C149.379 418.184 150.929 414.438 150.999 410.51Z" fill="#00FF2A" stroke="black" stroke-width="8"/>
<path d="M156.693 502.757L229.56 481.576C237.007 479.422 242.313 470.824 239.855 463.027C238.757 459.206 236.252 455.97 232.869 454.004C229.486 452.037 225.49 451.492 221.722 452.485L148.892 473.646C141.446 475.8 136.14 484.417 138.616 492.214C139.71 496.026 142.206 499.254 145.577 501.221C148.949 503.187 152.933 503.737 156.693 502.757Z" fill="#FFE500" stroke="black" stroke-width="8"/>
<path d="M595.883 165.762C591.58 165.831 587.475 167.365 584.43 170.041C581.385 172.716 579.636 176.326 579.552 180.112C578.603 204.687 577.661 229.275 576.727 253.875C576.775 257.671 578.512 261.299 581.565 263.981C584.618 266.664 588.744 268.187 593.058 268.225C597.361 268.155 601.467 266.622 604.512 263.946C607.557 261.27 609.306 257.661 609.39 253.875C610.311 229.275 611.246 204.687 612.195 180.112C612.146 176.319 610.412 172.694 607.364 170.012C604.315 167.33 600.194 165.804 595.883 165.762Z" fill="#FFE500" stroke="black" stroke-width="8"/>
<path d="M796.046 550.552C791.979 549.146 787.597 549.183 783.82 550.656C780.043 552.128 777.166 554.922 775.792 558.451C766.495 581.22 757.2 604.003 747.908 626.799C746.656 630.383 747.047 634.386 748.998 637.951C750.95 641.516 754.306 644.359 758.347 645.87C762.415 647.276 766.797 647.239 770.574 645.766C774.35 644.293 777.228 641.499 778.602 637.971C787.881 615.17 797.169 592.384 806.466 569.615C807.718 566.035 807.328 562.035 805.381 558.472C803.434 554.909 800.083 552.066 796.046 550.552Z" fill="#FFE500" stroke="black" stroke-width="8"/>
<path d="M413.441 317.387L474.92 275.265C478.143 273.306 480.532 270.274 481.645 266.728C482.659 263.012 482.128 259.055 480.167 255.72C476.177 249.656 466.847 245.992 460.16 250.594L398.68 292.788C395.492 294.739 393.126 297.743 392.011 301.253C390.997 304.969 391.528 308.926 393.489 312.261C397.424 318.325 406.79 321.989 413.441 317.387Z" fill="#3FE8FF" stroke="black" stroke-width="8"/>
<path d="M823.26 355.97C825.363 359.266 828.633 361.591 832.376 362.452C834.237 362.878 836.162 362.922 838.039 362.581C839.917 362.241 841.71 361.522 843.316 360.466C846.42 358.193 848.656 354.882 849.643 351.1L871.96 278.435C872.784 274.573 872.089 270.533 870.027 267.195C869.006 265.552 867.68 264.133 866.125 263.017C864.57 261.901 862.816 261.111 860.964 260.692C859.112 260.273 857.197 260.233 855.33 260.574C853.462 260.915 851.678 261.631 850.08 262.68C846.976 264.948 844.743 268.262 843.772 272.047C836.321 296.262 828.876 320.484 821.437 344.712C820.575 348.565 821.231 352.611 823.26 355.97Z" fill="#3FE8FF" stroke="black" stroke-width="8"/>
<path d="M189.87 358.867C193.834 358.654 197.606 357.095 200.558 354.449L260.966 305.795C263.787 302.957 265.378 299.127 265.394 295.131C265.357 291.138 263.77 287.316 260.966 284.467C258.122 281.652 254.284 280.066 250.278 280.049C246.314 280.261 242.543 281.82 239.59 284.467L179.182 333.121C176.361 335.958 174.771 339.788 174.754 343.785C174.791 347.777 176.378 351.6 179.182 354.449C182.026 357.263 185.865 358.85 189.87 358.867Z" fill="#FF00D6" stroke="black" stroke-width="8"/>
<path d="M690.689 296.32C693.412 299.113 697.037 300.917 700.96 301.431L777.186 315.467C779.158 315.625 781.142 315.404 783.025 314.816C784.909 314.228 786.654 313.285 788.163 312.042C791.186 309.505 793.079 305.927 793.441 302.061C793.748 298.185 792.475 294.348 789.897 291.376C787.176 288.578 783.551 286.768 779.625 286.247L703.4 272.211C699.411 271.913 695.462 273.15 692.404 275.655C689.38 278.192 687.488 281.77 687.125 285.636C686.824 289.514 688.104 293.351 690.689 296.32Z" fill="#FF00D6" stroke="black" stroke-width="8"/>
<path d="M587.358 382.296C590.334 375.448 587.723 366.491 579.852 363.541L507.422 336.329C500.07 333.557 490.452 336.025 487.284 343.337C484.309 350.185 486.92 359.125 494.81 362.093L567.221 389.287C574.592 392.058 584.191 389.591 587.358 382.296Z" fill="#FF003D" stroke="black" stroke-width="8"/>
<path d="M352.604 262.206C359.089 257.973 362.397 248.768 357.912 241.737L316.663 177.153C312.458 170.576 303.338 167.268 296.422 171.785C289.918 176.019 286.61 185.224 291.115 192.255C304.82 213.776 318.57 235.304 332.363 256.839C336.549 263.397 345.689 266.724 352.604 262.206Z" fill="#FF00D6" stroke="black" stroke-width="8"/>
<path d="M686.113 216.505L758.936 195.349C766.381 193.196 771.703 184.581 769.228 176.786C768.13 172.965 765.626 169.731 762.244 167.765C758.863 165.798 754.867 165.254 751.101 166.246L678.278 187.421C670.834 189.574 665.53 198.17 667.987 205.965C669.081 209.788 671.584 213.026 674.967 214.993C678.35 216.96 682.347 217.502 686.113 216.505Z" fill="#FF003D" stroke="black" stroke-width="8"/>
<path d="M167.789 582.596L222.522 635.085C228.109 640.455 238.231 640.757 243.745 634.716C246.504 631.855 248.053 628.069 248.065 624.157C248.077 620.246 246.551 616.513 243.809 613.748L189.06 561.269C183.472 555.899 173.376 555.603 167.854 561.628C165.09 564.487 163.538 568.274 163.526 572.187C163.514 576.1 165.043 579.833 167.789 582.596Z" fill="#FF003D" stroke="black" stroke-width="8"/>
<path d="M390.908 191.562L463.603 216.534C471.027 219.092 480.284 213.635 482.003 206.056C482.961 202.226 482.41 198.172 480.465 194.738C478.519 191.305 475.328 188.756 471.556 187.621L398.861 162.631C391.456 160.092 382.18 165.548 380.461 173.108C379.502 176.941 380.052 180.998 381.998 184.434C383.943 187.871 387.134 190.424 390.908 191.562Z" fill="#FF9737" stroke="black" stroke-width="8"/>
<path d="M834.508 488.915C838.253 488.878 841.838 487.275 844.51 484.446C847.15 481.575 848.639 477.7 848.654 473.657C848.471 469.653 847.007 465.84 844.51 462.869L797.909 402.744C795.247 399.897 791.655 398.291 787.906 398.274C784.161 398.312 780.576 399.914 777.903 402.744C775.27 405.618 773.788 409.492 773.777 413.532C773.942 417.538 775.402 421.354 777.903 424.32C793.443 444.356 808.977 464.397 824.505 484.446C827.167 487.293 830.759 488.898 834.508 488.915Z" fill="#FF9737" stroke="black" stroke-width="8"/>
<path d="M499.387 466.743C501.553 463.48 502.334 459.521 501.567 455.705C500.8 451.888 498.544 448.513 495.276 446.291L430.678 404.606C424.111 400.367 414.024 401.799 409.741 408.622C407.576 411.886 406.794 415.844 407.561 419.661C408.328 423.477 410.584 426.853 413.852 429.074L478.451 470.759C485.074 474.999 495.162 473.567 499.387 466.743Z" fill="#7400C6" stroke="black" stroke-width="8"/>
<path d="M158.023 255.959L230.846 236.413C238.291 234.425 243.613 226.491 241.138 219.295C240.044 215.766 237.541 212.778 234.158 210.962C230.775 209.146 226.778 208.646 223.011 209.566L150.188 229.094C142.744 231.082 137.44 239.034 139.897 246.23C140.995 249.756 143.499 252.742 146.88 254.557C150.262 256.372 154.257 256.875 158.023 255.959Z" fill="#7400C6" stroke="black" stroke-width="8"/>
</svg>
