<svg width="1000" height="1000" viewBox="0 0 1000 1000" fill="none" xmlns="http://www.w3.org/2000/svg">
<path fill-rule="evenodd" clip-rule="evenodd" d="M118.465 578.466L118.805 579.827C118.973 580.496 119.134 581.176 119.291 581.863L243.926 528.043C238.296 478.918 235.379 423.027 240.289 392.03C248.093 342.767 266.011 317.47 298.152 300.45C327.835 284.751 362.699 284.27 390.208 306.457C392.352 308.194 394.334 310.146 396.126 312.284C409.25 327.973 413.442 338.884 414.729 354.194L589.423 433.558C589.02 427.845 589.502 421.86 590.068 414.834L590.068 414.832C590.378 410.992 590.712 406.841 590.941 402.253C591.308 394.888 591.556 387.423 591.798 380.132L591.798 380.13C592.203 367.926 592.591 356.211 593.496 346.281C574.857 309.833 517.196 222.894 479.289 182.578C476.385 181.144 473.53 179.549 470.677 177.955L470.676 177.954C467.28 176.057 463.885 174.16 460.408 172.535C448.988 167.194 437.201 162.782 425.147 159.339C401.19 152.538 376.434 149.422 351.639 150.088C301.568 151.558 252.803 167.333 210.501 195.743C180.182 216.177 154.062 242.873 133.703 274.238C117.901 297.843 106.634 324.506 100.541 352.713C96.1849 372.798 93.365 393.222 92.1087 413.787C90.3126 443.743 111.261 549.29 118.465 578.466ZM601.031 461.126L415.542 375.26C416.163 383.99 417.708 393.386 419.256 402.803L419.256 402.804C421.367 415.645 423.485 428.527 423.278 439.818C423.1 449.464 419.205 457.34 413.389 464.281L522.849 521.818C533.863 518.11 563.976 526.026 590.132 532.902C607.393 537.44 622.932 541.525 630.122 541.517C630.37 541.517 630.62 541.517 630.869 541.517H630.87C637.746 541.522 644.83 541.526 651.051 538.453C657.498 535.27 672.671 527.72 670.837 520.432C668.947 512.762 660.788 496.048 648.729 490.012C642.537 485.88 635.874 482.69 629.326 479.557C618.777 474.507 608.527 469.601 601.031 461.126ZM500.562 532.953L396.816 479.452C394.533 481.218 392.207 482.96 389.884 484.701C381.652 490.867 373.456 497.007 367.35 504.076C364.892 506.919 362.302 510.083 361.848 513.848C361.738 516.131 362.206 518.404 363.203 520.432C364.2 522.459 365.69 524.168 367.52 525.382C371.179 527.787 375.222 529.463 379.45 530.327L455.444 537.416C461.43 539.328 467.614 540.458 473.859 540.78C483.281 540.835 491.984 537.288 500.562 532.953ZM243.128 553.458L125.057 602.762C127.376 607.512 130.802 611.419 136.369 613.488C139.472 614.646 142.668 615.241 145.861 615.836C149.848 616.578 153.83 617.32 157.62 619.155C163.512 621.991 168.645 626.194 173.778 630.396L173.779 630.397C175.894 632.128 178.008 633.859 180.176 635.495C194.789 646.547 211.667 653.773 229.427 656.58C229.595 656.606 229.764 656.631 229.934 656.655C236.261 653.831 242.748 650.933 249.141 648.072C252.115 640.867 254.37 634.458 252.356 627.635C249.688 618.962 248.539 611.249 247.343 603.212C246.572 598.037 245.782 592.727 244.553 586.939C242.444 577.097 242.499 565.052 243.128 553.458ZM620.055 296.565C610.438 301.632 603.538 310.683 599.111 320.868C583.245 284.651 540.572 223.77 509.316 187.158C515.35 185.654 520.951 182.687 527.567 179.181C528.125 178.885 528.691 178.585 529.266 178.282C543.816 170.557 559.054 164.38 574.755 159.84C606.899 150.582 640.423 147.951 673.504 152.09C762.194 163.024 842.793 219.151 885.654 302.632C899.777 330.126 905.392 358.32 907.037 388.977C908.266 413.486 908.928 438.196 905.147 462.526C902.863 477.46 891.216 536.651 877.975 569.939L753.359 512.179C760.381 451.178 765.099 395.054 751.232 368.652C724.384 316.83 680.887 276.75 620.055 296.565ZM750.875 532.99C749.496 542.388 746.283 556.589 743.226 570.097C740.749 581.048 738.374 591.543 737.163 598.655C735.74 607.032 751.156 616.365 763.507 623.842C767.569 626.301 771.3 628.559 773.991 630.517C778.075 633.481 783.596 633.301 788.247 631.498C792.785 629.397 797.059 626.706 800.971 623.489C810.755 616.336 821.318 610.46 832.431 605.988C835.371 604.799 838.355 603.705 841.338 602.61L841.341 602.609C849.466 599.628 857.591 596.647 864.837 591.77C866.36 590.744 867.896 589.094 869.431 586.922L750.875 532.99Z" fill="#FFEBCD"/>
<path d="M118.805 579.827L114.924 580.797L114.925 580.8L118.805 579.827ZM118.465 578.466L114.581 579.424L114.584 579.436L118.465 578.466ZM119.291 581.863L115.391 582.752L116.46 587.442L120.876 585.535L119.291 581.863ZM243.926 528.043L245.511 531.716L248.238 530.538L247.9 527.588L243.926 528.043ZM240.289 392.03L236.338 391.404L240.289 392.03ZM298.152 300.45L296.282 296.914L296.28 296.915L298.152 300.45ZM390.208 306.457L392.727 303.349L392.719 303.343L390.208 306.457ZM396.126 312.284L399.194 309.718L399.192 309.715L396.126 312.284ZM414.729 354.194L410.743 354.529L410.939 356.866L413.074 357.836L414.729 354.194ZM589.423 433.558L587.768 437.199L593.886 439.979L593.413 433.276L589.423 433.558ZM590.068 414.834L594.055 415.155L594.056 415.148L594.056 415.14L590.068 414.834ZM590.068 414.832L586.081 414.511L586.081 414.518L586.08 414.526L590.068 414.832ZM590.941 402.253L586.946 402.054L590.941 402.253ZM591.798 380.132L587.805 379.89L587.802 379.945L587.8 379.999L591.798 380.132ZM591.798 380.13L595.79 380.372L595.794 380.318L595.795 380.263L591.798 380.13ZM593.496 346.281L597.48 346.645L597.585 345.491L597.058 344.46L593.496 346.281ZM479.289 182.578L482.203 179.838L481.708 179.312L481.06 178.992L479.289 182.578ZM470.677 177.955L472.628 174.463L472.62 174.459L472.613 174.455L470.677 177.955ZM470.676 177.954L468.725 181.446L468.733 181.451L468.74 181.455L470.676 177.954ZM460.408 172.535L458.713 176.158L458.715 176.159L460.408 172.535ZM425.147 159.339L426.246 155.493L426.24 155.491L425.147 159.339ZM351.639 150.088L351.531 146.089L351.521 146.09L351.639 150.088ZM210.501 195.743L208.271 192.423L208.266 192.426L210.501 195.743ZM133.703 274.238L137.027 276.463L137.043 276.44L137.058 276.416L133.703 274.238ZM100.541 352.713L104.45 353.561L104.451 353.557L100.541 352.713ZM92.1087 413.787L88.1162 413.543L88.1159 413.547L92.1087 413.787ZM601.031 461.126L604.027 458.476L603.472 457.848L602.711 457.496L601.031 461.126ZM415.542 375.26L417.223 371.63L411.071 368.782L411.552 375.544L415.542 375.26ZM419.256 402.803L423.221 402.274L423.213 402.214L423.203 402.154L419.256 402.803ZM419.256 402.804L415.291 403.332L415.299 403.393L415.309 403.453L419.256 402.804ZM423.278 439.818L427.277 439.892V439.892L423.278 439.818ZM413.389 464.281L410.323 461.712L407.137 465.514L411.528 467.822L413.389 464.281ZM522.849 521.818L520.988 525.359L522.503 526.155L524.126 525.609L522.849 521.818ZM590.132 532.902L589.115 536.771L590.132 532.902ZM630.122 541.517V537.517H630.117L630.122 541.517ZM630.869 541.517L630.867 545.517H630.869V541.517ZM630.87 541.517L630.872 537.517H630.87V541.517ZM651.051 538.453L649.28 534.867L651.051 538.453ZM670.837 520.432L666.954 521.389L666.956 521.398L666.958 521.408L670.837 520.432ZM648.729 490.012L646.509 493.339L646.716 493.477L646.939 493.589L648.729 490.012ZM629.326 479.557L627.6 483.165L629.326 479.557ZM500.562 532.953L502.366 536.523L509.359 532.989L502.395 529.398L500.562 532.953ZM396.816 479.452L398.649 475.897L396.384 474.729L394.368 476.288L396.816 479.452ZM389.884 484.701L392.282 487.902V487.902L389.884 484.701ZM367.35 504.076L370.376 506.691L370.377 506.691L367.35 504.076ZM361.848 513.848L357.877 513.369L357.86 513.511L357.853 513.655L361.848 513.848ZM367.52 525.382L365.309 528.715L365.316 528.72L365.323 528.724L367.52 525.382ZM379.45 530.327L378.649 534.246L378.862 534.29L379.078 534.31L379.45 530.327ZM455.444 537.416L456.661 533.606L456.247 533.474L455.815 533.433L455.444 537.416ZM473.859 540.78L473.653 544.775L473.744 544.78L473.836 544.78L473.859 540.78ZM125.057 602.762L123.515 599.071L119.601 600.705L121.462 604.517L125.057 602.762ZM243.128 553.458L247.122 553.674L247.466 547.311L241.586 549.767L243.128 553.458ZM136.369 613.488L137.768 609.74L137.763 609.739L136.369 613.488ZM145.861 615.836L145.128 619.768L145.128 619.768L145.861 615.836ZM157.62 619.155L155.877 622.755L155.885 622.759L157.62 619.155ZM173.778 630.396L176.371 627.35L176.342 627.325L176.312 627.301L173.778 630.396ZM173.779 630.397L171.187 633.443L171.216 633.468L171.245 633.492L173.779 630.397ZM180.176 635.495L182.589 632.304L182.585 632.302L180.176 635.495ZM229.427 656.58L228.803 660.531L228.813 660.533L229.427 656.58ZM229.934 656.655L229.375 660.616L230.514 660.777L231.564 660.308L229.934 656.655ZM249.141 648.072L250.775 651.723L252.23 651.072L252.839 649.598L249.141 648.072ZM252.356 627.635L256.192 626.502L256.186 626.48L256.179 626.459L252.356 627.635ZM247.343 603.212L243.386 603.801L247.343 603.212ZM244.553 586.939L248.465 586.108L248.464 586.102L244.553 586.939ZM599.111 320.868L595.447 322.473L599.125 330.869L602.779 322.462L599.111 320.868ZM620.055 296.565L618.816 292.762L618.492 292.867L618.19 293.026L620.055 296.565ZM509.316 187.158L508.349 183.277L502.079 184.841L506.274 189.756L509.316 187.158ZM527.567 179.181L529.439 182.716L529.439 182.716L527.567 179.181ZM529.266 178.282L531.133 181.819L531.141 181.815L529.266 178.282ZM574.755 159.84L573.648 155.996L573.644 155.997L574.755 159.84ZM673.504 152.09L673.007 156.06L673.014 156.06L673.504 152.09ZM885.654 302.632L882.096 304.459L882.096 304.46L885.654 302.632ZM907.037 388.977L911.032 388.776L911.032 388.762L907.037 388.977ZM905.147 462.526L901.194 461.911L901.193 461.921L905.147 462.526ZM877.975 569.939L876.293 573.568L880.129 575.346L881.691 571.417L877.975 569.939ZM753.359 512.179L749.385 511.722L749.054 514.593L751.677 515.808L753.359 512.179ZM751.232 368.652L747.68 370.492L747.685 370.502L747.69 370.512L751.232 368.652ZM750.875 532.99L752.532 529.349L747.69 527.147L746.918 532.409L750.875 532.99ZM743.226 570.097L739.325 569.215L743.226 570.097ZM737.163 598.655L733.219 597.983L733.219 597.985L737.163 598.655ZM763.507 623.842L761.435 627.263L763.507 623.842ZM773.991 630.517L771.638 633.752L771.642 633.755L773.991 630.517ZM788.247 631.498L789.692 635.228L789.811 635.182L789.927 635.128L788.247 631.498ZM800.971 623.489L798.61 620.26L798.518 620.327L798.43 620.4L800.971 623.489ZM832.431 605.988L833.925 609.698L833.93 609.696L832.431 605.988ZM841.338 602.61L839.993 598.843L839.977 598.849L839.961 598.855L841.338 602.61ZM841.341 602.609L842.686 606.376L842.702 606.37L842.719 606.364L841.341 602.609ZM864.837 591.77L867.07 595.089L867.072 595.088L864.837 591.77ZM869.431 586.922L872.697 589.231L875.489 585.283L871.088 583.281L869.431 586.922ZM122.686 578.858L122.345 577.496L114.584 579.436L114.924 580.797L122.686 578.858ZM123.191 580.974C123.029 580.265 122.861 579.557 122.685 578.854L114.925 580.8C115.085 581.436 115.239 582.087 115.391 582.752L123.191 580.974ZM242.34 524.371L117.705 578.191L120.876 585.535L245.511 531.716L242.34 524.371ZM236.338 391.404C231.334 422.994 234.321 479.372 239.952 528.499L247.9 527.588C242.27 478.464 239.424 423.06 244.24 392.656L236.338 391.404ZM296.28 296.915C279.72 305.685 266.645 316.693 256.738 331.973C246.863 347.202 240.295 366.43 236.338 391.404L244.24 392.656C248.087 368.368 254.379 350.315 263.45 336.325C272.489 322.386 284.444 312.235 300.024 303.985L296.28 296.915ZM392.719 303.343C363.715 279.95 327.07 280.63 296.282 296.914L300.022 303.986C328.601 288.871 361.684 288.59 387.697 309.571L392.719 303.343ZM399.192 309.715C397.236 307.382 395.072 305.25 392.727 303.349L387.69 309.565C389.632 311.139 391.431 312.91 393.06 314.853L399.192 309.715ZM418.715 353.859C418.045 345.898 416.603 338.896 413.539 331.796C410.487 324.725 405.909 317.745 399.194 309.718L393.058 314.85C399.467 322.512 403.546 328.832 406.193 334.966C408.828 341.071 410.125 347.18 410.743 354.529L418.715 353.859ZM413.074 357.836L587.768 437.199L591.077 429.916L416.383 350.552L413.074 357.836ZM586.081 414.512C585.521 421.465 585.005 427.768 585.433 433.839L593.413 433.276C593.035 427.923 593.483 422.256 594.055 415.155L586.081 414.512ZM586.08 414.526L586.08 414.527L594.056 415.14L594.056 415.139L586.08 414.526ZM586.946 402.054C586.72 406.572 586.391 410.667 586.081 414.511L594.055 415.154C594.364 411.318 594.704 407.109 594.936 402.452L586.946 402.054ZM587.8 379.999C587.558 387.296 587.311 394.728 586.946 402.054L594.936 402.452C595.305 395.049 595.554 387.55 595.795 380.265L587.8 379.999ZM587.805 379.888L587.805 379.89L595.79 380.374L595.79 380.372L587.805 379.888ZM589.513 345.918C588.595 355.986 588.204 367.827 587.8 379.998L595.795 380.263C596.202 368.024 596.588 356.435 597.48 346.645L589.513 345.918ZM476.375 185.318C513.98 225.313 571.435 311.927 589.935 348.103L597.058 344.46C578.279 307.74 520.413 220.476 482.203 179.838L476.375 185.318ZM468.726 181.447C471.564 183.033 474.507 184.678 477.518 186.165L481.06 178.992C478.262 177.61 475.497 176.066 472.628 174.463L468.726 181.447ZM468.74 181.455L468.742 181.456L472.613 174.455L472.611 174.454L468.74 181.455ZM458.715 176.159C462.038 177.712 465.306 179.536 468.725 181.446L472.627 174.463C469.253 172.577 465.732 170.608 462.101 168.911L458.715 176.159ZM424.049 163.185C435.896 166.57 447.485 170.906 458.713 176.158L462.103 168.912C450.492 163.481 438.505 158.995 426.246 155.493L424.049 163.185ZM351.746 154.087C376.134 153.431 400.486 156.496 424.055 163.187L426.24 155.491C401.894 148.579 376.733 145.413 351.531 146.089L351.746 154.087ZM212.732 199.064C254.418 171.066 302.453 155.534 351.756 154.086L351.521 146.09C300.683 147.582 251.188 163.599 208.271 192.423L212.732 199.064ZM137.058 276.416C157.132 245.492 182.874 219.186 212.737 199.06L208.266 192.426C177.49 213.167 150.993 240.255 130.348 272.06L137.058 276.416ZM104.451 353.557C110.439 325.836 121.511 299.642 137.027 276.463L130.379 272.013C114.292 296.043 102.829 323.177 96.6312 351.868L104.451 353.557ZM96.1013 414.031C97.3452 393.668 100.137 373.446 104.45 353.561L96.6319 351.865C92.2326 372.149 89.3849 392.775 88.1162 413.543L96.1013 414.031ZM122.348 577.507C118.776 563.039 111.756 529.455 105.852 495.729C102.902 478.875 100.238 462.031 98.4252 447.556C96.6004 432.986 95.6771 421.105 96.1016 414.026L88.1159 413.547C87.6423 421.446 88.664 433.993 90.4872 448.55C92.3221 463.202 95.0092 480.185 97.9719 497.109C103.894 530.939 110.95 564.717 114.581 579.424L122.348 577.507ZM602.711 457.496L417.223 371.63L413.862 378.89L599.351 464.756L602.711 457.496ZM423.203 402.154C421.648 392.695 420.138 383.488 419.532 374.976L411.552 375.544C412.189 384.492 413.768 394.076 415.309 403.452L423.203 402.154ZM423.221 402.275L423.221 402.274L415.291 403.332L415.291 403.332L423.221 402.275ZM427.277 439.892C427.493 428.164 425.298 414.897 423.203 402.155L415.309 403.453C417.437 416.393 419.478 428.89 419.278 439.745L427.277 439.892ZM416.454 466.85C422.685 459.416 427.078 450.69 427.277 439.892L419.278 439.745C419.122 448.239 415.726 455.264 410.323 461.712L416.454 466.85ZM411.528 467.822L520.988 525.359L524.71 518.278L415.25 460.741L411.528 467.822ZM591.149 529.034C578.104 525.604 563.904 521.87 551.578 519.465C545.414 518.262 539.619 517.372 534.604 517.028C529.697 516.691 525.1 516.84 521.573 518.027L524.126 525.609C526.106 524.942 529.403 524.69 534.057 525.009C538.604 525.321 544.037 526.145 550.046 527.317C562.069 529.663 576.003 533.324 589.115 536.771L591.149 529.034ZM630.117 537.517C627.039 537.521 621.777 536.612 614.795 535.015C607.93 533.445 599.799 531.308 591.149 529.034L589.115 536.771C597.726 539.035 605.995 541.209 613.012 542.814C619.912 544.392 626.014 545.522 630.126 545.517L630.117 537.517ZM630.871 537.517C630.622 537.517 630.372 537.517 630.122 537.517V545.517C630.369 545.517 630.617 545.517 630.867 545.517L630.871 537.517ZM630.87 537.517H630.869V545.517H630.87V537.517ZM649.28 534.867C644.041 537.454 637.935 537.522 630.872 537.517L630.867 545.517C637.557 545.521 645.619 545.597 652.822 542.04L649.28 534.867ZM666.958 521.408C667.021 521.658 667.066 522.289 666.164 523.559C665.258 524.836 663.723 526.265 661.688 527.753C657.639 530.715 652.54 533.257 649.28 534.867L652.822 542.04C656.01 540.466 661.72 537.642 666.411 534.21C668.746 532.503 671.063 530.479 672.688 528.19C674.317 525.896 675.571 522.85 674.717 519.456L666.958 521.408ZM646.939 493.589C652.052 496.148 656.628 501.16 660.231 506.77C663.814 512.351 666.129 518.044 666.954 521.389L674.721 519.474C673.655 515.15 670.946 508.651 666.962 502.448C662.998 496.274 657.465 489.911 650.519 486.435L646.939 493.589ZM627.6 483.165C634.188 486.318 640.592 489.391 646.509 493.339L650.949 486.685C644.482 482.369 637.56 479.063 631.053 475.949L627.6 483.165ZM598.035 463.776C606.161 472.963 617.193 478.184 627.6 483.165L631.053 475.949C620.36 470.83 610.894 466.239 604.027 458.476L598.035 463.776ZM502.395 529.398L398.649 475.897L394.982 483.007L498.728 536.508L502.395 529.398ZM392.282 487.902C394.601 486.165 396.952 484.404 399.263 482.616L394.368 476.288C392.114 478.032 389.813 479.756 387.486 481.499L392.282 487.902ZM370.377 506.691C376.147 500.011 383.967 494.131 392.282 487.902L387.486 481.499C379.338 487.603 370.765 494.003 364.323 501.461L370.377 506.691ZM365.819 514.326C366.105 511.955 367.799 509.672 370.376 506.691L364.324 501.46C361.985 504.166 358.498 508.211 357.877 513.369L365.819 514.326ZM366.792 518.666C366.097 517.254 365.765 515.655 365.843 514.04L357.853 513.655C357.71 516.606 358.314 519.554 359.613 522.197L366.792 518.666ZM369.731 522.048C368.509 521.238 367.486 520.078 366.792 518.666L359.613 522.197C360.913 524.841 362.871 527.099 365.309 528.715L369.731 522.048ZM380.251 526.409C376.528 525.647 372.958 524.169 369.717 522.039L365.323 528.724C369.4 531.404 373.915 533.279 378.649 534.246L380.251 526.409ZM455.815 533.433L379.821 526.345L379.078 534.31L455.072 541.399L455.815 533.433ZM474.065 536.785C468.166 536.481 462.321 535.413 456.661 533.606L454.227 541.226C460.539 543.242 467.063 544.435 473.653 544.775L474.065 536.785ZM498.758 529.383C490.291 533.661 482.305 536.829 473.882 536.78L473.836 544.78C484.257 544.84 493.676 540.914 502.366 536.523L498.758 529.383ZM126.598 606.453L244.669 557.149L241.586 549.767L123.515 599.071L126.598 606.453ZM137.763 609.739C133.389 608.113 130.641 605.083 128.651 601.007L121.462 604.517C124.11 609.942 128.215 614.725 134.976 617.237L137.763 609.739ZM146.593 611.903C143.347 611.299 140.493 610.757 137.768 609.74L134.971 617.236C138.451 618.534 141.988 619.183 145.128 619.768L146.593 611.903ZM159.363 615.555C155.014 613.449 150.503 612.632 146.593 611.903L145.128 619.768C149.192 620.525 152.646 621.191 155.877 622.755L159.363 615.555ZM176.312 627.301C171.247 623.154 165.75 618.629 159.355 615.551L155.885 622.759C161.274 625.353 166.043 629.233 171.244 633.491L176.312 627.301ZM176.372 627.351L176.371 627.35L171.186 633.442L171.187 633.443L176.372 627.351ZM182.585 632.302C180.491 630.722 178.438 629.041 176.313 627.302L171.245 633.492C173.349 635.214 175.525 636.996 177.766 638.688L182.585 632.302ZM230.052 652.629C212.954 649.927 196.687 642.968 182.589 632.304L177.763 638.685C192.89 650.126 210.38 657.62 228.803 660.531L230.052 652.629ZM230.493 652.694C230.342 652.673 230.191 652.651 230.041 652.627L228.813 660.533C228.999 660.562 229.186 660.589 229.375 660.616L230.493 652.694ZM247.507 644.421C241.116 647.281 234.629 650.179 228.303 653.003L231.564 660.308C237.892 657.483 244.381 654.584 250.775 651.723L247.507 644.421ZM248.52 628.767C250.088 634.08 248.456 639.246 245.444 646.546L252.839 649.598C255.773 642.487 258.653 634.835 256.192 626.502L248.52 628.767ZM243.386 603.801C244.58 611.819 245.764 619.812 248.533 628.811L256.179 626.459C253.611 618.111 252.499 610.679 251.299 602.623L243.386 603.801ZM240.64 587.77C241.84 593.421 242.614 598.615 243.386 603.801L251.299 602.623C250.53 597.458 249.724 592.033 248.465 586.108L240.64 587.77ZM239.133 553.241C238.503 564.882 238.414 577.38 240.641 587.777L248.464 586.102C246.474 576.814 246.496 565.221 247.122 553.674L239.133 553.241ZM602.779 322.462C606.971 312.82 613.349 304.619 621.92 300.104L618.19 293.026C607.526 298.645 600.106 308.545 595.442 319.273L602.779 322.462ZM506.274 189.756C537.425 226.244 579.81 286.779 595.447 322.473L602.775 319.263C586.68 282.524 543.719 221.296 512.359 184.561L506.274 189.756ZM525.694 175.647C518.978 179.205 513.821 181.913 508.349 183.277L510.284 191.04C516.879 189.395 522.923 186.168 529.439 182.716L525.694 175.647ZM527.398 174.745C526.821 175.05 526.252 175.351 525.694 175.647L529.439 182.716C529.998 182.42 530.562 182.121 531.133 181.819L527.398 174.745ZM573.644 155.997C557.676 160.614 542.182 166.896 527.39 174.749L531.141 181.815C545.45 174.219 560.432 168.145 575.866 163.682L573.644 155.997ZM674 148.121C640.38 143.915 606.31 146.589 573.648 155.996L575.862 163.684C607.487 154.575 640.465 151.988 673.007 156.06L674 148.121ZM889.212 300.805C845.761 216.174 764.029 159.22 673.993 148.121L673.014 156.06C760.359 166.828 839.825 222.129 882.096 304.459L889.212 300.805ZM911.032 388.762C909.367 357.734 903.668 328.945 889.212 300.805L882.096 304.46C895.887 331.306 901.418 358.906 903.043 389.191L911.032 388.762ZM909.099 463.14C912.949 438.372 912.262 413.306 911.032 388.776L903.042 389.177C904.27 413.667 904.907 438.02 901.194 461.911L909.099 463.14ZM881.691 571.417C895.106 537.696 906.805 478.141 909.101 463.13L901.193 461.921C898.921 476.779 887.327 535.606 874.258 568.46L881.691 571.417ZM751.677 515.808L876.293 573.568L879.657 566.31L755.041 508.55L751.677 515.808ZM747.69 370.512C754.116 382.747 756.452 402.475 756.129 427.389C755.808 452.121 752.896 481.22 749.385 511.722L757.332 512.636C760.843 482.137 763.802 452.674 764.128 427.493C764.453 402.494 762.214 380.959 754.773 366.792L747.69 370.512ZM621.294 300.368C650.526 290.847 675.364 295.714 696.226 309.11C717.253 322.613 734.433 344.922 747.68 370.492L754.783 366.812C741.183 340.56 723.19 316.918 700.549 302.379C677.742 287.734 650.416 282.468 618.816 292.762L621.294 300.368ZM746.918 532.409C745.566 541.618 742.397 555.638 739.325 569.215L747.128 570.98C750.169 557.54 753.426 543.158 754.833 533.571L746.918 532.409ZM739.325 569.215C736.858 580.117 734.453 590.739 733.219 597.983L741.106 599.326C742.295 592.347 744.639 581.979 747.128 570.98L739.325 569.215ZM733.219 597.985C732.63 601.455 733.859 604.644 735.608 607.283C737.357 609.922 739.874 612.398 742.621 614.669C748.112 619.208 755.329 623.567 761.435 627.263L765.578 620.42C759.334 616.64 752.667 612.594 747.718 608.503C745.245 606.459 743.403 604.564 742.276 602.863C741.148 601.162 740.984 600.044 741.106 599.324L733.219 597.985ZM761.435 627.263C765.553 629.756 769.115 631.916 771.638 633.752L776.344 627.283C773.485 625.203 769.585 622.845 765.578 620.42L761.435 627.263ZM771.642 633.755C777.224 637.806 784.316 637.311 789.692 635.228L786.801 627.769C782.875 629.29 778.926 629.156 776.341 627.28L771.642 633.755ZM789.927 635.128C794.778 632.882 799.341 630.009 803.512 626.578L798.43 620.4C794.777 623.404 790.792 625.912 786.566 627.869L789.927 635.128ZM803.331 626.718C812.851 619.759 823.123 614.046 833.925 609.698L830.938 602.277C819.513 606.875 808.659 612.914 798.61 620.26L803.331 626.718ZM833.93 609.696C836.8 608.536 839.722 607.464 842.716 606.365L839.961 598.855C836.987 599.945 833.942 601.062 830.932 602.279L833.93 609.696ZM842.684 606.377L842.686 606.376L839.995 598.842L839.993 598.843L842.684 606.377ZM842.719 606.364C850.768 603.411 859.357 600.28 867.07 595.089L862.604 588.452C855.826 593.014 848.164 595.845 839.963 598.854L842.719 606.364ZM867.072 595.088C869.159 593.681 871.023 591.6 872.697 589.231L866.165 584.612C864.768 586.588 863.561 587.807 862.602 588.453L867.072 595.088ZM871.088 583.281L752.532 529.349L749.219 536.631L867.775 590.563L871.088 583.281Z" fill="black"/>
</svg>
