<svg width="1000" height="1000" viewBox="0 0 1000 1000" fill="none" xmlns="http://www.w3.org/2000/svg">
<path d="M626.641 472.331C626.641 468.53 625.048 464.885 622.212 462.198C619.377 459.51 615.531 458 611.521 458C607.562 458.203 603.796 459.684 600.85 462.198L540.429 508.413C537.595 511.101 536.002 514.745 536 518.546C536 522.344 537.59 525.986 540.422 528.673C543.253 531.36 547.094 532.872 551.1 532.877C555.066 532.678 558.839 531.196 561.791 528.679L622.212 482.428C625.04 479.751 626.632 476.12 626.641 472.331Z" fill="#00E0AC" stroke="black" stroke-width="8"/>
<path d="M143.999 432.51L146.527 355.95C146.498 351.998 144.959 348.215 142.242 345.418C139.524 342.621 135.846 341.034 132 341C128.181 341.077 124.538 342.671 121.837 345.448C119.135 348.224 117.585 351.968 117.51 355.894L115 432.51C115.043 436.45 116.586 440.215 119.298 443C122.01 445.784 125.676 447.365 129.509 447.404C133.33 447.332 136.975 445.739 139.677 442.962C142.379 440.184 143.929 436.438 143.999 432.51Z" fill="#FF1654" stroke="black" stroke-width="8"/>
<path d="M153.693 512.757L226.56 491.576C234.007 489.422 239.313 480.824 236.855 473.027C235.757 469.206 233.252 465.97 229.869 464.004C226.486 462.037 222.49 461.492 218.722 462.485L145.892 483.646C138.446 485.8 133.14 494.417 135.616 502.214C136.71 506.026 139.206 509.254 142.577 511.221C145.949 513.187 149.933 513.737 153.693 512.757Z" fill="#FF1654" stroke="black" stroke-width="8"/>
<path d="M591.883 171.762C587.58 171.832 583.475 173.366 580.43 176.041C577.385 178.717 575.636 182.326 575.552 186.112C574.603 210.688 573.661 235.276 572.727 259.875C572.775 263.671 574.512 267.299 577.565 269.982C580.618 272.664 584.744 274.188 589.058 274.225C593.361 274.156 597.467 272.622 600.512 269.946C603.557 267.271 605.306 263.661 605.39 259.875C606.311 235.276 607.246 210.688 608.195 186.112C608.146 182.319 606.412 178.694 603.364 176.012C600.315 173.33 596.194 171.805 591.883 171.762Z" fill="#FF1654" stroke="black" stroke-width="8"/>
<path d="M809.046 545.552C804.979 544.146 800.597 544.183 796.82 545.656C793.043 547.128 790.166 549.922 788.792 553.451C779.495 576.22 770.2 599.003 760.908 621.799C759.656 625.383 760.047 629.386 761.998 632.951C763.95 636.516 767.306 639.359 771.347 640.87C775.415 642.276 779.797 642.239 783.574 640.766C787.35 639.293 790.228 636.499 791.602 632.971C800.881 610.17 810.169 587.384 819.466 564.615C820.718 561.035 820.328 557.035 818.381 553.472C816.434 549.909 813.083 547.066 809.046 545.552Z" fill="#FF1654" stroke="black" stroke-width="8"/>
<path d="M409.442 323.387L470.921 281.265C474.144 279.306 476.533 276.274 477.646 272.728C478.66 269.012 478.129 265.055 476.168 261.72C472.178 255.656 462.848 251.992 456.161 256.594L394.681 298.788C391.493 300.739 389.127 303.743 388.012 307.253C386.998 310.969 387.529 314.926 389.49 318.261C393.425 324.325 402.791 327.989 409.442 323.387Z" fill="#00E0AC" stroke="black" stroke-width="8"/>
<path d="M819.261 361.97C821.364 365.266 824.634 367.591 828.377 368.452C830.238 368.878 832.163 368.922 834.04 368.581C835.918 368.241 837.711 367.522 839.317 366.466C842.421 364.193 844.657 360.882 845.644 357.1L867.961 284.435C868.785 280.573 868.09 276.533 866.028 273.195C865.007 271.552 863.681 270.133 862.126 269.017C860.571 267.901 858.817 267.111 856.965 266.692C855.113 266.273 853.198 266.233 851.331 266.574C849.463 266.915 847.679 267.631 846.081 268.68C842.977 270.948 840.744 274.262 839.773 278.047C832.322 302.262 824.877 326.484 817.438 350.712C816.576 354.565 817.232 358.611 819.261 361.97Z" fill="#0077FF" stroke="black" stroke-width="8"/>
<path d="M185.869 364.867C189.833 364.654 193.605 363.095 196.558 360.449L256.965 311.795C259.786 308.957 261.377 305.127 261.393 301.131C261.356 297.138 259.769 293.316 256.965 290.467C254.121 287.652 250.283 286.066 246.277 286.049C242.313 286.261 238.542 287.82 235.589 290.467L175.181 339.121C172.36 341.958 170.77 345.788 170.753 349.785C170.79 353.777 172.377 357.6 175.181 360.449C178.025 363.263 181.864 364.85 185.869 364.867Z" fill="#00E0AC" stroke="black" stroke-width="8"/>
<path d="M686.689 302.32C689.412 305.113 693.037 306.916 696.96 307.431L773.186 321.467C775.158 321.625 777.142 321.403 779.025 320.816C780.909 320.228 782.654 319.285 784.163 318.041C787.186 315.504 789.079 311.926 789.441 308.06C789.748 304.185 788.475 300.348 785.897 297.376C783.176 294.577 779.551 292.767 775.625 292.246L699.4 278.21C695.411 277.912 691.462 279.149 688.404 281.654C685.38 284.191 683.488 287.769 683.125 291.635C682.824 295.513 684.104 299.351 686.689 302.32Z" fill="#FF1654" stroke="black" stroke-width="8"/>
<path d="M583.358 388.296C586.334 381.448 583.723 372.491 575.852 369.541L503.422 342.329C496.07 339.557 486.452 342.025 483.284 349.337C480.309 356.185 482.92 365.125 490.81 368.093L563.221 395.287C570.592 398.058 580.191 395.591 583.358 388.296Z" fill="#0077FF" stroke="black" stroke-width="8"/>
<path d="M348.602 268.206C355.087 263.973 358.395 254.768 353.91 247.737L312.661 183.153C308.456 176.576 299.336 173.268 292.42 177.785C285.916 182.019 282.608 191.224 287.113 198.255C300.818 219.776 314.568 241.304 328.361 262.839C332.547 269.397 341.687 272.724 348.602 268.206Z" fill="#0077FF" stroke="black" stroke-width="8"/>
<path d="M682.112 222.505L754.935 201.35C762.38 199.196 767.702 190.581 765.227 182.786C764.129 178.966 761.625 175.731 758.243 173.765C754.862 171.799 750.866 171.254 747.1 172.247L674.277 193.421C666.833 195.575 661.529 204.171 663.986 211.966C665.08 215.789 667.583 219.026 670.966 220.993C674.349 222.96 678.346 223.503 682.112 222.505Z" fill="#00E0AC" stroke="black" stroke-width="8"/>
<path d="M160.79 592.596L215.523 645.085C221.11 650.455 231.232 650.757 236.746 644.716C239.505 641.855 241.054 638.069 241.066 634.157C241.078 630.246 239.552 626.513 236.81 623.748L182.061 571.269C176.473 565.899 166.377 565.603 160.855 571.628C158.091 574.487 156.539 578.274 156.527 582.187C156.515 586.1 158.044 589.833 160.79 592.596Z" fill="#0077FF" stroke="black" stroke-width="8"/>
<path d="M386.908 189.562L459.603 214.534C467.027 217.092 476.284 211.635 478.003 204.056C478.961 200.226 478.41 196.172 476.465 192.738C474.519 189.305 471.328 186.756 467.556 185.621L394.861 160.631C387.456 158.092 378.18 163.548 376.461 171.108C375.502 174.941 376.052 178.998 377.998 182.434C379.943 185.871 383.134 188.424 386.908 189.562Z" fill="#FF1654" stroke="black" stroke-width="8"/>
<path d="M830.509 494.915C834.254 494.878 837.839 493.275 840.511 490.446C843.151 487.575 844.639 483.7 844.655 479.657C844.472 475.653 843.008 471.84 840.511 468.869L793.91 408.744C791.248 405.897 787.656 404.291 783.907 404.274C780.162 404.312 776.577 405.914 773.904 408.744C771.271 411.618 769.789 415.492 769.778 419.532C769.943 423.538 771.403 427.354 773.904 430.32C789.444 450.356 804.978 470.397 820.506 490.446C823.168 493.293 826.76 494.898 830.509 494.915Z" fill="#00E0AC" stroke="black" stroke-width="8"/>
<path d="M503.114 467.529C505.279 464.265 506.061 460.306 505.294 456.49C504.527 452.673 502.271 449.298 499.002 447.076L434.404 405.391C427.838 401.152 417.75 402.584 413.468 409.407C411.302 412.671 410.52 416.63 411.288 420.446C412.055 424.263 414.311 427.638 417.579 429.86L482.177 471.545C488.801 475.784 498.888 474.352 503.114 467.529Z" fill="#FF1654" stroke="black" stroke-width="8"/>
<path d="M154.022 261.959L226.845 242.413C234.29 240.425 239.612 232.491 237.137 225.295C236.043 221.766 233.54 218.778 230.157 216.962C226.774 215.146 222.777 214.646 219.01 215.566L146.187 235.094C138.743 237.082 133.439 245.034 135.896 252.23C136.994 255.756 139.498 258.742 142.879 260.557C146.261 262.372 150.256 262.875 154.022 261.959Z" fill="#FF1654" stroke="black" stroke-width="8"/>
</svg>
