<svg width="1000" height="1000" viewBox="0 0 1000 1000" fill="none" xmlns="http://www.w3.org/2000/svg">
<path d="M433.086 345.893C443.337 345.893 451.648 337.583 451.648 327.332C451.648 317.081 443.337 308.771 433.086 308.771C422.835 308.771 414.525 317.081 414.525 327.332C414.525 337.583 422.835 345.893 433.086 345.893Z" fill="#693903" stroke="black" stroke-width="8"/>
<path d="M312.229 232.348C322.48 232.348 330.79 224.038 330.79 213.787C330.79 203.536 322.48 195.226 312.229 195.226C301.978 195.226 293.668 203.536 293.668 213.787C293.668 224.038 301.978 232.348 312.229 232.348Z" fill="#693903" stroke="black" stroke-width="8"/>
<path d="M557.561 412.122C567.812 412.122 576.122 403.812 576.122 393.561C576.122 383.31 567.812 375 557.561 375C547.31 375 539 383.31 539 393.561C539 403.812 547.31 412.122 557.561 412.122Z" fill="#693903" stroke="black" stroke-width="8"/>
<path d="M229.879 638.787C240.13 638.787 248.441 630.477 248.441 620.226C248.441 609.975 240.13 601.665 229.879 601.665C219.628 601.665 211.318 609.975 211.318 620.226C211.318 630.477 219.628 638.787 229.879 638.787Z" fill="#693903" stroke="black" stroke-width="8"/>
<path d="M175.571 535.549C185.822 535.549 194.132 527.239 194.132 516.988C194.132 506.737 185.822 498.427 175.571 498.427C165.32 498.427 157.01 506.737 157.01 516.988C157.01 527.239 165.32 535.549 175.571 535.549Z" fill="#693903" stroke="black" stroke-width="8"/>
<path d="M641.631 288.938C651.882 288.938 660.192 280.628 660.192 270.377C660.192 260.126 651.882 251.816 641.631 251.816C631.38 251.816 623.07 260.126 623.07 270.377C623.07 280.628 631.38 288.938 641.631 288.938Z" fill="#693903" stroke="black" stroke-width="8"/>
<path d="M874.307 374.796C884.558 374.796 892.868 366.485 892.868 356.234C892.868 345.983 884.558 337.673 874.307 337.673C864.056 337.673 855.746 345.983 855.746 356.234C855.746 366.485 864.056 374.796 874.307 374.796Z" fill="#693903" stroke="black" stroke-width="8"/>
<path d="M370.926 196.097C381.177 196.097 389.487 187.787 389.487 177.536C389.487 167.285 381.177 158.975 370.926 158.975C360.675 158.975 352.365 167.285 352.365 177.536C352.365 187.787 360.675 196.097 370.926 196.097Z" fill="#693903" stroke="black" stroke-width="8"/>
<path d="M569.059 366.655C579.31 366.655 587.62 358.345 587.62 348.094C587.62 337.843 579.31 329.533 569.059 329.533C558.808 329.533 550.498 337.843 550.498 348.094C550.498 358.345 558.808 366.655 569.059 366.655Z" fill="#693903" stroke="black" stroke-width="8"/>
<path d="M111.561 415.693C121.812 415.693 130.122 407.382 130.122 397.131C130.122 386.88 121.812 378.57 111.561 378.57C101.31 378.57 93 386.88 93 397.131C93 407.382 101.31 415.693 111.561 415.693Z" fill="#693903" stroke="black" stroke-width="8"/>
<path d="M815.561 608.122C825.812 608.122 834.122 599.812 834.122 589.561C834.122 579.31 825.812 571 815.561 571C805.31 571 797 579.31 797 589.561C797 599.812 805.31 608.122 815.561 608.122Z" fill="#693903" stroke="black" stroke-width="8"/>
<path d="M624.27 528.357C634.521 528.357 642.831 520.047 642.831 509.796C642.831 499.545 634.521 491.235 624.27 491.235C614.019 491.235 605.709 499.545 605.709 509.796C605.709 520.047 614.019 528.357 624.27 528.357Z" fill="#693903" stroke="black" stroke-width="8"/>
<path d="M485.561 326.122C495.812 326.122 504.122 317.812 504.122 307.561C504.122 297.31 495.812 289 485.561 289C475.31 289 467 297.31 467 307.561C467 317.812 475.31 326.122 485.561 326.122Z" fill="#693903" stroke="black" stroke-width="8"/>
<path d="M704.61 247.807C714.861 247.807 723.171 239.497 723.171 229.246C723.171 218.995 714.861 210.685 704.61 210.685C694.359 210.685 686.049 218.995 686.049 229.246C686.049 239.497 694.359 247.807 704.61 247.807Z" fill="#693903" stroke="black" stroke-width="8"/>
<path d="M831.067 428.502C841.318 428.502 849.628 420.192 849.628 409.941C849.628 399.69 841.318 391.38 831.067 391.38C820.816 391.38 812.506 399.69 812.506 409.941C812.506 420.192 820.816 428.502 831.067 428.502Z" fill="#693903" stroke="black" stroke-width="8"/>
<path d="M247.112 297.194C257.363 297.194 265.673 288.884 265.673 278.633C265.673 268.382 257.363 260.072 247.112 260.072C236.861 260.072 228.551 268.382 228.551 278.633C228.551 288.884 236.861 297.194 247.112 297.194Z" fill="#693903" stroke="black" stroke-width="8"/>
<path d="M501.323 379.694C511.574 379.694 519.884 371.384 519.884 361.133C519.884 350.882 511.574 342.572 501.323 342.572C491.072 342.572 482.762 350.882 482.762 361.133C482.762 371.384 491.072 379.694 501.323 379.694Z" fill="#693903" stroke="black" stroke-width="8"/>
<path d="M396.561 528.122C406.812 528.122 415.122 519.812 415.122 509.561C415.122 499.31 406.812 491 396.561 491C386.31 491 378 499.31 378 509.561C378 519.812 386.31 528.122 396.561 528.122Z" fill="#693903" stroke="black" stroke-width="8"/>
<path d="M572.831 239.897C583.082 239.897 591.392 231.587 591.392 221.335C591.392 211.084 583.082 202.774 572.831 202.774C562.58 202.774 554.27 211.084 554.27 221.335C554.27 231.587 562.58 239.897 572.831 239.897Z" fill="#693903" stroke="black" stroke-width="8"/>
<path d="M725.075 323.54C735.326 323.54 743.636 315.23 743.636 304.979C743.636 294.728 735.326 286.417 725.075 286.417C714.824 286.417 706.514 294.728 706.514 304.979C706.514 315.23 714.824 323.54 725.075 323.54Z" fill="#693903" stroke="black" stroke-width="8"/>
<path d="M881.256 465.677C891.507 465.677 899.817 457.367 899.817 447.116C899.817 436.865 891.507 428.555 881.256 428.555C871.005 428.555 862.695 436.865 862.695 447.116C862.695 457.367 871.005 465.677 881.256 465.677Z" fill="#693903" stroke="black" stroke-width="8"/>
<path d="M456.561 225.122C466.812 225.122 475.122 216.812 475.122 206.561C475.122 196.31 466.812 188 456.561 188C446.31 188 438 196.31 438 206.561C438 216.812 446.31 225.122 456.561 225.122Z" fill="#693903" stroke="black" stroke-width="8"/>
<path d="M448.561 441.122C458.812 441.122 467.122 432.812 467.122 422.561C467.122 412.31 458.812 404 448.561 404C438.31 404 430 412.31 430 422.561C430 432.812 438.31 441.122 448.561 441.122Z" fill="#693903" stroke="black" stroke-width="8"/>
<path d="M167.299 288.938C177.55 288.938 185.86 280.628 185.86 270.377C185.86 260.126 177.55 251.816 167.299 251.816C157.048 251.816 148.738 260.126 148.738 270.377C148.738 280.628 157.048 288.938 167.299 288.938Z" fill="#693903" stroke="black" stroke-width="8"/>
<path d="M772.231 239.897C782.482 239.897 790.792 231.587 790.792 221.335C790.792 211.084 782.482 202.774 772.231 202.774C761.98 202.774 753.67 211.084 753.67 221.335C753.67 231.587 761.98 239.897 772.231 239.897Z" fill="#693903" stroke="black" stroke-width="8"/>
<path d="M780.631 483.912C790.882 483.912 799.192 475.602 799.192 465.351C799.192 455.1 790.882 446.79 780.631 446.79C770.38 446.79 762.07 455.1 762.07 465.351C762.07 475.602 770.38 483.912 780.631 483.912Z" fill="#693903" stroke="black" stroke-width="8"/>
<path d="M206.145 519.873C216.396 519.873 224.706 511.563 224.706 501.312C224.706 491.061 216.396 482.751 206.145 482.751C195.894 482.751 187.584 491.061 187.584 501.312C187.584 511.563 195.894 519.873 206.145 519.873Z" fill="#693903" stroke="black" stroke-width="8"/>
<path d="M242.161 232.348C252.412 232.348 260.722 224.038 260.722 213.787C260.722 203.536 252.412 195.226 242.161 195.226C231.91 195.226 223.6 203.536 223.6 213.787C223.6 224.038 231.91 232.348 242.161 232.348Z" fill="#693903" stroke="black" stroke-width="8"/>
<path d="M490.038 459.943C500.289 459.943 508.599 451.633 508.599 441.382C508.599 431.131 500.289 422.821 490.038 422.821C479.787 422.821 471.477 431.131 471.477 441.382C471.477 451.633 479.787 459.943 490.038 459.943Z" fill="#693903" stroke="black" stroke-width="8"/>
<path d="M141.561 558.122C151.812 558.122 160.122 549.812 160.122 539.561C160.122 529.31 151.812 521 141.561 521C131.31 521 123 529.31 123 539.561C123 549.812 131.31 558.122 141.561 558.122Z" fill="#693903" stroke="black" stroke-width="8"/>
<path d="M167.299 364.599C177.55 364.599 185.86 356.289 185.86 346.038C185.86 335.787 177.55 327.477 167.299 327.477C157.048 327.477 148.738 335.787 148.738 346.038C148.738 356.289 157.048 364.599 167.299 364.599Z" fill="#693903" stroke="black" stroke-width="8"/>
<path d="M831.067 521.434C841.318 521.434 849.628 513.124 849.628 502.873C849.628 492.622 841.318 484.312 831.067 484.312C820.816 484.312 812.506 492.622 812.506 502.873C812.506 513.124 820.816 521.434 831.067 521.434Z" fill="#693903" stroke="black" stroke-width="8"/>
<path d="M453.368 272.284C463.619 272.284 471.929 263.974 471.929 253.723C471.929 243.472 463.619 235.162 453.368 235.162C443.117 235.162 434.807 243.472 434.807 253.723C434.807 263.974 443.117 272.284 453.368 272.284Z" fill="#693903" stroke="black" stroke-width="8"/>
<path d="M744.073 278.143C754.324 278.143 762.634 269.833 762.634 259.582C762.634 249.331 754.324 241.021 744.073 241.021C733.822 241.021 725.512 249.331 725.512 259.582C725.512 269.833 733.822 278.143 744.073 278.143Z" fill="#693903" stroke="black" stroke-width="8"/>
<path d="M425.178 259.093C435.429 259.093 443.739 250.783 443.739 240.532C443.739 230.281 435.429 221.971 425.178 221.971C414.927 221.971 406.617 230.281 406.617 240.532C406.617 250.783 414.927 259.093 425.178 259.093Z" fill="#693903" stroke="black" stroke-width="8"/>
<path d="M564.363 514.483C572.296 520.976 583.99 519.808 590.483 511.876C596.975 503.943 595.808 492.249 587.875 485.756C579.942 479.263 568.248 480.431 561.756 488.363C555.263 496.296 556.43 507.99 564.363 514.483Z" fill="#693903" stroke="black" stroke-width="8"/>
<path d="M142.444 398.582C152.695 398.582 161.005 390.272 161.005 380.021C161.005 369.77 152.695 361.459 142.444 361.459C132.193 361.459 123.883 369.77 123.883 380.021C123.883 390.272 132.193 398.582 142.444 398.582Z" fill="#693903" stroke="black" stroke-width="8"/>
<path d="M855.874 413.86C866.125 413.86 874.435 405.549 874.435 395.298C874.435 385.047 866.125 376.737 855.874 376.737C845.623 376.737 837.312 385.047 837.312 395.298C837.312 405.549 845.623 413.86 855.874 413.86Z" fill="#693903" stroke="black" stroke-width="8"/>
<path d="M229.561 370.122C239.812 370.122 248.122 361.812 248.122 351.561C248.122 341.31 239.812 333 229.561 333C219.31 333 211 341.31 211 351.561C211 361.812 219.31 370.122 229.561 370.122Z" fill="#693903" stroke="black" stroke-width="8"/>
<path d="M130.12 482.171C140.371 482.171 148.681 473.86 148.681 463.609C148.681 453.358 140.371 445.048 130.12 445.048C119.869 445.048 111.559 453.358 111.559 463.609C111.559 473.86 119.869 482.171 130.12 482.171Z" fill="#693903" stroke="black" stroke-width="8"/>
<path d="M641.631 193.122C651.882 193.122 660.192 184.812 660.192 174.561C660.192 164.31 651.882 156 641.631 156C631.38 156 623.07 164.31 623.07 174.561C623.07 184.812 631.38 193.122 641.631 193.122Z" fill="#693903" stroke="black" stroke-width="8"/>
<path d="M790.794 364.599C801.045 364.599 809.355 356.289 809.355 346.038C809.355 335.787 801.045 327.477 790.794 327.477C780.543 327.477 772.232 335.787 772.232 346.038C772.232 356.289 780.543 364.599 790.794 364.599Z" fill="#693903" stroke="black" stroke-width="8"/>
<path d="M549.337 484.974C559.588 484.974 567.898 476.664 567.898 466.413C567.898 456.162 559.588 447.852 549.337 447.852C539.085 447.852 530.775 456.162 530.775 466.413C530.775 476.664 539.085 484.974 549.337 484.974Z" fill="#693903" stroke="black" stroke-width="8"/>
<path d="M532.26 338.436C542.511 338.436 550.821 330.126 550.821 319.875C550.821 309.624 542.511 301.313 532.26 301.313C522.009 301.313 513.699 309.624 513.699 319.875C513.699 330.126 522.009 338.436 532.26 338.436Z" fill="#693903" stroke="black" stroke-width="8"/>
<path d="M185.561 620.122C195.812 620.122 204.122 611.812 204.122 601.561C204.122 591.31 195.812 583 185.561 583C175.31 583 167 591.31 167 601.561C167 611.812 175.31 620.122 185.561 620.122Z" fill="#693903" stroke="black" stroke-width="8"/>
<path d="M761.561 608.122C771.812 608.122 780.122 599.812 780.122 589.561C780.122 579.31 771.812 571 761.561 571C751.31 571 743 579.31 743 589.561C743 599.812 751.31 608.122 761.561 608.122Z" fill="#693903" stroke="black" stroke-width="8"/>
<path d="M360.11 239.897C370.361 239.897 378.671 231.587 378.671 221.335C378.671 211.084 370.361 202.774 360.11 202.774C349.859 202.774 341.549 211.084 341.549 221.335C341.549 231.587 349.859 239.897 360.11 239.897Z" fill="#693903" stroke="black" stroke-width="8"/>
<path d="M533.948 297.194C544.199 297.194 552.509 288.884 552.509 278.633C552.509 268.382 544.199 260.072 533.948 260.072C523.697 260.072 515.387 268.382 515.387 278.633C515.387 288.884 523.697 297.194 533.948 297.194Z" fill="#693903" stroke="black" stroke-width="8"/>
<path d="M348.336 291.099C358.587 291.099 366.898 282.789 366.898 272.538C366.898 262.287 358.587 253.977 348.336 253.977C338.085 253.977 329.775 262.287 329.775 272.538C329.775 282.789 338.085 291.099 348.336 291.099Z" fill="#693903" stroke="black" stroke-width="8"/>
<path d="M200.389 444.668C210.64 444.668 218.95 436.358 218.95 426.107C218.95 415.856 210.64 407.545 200.389 407.545C190.138 407.545 181.828 415.856 181.828 426.107C181.828 436.358 190.138 444.668 200.389 444.668Z" fill="#693903" stroke="black" stroke-width="8"/>
<path d="M815.467 303.563C825.718 303.563 834.028 295.253 834.028 285.002C834.028 274.751 825.718 266.441 815.467 266.441C805.216 266.441 796.906 274.751 796.906 285.002C796.906 295.253 805.216 303.563 815.467 303.563Z" fill="#693903" stroke="black" stroke-width="8"/>
<path d="M503.561 502.122C513.812 502.122 522.122 493.812 522.122 483.561C522.122 473.31 513.812 465 503.561 465C493.31 465 485 473.31 485 483.561C485 493.812 493.31 502.122 503.561 502.122Z" fill="#693903" stroke="black" stroke-width="8"/>
</svg>
