<svg width="1000" height="1000" viewBox="0 0 1000 1000" fill="none" xmlns="http://www.w3.org/2000/svg">
<path d="M626.641 473.331C626.641 469.53 625.048 465.885 622.212 463.198C619.377 460.51 615.531 459 611.521 459C607.562 459.203 603.796 460.684 600.85 463.198L540.429 509.413C537.595 512.101 536.002 515.745 536 519.546C536 523.344 537.59 526.986 540.422 529.673C543.253 532.36 547.094 533.872 551.1 533.877C555.066 533.678 558.839 532.196 561.791 529.679L622.212 483.428C625.04 480.751 626.632 477.12 626.641 473.331Z" fill="#693903" stroke="black" stroke-width="8"/>
<path d="M136.999 413.51L139.527 336.95C139.498 332.998 137.959 329.215 135.242 326.418C132.524 323.621 128.846 322.034 125 322C121.181 322.077 117.538 323.671 114.837 326.448C112.135 329.224 110.585 332.968 110.51 336.894L108 413.51C108.043 417.45 109.586 421.215 112.298 424C115.01 426.784 118.676 428.365 122.509 428.404C126.33 428.332 129.975 426.739 132.677 423.962C135.379 421.184 136.929 417.438 136.999 413.51Z" fill="#693903" stroke="black" stroke-width="8"/>
<path d="M142.693 513.757L215.56 492.576C223.007 490.422 228.313 481.824 225.855 474.027C224.757 470.206 222.252 466.97 218.869 465.004C215.486 463.037 211.49 462.492 207.722 463.485L134.892 484.646C127.446 486.8 122.14 495.417 124.616 503.214C125.71 507.026 128.206 510.254 131.577 512.221C134.949 514.187 138.933 514.737 142.693 513.757Z" fill="#693903" stroke="black" stroke-width="8"/>
<path d="M595.883 165.762C591.58 165.831 587.475 167.365 584.43 170.041C581.385 172.716 579.636 176.326 579.552 180.112C578.603 204.687 577.661 229.275 576.727 253.875C576.775 257.671 578.512 261.299 581.565 263.981C584.618 266.664 588.744 268.187 593.058 268.225C597.361 268.155 601.467 266.622 604.512 263.946C607.557 261.27 609.306 257.661 609.39 253.875C610.311 229.275 611.246 204.687 612.195 180.112C612.146 176.319 610.412 172.694 607.364 170.012C604.315 167.33 600.194 165.804 595.883 165.762Z" fill="#693903" stroke="black" stroke-width="8"/>
<path d="M813.046 544.552C808.979 543.146 804.597 543.183 800.82 544.656C797.043 546.128 794.166 548.922 792.792 552.451C783.495 575.22 774.2 598.003 764.908 620.799C763.656 624.383 764.047 628.386 765.998 631.951C767.95 635.516 771.306 638.359 775.347 639.87C779.415 641.276 783.797 641.239 787.574 639.766C791.35 638.293 794.228 635.499 795.602 631.971C804.881 609.17 814.169 586.384 823.466 563.615C824.718 560.035 824.328 556.035 822.381 552.472C820.434 548.909 817.083 546.066 813.046 544.552Z" fill="#693903" stroke="black" stroke-width="8"/>
<path d="M413.441 317.387L474.92 275.265C478.143 273.306 480.532 270.274 481.645 266.728C482.659 263.012 482.128 259.055 480.167 255.72C476.177 249.656 466.847 245.992 460.16 250.594L398.68 292.788C395.492 294.739 393.126 297.743 392.011 301.253C390.997 304.969 391.528 308.926 393.489 312.261C397.424 318.325 406.79 321.989 413.441 317.387Z" fill="#693903" stroke="black" stroke-width="8"/>
<path d="M820.193 395.625C822.296 398.922 825.566 401.247 829.31 402.107C831.171 402.533 833.095 402.577 834.973 402.237C836.85 401.896 838.644 401.177 840.25 400.121C843.353 397.849 845.59 394.537 846.576 390.755L868.893 318.09C869.717 314.228 869.023 310.188 866.961 306.85C865.94 305.208 864.614 303.788 863.059 302.672C861.504 301.557 859.75 300.767 857.897 300.347C856.045 299.928 854.131 299.888 852.263 300.229C850.396 300.57 848.612 301.286 847.014 302.335C843.909 304.603 841.677 307.918 840.705 311.702C833.254 335.917 825.809 360.139 818.37 384.367C817.509 388.22 818.164 392.266 820.193 395.625Z" fill="#693903" stroke="black" stroke-width="8"/>
<path d="M189.87 358.867C193.834 358.654 197.606 357.095 200.558 354.449L260.966 305.795C263.787 302.957 265.378 299.127 265.394 295.131C265.357 291.138 263.77 287.316 260.966 284.467C258.122 281.652 254.284 280.066 250.278 280.049C246.314 280.261 242.543 281.82 239.59 284.467L179.182 333.121C176.361 335.958 174.771 339.788 174.754 343.785C174.791 347.777 176.378 351.6 179.182 354.449C182.026 357.263 185.865 358.85 189.87 358.867Z" fill="#693903" stroke="black" stroke-width="8"/>
<path d="M690.689 296.32C693.412 299.113 697.037 300.917 700.96 301.431L777.186 315.467C779.158 315.625 781.142 315.404 783.025 314.816C784.909 314.228 786.654 313.285 788.163 312.042C791.186 309.505 793.079 305.927 793.441 302.061C793.748 298.185 792.475 294.348 789.897 291.376C787.176 288.578 783.551 286.768 779.625 286.247L703.4 272.211C699.411 271.913 695.462 273.15 692.404 275.655C689.38 278.192 687.488 281.77 687.125 285.636C686.824 289.514 688.104 293.351 690.689 296.32Z" fill="#693903" stroke="black" stroke-width="8"/>
<path d="M587.358 382.296C590.334 375.448 587.723 366.491 579.852 363.541L507.422 336.329C500.07 333.557 490.452 336.025 487.284 343.337C484.309 350.185 486.92 359.125 494.81 362.093L567.221 389.287C574.592 392.058 584.191 389.591 587.358 382.296Z" fill="#693903" stroke="black" stroke-width="8"/>
<path d="M352.604 262.206C359.089 257.973 362.397 248.768 357.912 241.737L316.663 177.153C312.458 170.576 303.338 167.268 296.422 171.785C289.918 176.019 286.61 185.224 291.115 192.255C304.82 213.776 318.57 235.304 332.363 256.839C336.549 263.397 345.689 266.724 352.604 262.206Z" fill="#693903" stroke="black" stroke-width="8"/>
<path d="M686.113 216.505L758.936 195.349C766.381 193.196 771.703 184.581 769.228 176.786C768.13 172.965 765.626 169.731 762.244 167.765C758.863 165.798 754.867 165.254 751.101 166.246L678.278 187.421C670.834 189.574 665.53 198.17 667.987 205.965C669.081 209.788 671.584 213.026 674.967 214.993C678.35 216.96 682.347 217.502 686.113 216.505Z" fill="#693903" stroke="black" stroke-width="8"/>
<path d="M178.789 592.596L233.522 645.085C239.109 650.455 249.231 650.757 254.745 644.716C257.504 641.855 259.053 638.069 259.065 634.157C259.077 630.246 257.551 626.513 254.809 623.748L200.06 571.269C194.472 565.899 184.376 565.603 178.854 571.628C176.09 574.487 174.538 578.274 174.526 582.187C174.514 586.1 176.043 589.833 178.789 592.596Z" fill="#693903" stroke="black" stroke-width="8"/>
<path d="M390.908 185.562L463.603 210.534C471.027 213.092 480.284 207.635 482.003 200.056C482.961 196.226 482.41 192.172 480.465 188.738C478.519 185.305 475.328 182.756 471.556 181.621L398.861 156.631C391.456 154.092 382.18 159.548 380.461 167.108C379.502 170.941 380.052 174.998 381.998 178.434C383.943 181.871 387.134 184.424 390.908 185.562Z" fill="#693903" stroke="black" stroke-width="8"/>
<path d="M832.73 518.641C836.475 518.603 840.061 517.001 842.733 514.171C845.373 511.3 846.861 507.426 846.877 503.383C846.694 499.378 845.229 495.566 842.733 492.595L796.131 432.469C793.47 429.622 789.877 428.017 786.129 428C782.384 428.037 778.798 429.64 776.126 432.469C773.493 435.343 772.011 439.217 772 443.258C772.165 447.263 773.625 451.08 776.126 454.046C791.666 474.081 807.2 494.123 822.728 514.171C825.389 517.018 828.982 518.623 832.73 518.641Z" fill="#693903" stroke="black" stroke-width="8"/>
<path d="M499.387 466.743C501.553 463.48 502.334 459.521 501.567 455.705C500.8 451.888 498.544 448.513 495.276 446.291L430.678 404.606C424.111 400.367 414.024 401.799 409.741 408.622C407.576 411.886 406.794 415.844 407.561 419.661C408.328 423.477 410.584 426.853 413.852 429.074L478.451 470.759C485.074 474.999 495.162 473.567 499.387 466.743Z" fill="#693903" stroke="black" stroke-width="8"/>
<path d="M158.023 255.959L230.846 236.413C238.291 234.425 243.613 226.491 241.138 219.295C240.044 215.766 237.541 212.778 234.158 210.962C230.775 209.146 226.778 208.646 223.011 209.566L150.188 229.094C142.744 231.082 137.44 239.034 139.897 246.23C140.995 249.756 143.499 252.742 146.88 254.557C150.262 256.372 154.257 256.875 158.023 255.959Z" fill="#693903" stroke="black" stroke-width="8"/>
</svg>
