<svg width="1000" height="1000" viewBox="0 0 1000 1000" fill="none" xmlns="http://www.w3.org/2000/svg">
<path d="M107.608 400.63C119.187 386.849 121.299 385.143 131.987 373.753C149.625 354.945 167.971 336.955 187.025 319.782C195.443 312.229 203.979 304.832 212.635 297.59C235.804 278.444 259.789 260.522 284.589 243.822C310.104 226.671 336.405 210.917 363.393 196.62C377.982 188.919 392.753 181.643 407.706 174.792C413.821 172.036 408.756 174.386 414.928 171.731C417.92 170.475 427.78 165.144 426.03 160.503C425.564 159.589 424.933 158.784 424.174 158.136C423.414 157.489 422.542 157.012 421.608 156.734C411.955 152.68 399.696 152.24 389.441 153.922C366.241 157.692 355.866 160.403 334.773 171.732C312.833 183.507 291.495 196.742 270.609 210.645C247.74 225.858 225.549 242.16 204.036 259.549C181.7 277.607 160.024 296.597 139.25 316.702C118.477 336.806 104.687 347.724 93.6796 375.733C90.3491 384.225 87.7712 393.609 89.6153 402.628C90.3303 406.174 92.2496 410.025 95.5801 410.633C98.9106 411.241 102.204 407.897 104.48 404.816C104.706 404.553 106.874 401.826 107.608 400.63Z" fill="#FF1654" stroke="black" stroke-width="8"/>
<path d="M364.729 264.739L364.13 265.533C360.702 270.122 357.424 275.167 356.637 280.967C355.851 286.767 358.024 293.461 363.1 295.824C367.67 297.969 373.064 296.102 377.279 293.242C388.779 285.456 398.594 275.544 409.308 266.626C427.973 250.822 447.459 236.14 467.673 222.649C479.436 214.962 479 216.962 489.714 207.309C491.275 205.903 492.311 203.951 492.636 201.807C492.522 200.323 491.935 198.924 490.971 197.841C490.008 196.758 488.726 196.055 487.335 195.848C484.51 195.51 481.649 195.905 479 197C432.435 211.957 395.953 223.583 364.729 264.739Z" fill="#0077FF" stroke="black" stroke-width="8"/>
<path d="M180.91 477.919C187.772 471.19 221.011 438.824 228.175 432.508C237.922 423.881 246.442 416.431 245.045 400.58C244.736 397.112 244.119 393.088 241.414 391.478C239.835 390.707 238.08 390.526 236.405 390.962C225.822 392.737 224.853 394.201 216.122 400.579C206.426 407.438 170.826 440.716 161.815 448.693C136.004 472.057 113.843 492.108 107.109 530.476C106.362 533.973 106.171 537.594 106.546 541.167C106.75 542.953 107.294 544.667 108.141 546.189C108.987 547.711 110.115 549.005 111.447 549.98C118.707 554.748 122.991 543.004 126.766 537.968C132.817 529.933 135.242 528.444 141.522 520.807C153.999 505.756 167.146 491.441 180.91 477.919Z" fill="#0077FF" stroke="black" stroke-width="8"/>
<path d="M219.282 654.743C225.325 653.248 229.61 646.35 234.078 642.23C239.704 637.039 245.007 631.477 249.955 625.578C252.006 623.125 254.13 620.079 253.38 616.917C253.007 615.719 252.329 614.651 251.419 613.827C250.509 613.003 249.401 612.455 248.215 612.241C245.837 611.861 243.408 612.051 241.11 612.797C229.207 615.901 200.548 631.173 206.317 648.247C208.056 653.191 214.594 655.874 219.282 654.743Z" fill="#0077FF" stroke="black" stroke-width="8"/>
<path d="M668.682 277.41C667.189 279.976 665.997 282.657 665.122 285.414C664.294 287.586 664.104 289.892 664.568 292.137C665.915 296.8 672.025 299.621 677.774 299.741C698.22 300.182 717.103 282.712 732.714 273.728C752.054 262.602 771.915 252.163 792.297 242.411C801.806 237.848 804.963 236.722 814.697 232.48C822.394 229.118 829.129 219.833 821.24 214.85C814.023 210.268 806.441 209.273 798.407 210.734C775.576 214.908 753.499 221.548 732.738 230.485C714.722 238.229 697.739 251.536 682.224 262.502C676.523 266.641 671.912 271.716 668.682 277.41Z" fill="#0077FF" stroke="black" stroke-width="8"/>
<path d="M623.421 483.018C625.93 477.912 625.852 470.054 620.852 466.903C619.154 465.975 617.297 465.386 615.382 465.168C612.987 464.641 610.536 464.419 608.087 464.51C606.349 464.705 604.63 465.052 602.95 465.547C594.166 467.9 586.647 474.253 578.244 480.036C573.657 483.192 567.81 489.749 567.81 489.749C557.32 500.14 558.552 497.357 550.65 512.216C549.73 515.222 549.933 518.467 551.219 521.331C552.032 522.604 553.111 523.68 554.378 524.483C555.645 525.286 557.07 525.796 558.552 525.978C567.435 527.513 571.484 525.463 578.268 519.44H578.244C578.244 519.44 589.303 507.788 604.126 497.357C609.656 493.369 618.636 490.237 622.578 484.633C622.903 484.12 623.185 483.58 623.421 483.018Z" fill="#FF1654" stroke="black" stroke-width="8"/>
<path d="M752.078 357.756C745.251 366.585 744.01 373.893 754.275 376.659C766.903 380.056 777.515 370.819 787.398 365.664C805.879 355.712 825.006 346.606 844.691 338.386C852.903 335.088 855.31 334.44 863.689 331.477C873.954 327.961 896.036 320.574 891.763 307.775C891.017 305.979 889.76 304.358 888.098 303.049C886.436 301.739 884.418 300.779 882.214 300.249C877.763 299.242 873.117 298.96 868.535 299.42C818.666 302.481 779.054 322.914 752.078 357.756Z" fill="#FF1654" stroke="black" stroke-width="8"/>
<path d="M909.346 407.205C908.578 405.774 907.51 404.466 906.192 403.34C902.81 400.336 897.164 400.189 892.204 400.63C873.079 402.416 863.14 407.324 847.194 415.727C824.762 427.429 799.914 439.592 780.585 454.697C773.926 460.321 767.875 466.415 762.502 472.911C755.286 481.044 751.056 490.722 750.32 500.788C750.091 504.338 750.701 508.456 754.262 510.431C758.28 512.657 763.647 510.977 768.021 509.254C781.526 503.897 792.157 494.234 803.932 486.692C825.652 472.911 847.829 459.592 871.024 447.554C885.419 440.012 918.782 425.419 909.346 407.205Z" fill="#0077FF" stroke="black" stroke-width="8"/>
<path fill-rule="evenodd" clip-rule="evenodd" d="M534.526 252.805C513.488 266.365 493.769 280.567 469.428 301.101C461.513 307.76 458.358 310.265 455.611 313.156C452.827 316.086 450.462 319.414 443.985 327.867C440.548 332.929 440.502 333.043 437.468 340.544L437.34 340.863C436.763 342.415 436.26 343.998 435.833 345.604C434.703 349.29 434.587 353.246 435.499 357C438.734 367.917 445.5 364.5 452.737 359.57C461.356 354.303 464.436 352.058 480.28 338.989C504.426 319.143 529.33 300.4 554.992 282.759C548.472 272.916 541.57 262.799 534.526 252.805ZM571.527 271.615C571.527 271.615 571.528 271.615 571.528 271.615C600.347 252.584 630.004 235.044 660.395 219.058C663.443 217.462 666.473 215.857 669.496 214.257C681.224 208.047 692.835 201.899 704.915 196.545C709.077 194.703 712.364 193.268 715.207 192.027C723.764 188.29 728.304 186.308 740.587 180.277C742.1 179.72 743.392 178.628 744.247 177.179C745.103 175.73 745.471 174.011 745.291 172.308C745.177 171.468 744.903 170.662 744.487 169.939C744.072 169.216 743.523 168.592 742.874 168.104C738.485 164.259 732.386 163.801 726.714 163.781C677.551 163.59 641.713 186.129 601.923 211.153C596.127 214.798 590.246 218.497 584.228 222.185C579.354 225.182 574.694 228.035 570.207 230.781C563.705 234.761 557.566 238.518 551.669 242.171C558.581 251.964 565.306 261.914 571.527 271.615Z" fill="#00E0AC"/>
<path d="M534.526 252.805L537.796 250.5L535.585 247.363L532.359 249.442L534.526 252.805ZM469.428 301.101L472.003 304.162L472.007 304.159L469.428 301.101ZM455.611 313.156L452.711 310.401L455.611 313.156ZM443.985 327.867L440.81 325.434L440.74 325.525L440.676 325.62L443.985 327.867ZM437.468 340.544L441.177 342.044L441.177 342.044L437.468 340.544ZM437.34 340.863L433.631 339.363L433.61 339.416L433.59 339.469L437.34 340.863ZM435.833 345.604L439.657 346.778L439.68 346.705L439.699 346.631L435.833 345.604ZM435.499 357L431.612 357.944L431.635 358.041L431.663 358.137L435.499 357ZM452.737 359.57L450.651 356.157L450.566 356.208L450.484 356.264L452.737 359.57ZM480.28 338.989L477.74 335.899L477.734 335.904L480.28 338.989ZM554.992 282.759L557.258 286.055L560.498 283.828L558.327 280.55L554.992 282.759ZM571.527 271.615L568.16 273.774L569.341 275.615H571.527V271.615ZM571.528 271.615V275.615H572.729L573.732 274.953L571.528 271.615ZM660.395 219.058L658.54 215.514L658.533 215.517L660.395 219.058ZM669.496 214.257L667.624 210.722L669.496 214.257ZM704.915 196.545L703.296 192.888L703.294 192.889L704.915 196.545ZM715.207 192.027L713.607 188.361L713.607 188.361L715.207 192.027ZM740.587 180.277L739.207 176.522L739.011 176.594L738.824 176.686L740.587 180.277ZM745.291 172.308L749.269 171.888L749.263 171.827L749.255 171.767L745.291 172.308ZM742.874 168.104L740.238 171.113L740.351 171.212L740.471 171.302L742.874 168.104ZM726.714 163.781L726.699 167.781L726.7 167.781L726.714 163.781ZM601.923 211.153L604.053 214.539L601.923 211.153ZM584.228 222.185L582.137 218.775L582.132 218.778L584.228 222.185ZM570.207 230.781L568.119 227.37L570.207 230.781ZM551.669 242.171L549.563 238.771L545.952 241.007L548.401 244.478L551.669 242.171ZM532.359 249.442C511.184 263.09 491.327 277.394 466.849 298.044L472.007 304.159C496.211 283.74 515.791 269.639 536.693 256.167L532.359 249.442ZM466.853 298.04C459.091 304.571 455.661 307.297 452.711 310.401L458.511 315.911C461.056 313.232 463.935 310.95 472.003 304.162L466.853 298.04ZM452.711 310.401C449.734 313.535 447.152 317.157 440.81 325.434L447.16 330.3C453.772 321.671 455.921 318.637 458.511 315.911L452.711 310.401ZM440.676 325.62C438.987 328.108 437.969 329.609 437.016 331.465C436.094 333.263 435.246 335.37 433.76 339.045L441.177 342.044C442.724 338.217 443.416 336.517 444.134 335.117C444.822 333.776 445.546 332.688 447.294 330.114L440.676 325.62ZM433.76 339.045L433.631 339.363L441.048 342.363L441.177 342.044L433.76 339.045ZM433.59 339.469C432.968 341.142 432.427 342.847 431.967 344.578L439.699 346.631C440.093 345.148 440.557 343.688 441.089 342.257L433.59 339.469ZM432.009 344.431C430.667 348.806 430.53 353.493 431.612 357.944L439.386 356.056C438.643 352.999 438.738 349.774 439.657 346.778L432.009 344.431ZM431.663 358.137C432.577 361.219 433.878 363.796 435.79 365.606C437.831 367.538 440.274 368.313 442.758 368.225C445.075 368.143 447.293 367.323 449.22 366.368C451.179 365.398 453.144 364.132 454.989 362.876L450.484 356.264C448.711 357.473 447.116 358.483 445.67 359.199C444.192 359.931 443.16 360.206 442.476 360.23C441.96 360.248 441.652 360.139 441.289 359.795C440.796 359.329 440.038 358.24 439.334 355.863L431.663 358.137ZM454.822 362.983C463.685 357.568 466.938 355.18 482.825 342.075L477.734 335.904C461.935 348.937 459.026 351.039 450.651 356.157L454.822 362.983ZM482.819 342.08C506.878 322.306 531.69 303.631 557.258 286.055L552.726 279.463C526.969 297.169 501.974 315.981 477.74 335.899L482.819 342.08ZM558.327 280.55C551.787 270.676 544.863 260.527 537.796 250.5L531.257 255.109C538.278 265.07 545.158 275.156 551.657 284.968L558.327 280.55ZM571.527 275.615C571.638 275.615 571.736 275.611 571.818 275.605C571.9 275.599 571.97 275.591 572.024 275.584C572.051 275.581 572.075 275.578 572.095 275.575C572.115 275.572 572.132 275.569 572.145 275.567C572.158 275.565 572.169 275.563 572.175 275.562C572.178 275.562 572.181 275.561 572.183 275.561C572.183 275.561 572.184 275.561 572.184 275.561C572.185 275.561 572.185 275.561 572.185 275.561C572.185 275.561 572.185 275.561 572.185 275.561C572.185 275.561 572.185 275.561 572.185 275.561L572.185 275.561C572.185 275.561 572.184 275.561 572.183 275.561C572.181 275.561 572.178 275.562 572.175 275.562C572.169 275.563 572.158 275.565 572.145 275.567C572.132 275.569 572.115 275.572 572.095 275.575C572.075 275.578 572.051 275.581 572.024 275.584C571.97 275.591 571.9 275.599 571.818 275.605C571.736 275.611 571.638 275.615 571.528 275.615V267.615C571.417 267.615 571.319 267.62 571.237 267.626C571.155 267.632 571.085 267.639 571.031 267.646C571.004 267.649 570.98 267.653 570.96 267.656C570.94 267.658 570.923 267.661 570.91 267.663C570.897 267.665 570.886 267.667 570.88 267.668C570.877 267.668 570.874 267.669 570.872 267.669C570.872 267.669 570.871 267.669 570.871 267.669C570.87 267.669 570.87 267.669 570.87 267.67C570.87 267.67 570.87 267.67 570.87 267.67C570.87 267.67 570.87 267.67 570.87 267.67L570.87 267.67C570.87 267.67 570.871 267.669 570.872 267.669C570.874 267.669 570.877 267.668 570.88 267.668C570.886 267.667 570.897 267.665 570.91 267.663C570.923 267.661 570.94 267.658 570.96 267.656C570.98 267.653 571.004 267.649 571.031 267.646C571.085 267.639 571.155 267.632 571.237 267.626C571.319 267.62 571.417 267.615 571.527 267.615V275.615ZM573.732 274.953C602.442 255.994 631.985 238.522 662.258 222.598L658.533 215.517C628.024 231.566 598.253 249.173 569.323 268.277L573.732 274.953ZM662.251 222.601C665.308 221 668.347 219.392 671.367 217.792L667.624 210.722C664.6 212.323 661.578 213.923 658.54 215.514L662.251 222.601ZM671.367 217.792C683.117 211.571 694.605 205.49 706.536 200.202L703.294 192.889C691.066 198.308 679.332 204.523 667.624 210.722L671.367 217.792ZM706.534 200.203C710.686 198.366 713.965 196.934 716.808 195.692L713.607 188.361C710.763 189.603 707.468 191.041 703.296 192.888L706.534 200.203ZM716.808 195.692C725.399 191.941 729.997 189.933 742.35 183.867L738.824 176.686C726.611 182.683 722.129 184.64 713.607 188.361L716.808 195.692ZM741.966 184.031C744.386 183.142 746.389 181.419 747.692 179.212L740.803 175.145C740.394 175.837 739.815 176.299 739.207 176.522L741.966 184.031ZM747.692 179.212C748.992 177.01 749.537 174.429 749.269 171.888L741.313 172.727C741.405 173.594 741.213 174.45 740.803 175.145L747.692 179.212ZM749.255 171.767C749.071 170.424 748.633 169.123 747.955 167.945L741.02 171.933C741.174 172.2 741.282 172.512 741.328 172.848L749.255 171.767ZM747.955 167.945C747.277 166.766 746.37 165.728 745.276 164.906L740.471 171.302C740.675 171.456 740.867 171.666 741.02 171.933L747.955 167.945ZM745.51 165.096C739.884 160.167 732.344 159.801 726.728 159.781L726.7 167.781C732.428 167.801 737.086 168.352 740.238 171.113L745.51 165.096ZM726.73 159.781C676.244 159.585 639.468 182.815 599.794 207.767L604.053 214.539C643.958 189.442 678.858 167.595 726.699 167.781L726.73 159.781ZM599.794 207.767C593.994 211.414 588.133 215.1 582.137 218.775L586.318 225.596C592.359 221.893 598.259 218.182 604.053 214.539L599.794 207.767ZM582.132 218.778C577.263 221.773 572.606 224.623 568.119 227.37L572.295 234.193C576.782 231.447 581.446 228.592 586.323 225.593L582.132 218.778ZM568.119 227.37C561.618 231.348 555.47 235.111 549.563 238.771L553.775 245.571C559.661 241.925 565.791 238.174 572.295 234.193L568.119 227.37ZM548.401 244.478C555.283 254.228 561.975 264.129 568.16 273.774L574.895 269.456C568.638 259.7 561.879 249.701 554.937 239.864L548.401 244.478Z" fill="black"/>
<path fill-rule="evenodd" clip-rule="evenodd" d="M447 505.443C443.516 508.858 440.013 512.311 436.485 515.806C436.485 515.806 417.14 535.262 401.956 533.972C400.96 533.887 400.002 533.9 399.086 533.912C396.524 533.946 394.291 533.976 392.469 531.856C390.496 529.56 390.689 527.255 390.937 524.304C390.949 524.16 390.961 524.013 390.974 523.866C391.273 520.228 392.923 518.14 394.898 515.642C395.569 514.793 396.276 513.898 396.982 512.879C399.982 508.54 402.87 506.029 406.074 503.243C407.88 501.674 409.785 500.017 411.869 497.896C414.228 495.494 416.526 493.117 418.766 490.772L447.071 505.368C447.048 505.394 447.025 505.419 447 505.443ZM462.676 490.189L433.554 474.881C436.887 471.224 440.073 467.689 443.129 464.3C452.508 453.895 460.648 444.863 467.973 437.915C477.057 429.31 486.17 420.736 495.312 412.195C495.314 412.193 495.316 412.191 495.318 412.19L528.956 427.761C506.338 448.669 484.735 468.883 462.677 490.188C462.677 490.189 462.676 490.189 462.676 490.189ZM544.701 413.241C546.585 411.506 548.478 409.765 550.381 408.015C557.747 401.229 560.479 398.565 562.959 396.147C565.736 393.438 568.196 391.038 576.5 383.5C576.78 383.245 577.114 382.947 577.49 382.61C584.335 376.488 605.579 357.487 587.309 350.726C583.45 349.299 579.243 350.907 575.476 352.635C545.556 366.38 540.871 369.977 516.31 392.683C514.459 394.394 512.609 396.107 510.76 397.82C510.76 397.82 510.759 397.821 510.759 397.821L544.701 413.241Z" fill="#0077FF"/>
<path d="M436.485 515.806L433.67 512.965L433.659 512.975L433.648 512.986L436.485 515.806ZM447 505.443L449.8 508.299L449.801 508.299L447 505.443ZM401.956 533.972L402.295 529.986H402.295L401.956 533.972ZM399.086 533.912L399.033 529.912H399.033L399.086 533.912ZM392.469 531.856L395.503 529.249L395.503 529.249L392.469 531.856ZM390.937 524.304L394.923 524.639L394.923 524.639L390.937 524.304ZM390.974 523.866L394.96 524.193H394.96L390.974 523.866ZM394.898 515.642L398.036 518.122L398.036 518.122L394.898 515.642ZM396.982 512.879L393.692 510.603L393.692 510.603L396.982 512.879ZM406.074 503.243L408.699 506.262H408.699L406.074 503.243ZM411.869 497.896L414.722 500.699H414.722L411.869 497.896ZM418.766 490.772L420.599 487.216L417.939 485.845L415.872 488.01L418.766 490.772ZM447.071 505.368L450.066 508.019L453.473 504.169L448.904 501.813L447.071 505.368ZM433.554 474.881L430.598 472.187L427.11 476.013L431.693 478.422L433.554 474.881ZM462.676 490.189L460.815 493.729L463.34 495.057L465.418 493.102L462.676 490.189ZM443.129 464.3L440.158 461.621L440.158 461.621L443.129 464.3ZM467.973 437.915L465.222 435.012L465.22 435.013L467.973 437.915ZM495.312 412.195L492.584 409.27L492.581 409.272L495.312 412.195ZM495.318 412.19L496.999 408.56L494.57 407.435L492.604 409.252L495.318 412.19ZM528.956 427.761L531.671 430.698L536.06 426.642L530.636 424.131L528.956 427.761ZM462.677 490.188L465.418 493.101L465.437 493.084L465.456 493.066L462.677 490.188ZM544.701 413.241L543.047 416.882L545.46 417.979L547.41 416.184L544.701 413.241ZM550.381 408.015L553.089 410.959L553.091 410.957L550.381 408.015ZM562.959 396.147L565.751 399.01V399.01L562.959 396.147ZM576.5 383.5L579.189 386.461L579.189 386.461L576.5 383.5ZM577.49 382.61L574.824 379.629L574.824 379.629L577.49 382.61ZM587.309 350.726L588.697 346.975L588.696 346.974L587.309 350.726ZM575.476 352.635L573.808 348.999L573.806 349L575.476 352.635ZM516.31 392.683L519.025 395.621L519.025 395.62L516.31 392.683ZM510.76 397.82L513.442 400.788L513.461 400.771L513.479 400.754L510.76 397.82ZM510.759 397.821L508.077 394.853L503.554 398.941L509.105 401.463L510.759 397.821ZM439.3 518.648C442.823 515.157 446.322 511.71 449.8 508.299L444.2 502.587C440.711 506.007 437.203 509.464 433.67 512.965L439.3 518.648ZM401.617 537.957C406.292 538.354 411.022 537.147 415.293 535.371C419.595 533.581 423.695 531.103 427.205 528.652C430.726 526.193 433.738 523.702 435.867 521.83C436.934 520.891 437.785 520.102 438.376 519.543C438.671 519.263 438.901 519.04 439.061 518.884C439.14 518.807 439.202 518.745 439.246 518.702C439.268 518.68 439.285 518.663 439.298 518.65C439.304 518.644 439.309 518.639 439.313 518.635C439.315 518.633 439.317 518.631 439.318 518.63C439.319 518.629 439.32 518.629 439.32 518.628C439.321 518.627 439.321 518.627 436.485 515.806C433.648 512.986 433.649 512.986 433.649 512.985C433.649 512.985 433.65 512.985 433.65 512.985C433.65 512.984 433.65 512.985 433.65 512.985C433.649 512.986 433.647 512.988 433.644 512.991C433.638 512.997 433.627 513.007 433.612 513.023C433.581 513.053 433.533 513.101 433.467 513.165C433.336 513.293 433.136 513.487 432.872 513.737C432.345 514.236 431.567 514.957 430.583 515.823C428.61 517.558 425.837 519.85 422.624 522.093C419.399 524.345 415.816 526.489 412.221 527.984C408.594 529.493 405.212 530.234 402.295 529.986L401.617 537.957ZM399.14 537.912C400.08 537.899 400.847 537.892 401.617 537.957L402.295 529.986C401.073 529.882 399.924 529.9 399.033 529.912L399.14 537.912ZM389.435 534.463C392.625 538.175 396.803 537.943 399.14 537.912L399.033 529.912C397.641 529.931 396.945 529.919 396.392 529.793C396.035 529.711 395.802 529.598 395.503 529.249L389.435 534.463ZM386.951 523.97C386.718 526.751 386.238 530.742 389.435 534.463L395.503 529.249C395.058 528.731 394.906 528.315 394.834 527.788C394.737 527.074 394.79 526.222 394.923 524.639L386.951 523.97ZM386.987 523.538C386.975 523.682 386.963 523.825 386.951 523.97L394.923 524.639C394.935 524.495 394.948 524.345 394.96 524.193L386.987 523.538ZM391.76 513.161C389.793 515.649 387.394 518.581 386.987 523.538L394.96 524.193C395.151 521.874 396.053 520.63 398.036 518.122L391.76 513.161ZM393.692 510.603C393.07 511.503 392.438 512.304 391.76 513.161L398.036 518.122C398.699 517.283 399.483 516.293 400.271 515.154L393.692 510.603ZM403.45 500.225C400.228 503.026 397.002 505.817 393.692 510.603L400.271 515.154C402.963 511.263 405.512 509.033 408.699 506.262L403.45 500.225ZM409.015 495.093C407.055 497.088 405.259 498.652 403.45 500.225L408.699 506.262C410.501 504.695 412.516 502.945 414.722 500.699L409.015 495.093ZM415.872 488.01C413.645 490.343 411.36 492.706 409.015 495.093L414.722 500.699C417.096 498.282 419.408 495.892 421.659 493.533L415.872 488.01ZM448.904 501.813L420.599 487.216L416.932 494.327L445.237 508.923L448.904 501.813ZM449.801 508.299C449.893 508.208 449.982 508.115 450.066 508.019L444.075 502.718C444.115 502.673 444.156 502.629 444.199 502.587L449.801 508.299ZM431.693 478.422L460.815 493.729L464.537 486.648L435.415 471.34L431.693 478.422ZM440.158 461.621C437.101 465.012 433.922 468.539 430.598 472.187L436.51 477.575C439.852 473.91 443.046 470.366 446.1 466.978L440.158 461.621ZM465.22 435.013C457.757 442.092 449.501 451.256 440.158 461.621L446.1 466.978C455.514 456.534 463.539 447.634 470.726 440.818L465.22 435.013ZM492.581 409.272C483.432 417.82 474.313 426.4 465.222 435.012L470.724 440.819C479.801 432.22 488.907 423.653 498.043 415.118L492.581 409.272ZM492.604 409.252C492.593 409.261 492.585 409.269 492.584 409.27L498.041 415.12C498.042 415.119 498.041 415.12 498.04 415.121C498.039 415.122 498.036 415.124 498.033 415.127L492.604 409.252ZM530.636 424.131L496.999 408.56L493.638 415.819L527.276 431.391L530.636 424.131ZM465.456 493.066C487.484 471.789 509.064 451.596 531.671 430.698L526.241 424.824C503.611 445.741 481.985 465.978 459.898 487.311L465.456 493.066ZM465.418 493.102C465.432 493.088 465.443 493.078 465.45 493.071C465.454 493.067 465.457 493.065 465.458 493.063C465.459 493.062 465.46 493.061 465.46 493.061C465.461 493.061 465.461 493.061 465.461 493.06C465.461 493.06 465.461 493.06 465.461 493.06C465.461 493.06 465.461 493.06 465.461 493.06L465.461 493.06C465.461 493.06 465.46 493.061 465.458 493.063C465.457 493.064 465.454 493.067 465.45 493.071C465.443 493.077 465.432 493.088 465.418 493.101L459.935 487.276C459.921 487.289 459.91 487.3 459.903 487.306C459.899 487.31 459.896 487.313 459.895 487.314C459.894 487.315 459.893 487.316 459.893 487.316C459.892 487.317 459.892 487.317 459.892 487.317C459.892 487.317 459.892 487.317 459.892 487.317C459.892 487.317 459.892 487.317 459.892 487.317C459.892 487.317 459.892 487.317 459.892 487.317C459.892 487.317 459.893 487.316 459.895 487.314C459.896 487.313 459.899 487.31 459.903 487.307C459.91 487.3 459.921 487.289 459.935 487.276L465.418 493.102ZM547.41 416.184C549.294 414.45 551.186 412.709 553.089 410.959L547.673 405.071C545.77 406.821 543.877 408.563 541.992 410.298L547.41 416.184ZM553.091 410.957C560.488 404.143 563.248 401.452 565.751 399.01L560.166 393.283C557.711 395.677 555.006 398.316 547.671 405.073L553.091 410.957ZM565.751 399.01C568.493 396.336 570.919 393.969 579.189 386.461L573.811 380.538C565.474 388.107 562.979 390.539 560.166 393.283L565.751 399.01ZM579.189 386.461C579.456 386.219 579.777 385.932 580.157 385.592L574.824 379.629C574.451 379.962 574.105 380.272 573.811 380.539L579.189 386.461ZM580.157 385.592C583.486 382.614 590.986 375.947 595.232 368.992C597.321 365.569 599.103 361.321 598.391 357.043C597.605 352.324 594.088 348.97 588.697 346.975L585.92 354.478C589.664 355.863 590.343 357.419 590.499 358.356C590.728 359.733 590.197 361.886 588.403 364.824C584.883 370.591 578.339 376.484 574.824 379.629L580.157 385.592ZM588.696 346.974C583.092 344.903 577.41 347.347 573.808 348.999L577.144 356.271C581.077 354.467 583.807 353.696 585.921 354.478L588.696 346.974ZM573.806 349C558.841 355.875 549.914 360.331 541.626 365.996C533.362 371.645 525.839 378.427 513.594 389.746L519.025 395.62C531.342 384.233 538.442 377.863 546.141 372.601C553.815 367.355 562.191 363.14 577.146 356.27L573.806 349ZM513.595 389.746C511.742 391.458 509.891 393.172 508.041 394.887L513.479 400.754C515.326 399.041 517.175 397.33 519.025 395.621L513.595 389.746ZM508.078 394.853C508.063 394.866 508.052 394.876 508.044 394.883C508.041 394.886 508.038 394.889 508.036 394.891C508.035 394.892 508.034 394.892 508.034 394.893C508.034 394.893 508.034 394.893 508.033 394.893C508.033 394.893 508.033 394.893 508.033 394.893C508.033 394.893 508.033 394.893 508.033 394.893C508.033 394.893 508.033 394.893 508.033 394.893C508.033 394.894 508.034 394.892 508.036 394.891C508.038 394.889 508.041 394.887 508.044 394.883C508.051 394.877 508.063 394.866 508.077 394.853L513.441 400.788C513.456 400.775 513.467 400.764 513.475 400.758C513.478 400.755 513.481 400.752 513.483 400.75C513.484 400.749 513.485 400.749 513.485 400.748C513.485 400.748 513.485 400.748 513.486 400.748C513.486 400.748 513.486 400.748 513.486 400.748C513.486 400.748 513.486 400.748 513.486 400.748C513.486 400.748 513.486 400.748 513.486 400.748C513.486 400.747 513.485 400.749 513.483 400.75C513.481 400.752 513.478 400.754 513.475 400.758C513.468 400.764 513.456 400.775 513.442 400.788L508.078 394.853ZM509.105 401.463L543.047 416.882L546.356 409.599L512.414 394.179L509.105 401.463ZM507.334 399.885L507.335 399.886L514.186 395.756L514.186 395.755L507.334 399.885ZM450.975 504.999L450.962 504.882L443.012 505.769L443.025 505.886L450.975 504.999Z" fill="black"/>
<path fill-rule="evenodd" clip-rule="evenodd" d="M846.266 576.384C827.766 583.656 809.86 591.454 792.254 599.469C780.408 604.912 773.174 608.131 759.588 611.997C755.188 613.24 749.789 614.453 745.747 612.846C742.165 611.421 741.551 608.449 741.781 605.887C742.522 598.622 743.315 595.393 750.575 589.523C755.98 584.835 762.067 580.436 768.766 576.377C780.283 569.92 793.747 564.208 807.5 558.869C807.547 558.851 807.597 558.833 807.647 558.816L846.266 576.384ZM871.309 566.85C871.377 566.828 871.44 566.805 871.5 566.78C883.014 562.086 892.948 556.046 885.876 546.25C885.103 545.217 884.029 544.273 882.703 543.461C879.3 541.292 873.62 541.186 868.631 541.505C853.86 543.379 851.868 543.916 837.694 547.734C837.078 547.9 836.438 548.073 835.774 548.251C834.93 548.567 834.082 548.884 833.232 549.201L871.309 566.85Z" fill="#00E0AC"/>
<path d="M792.254 599.469L790.596 595.829L790.59 595.832L790.583 595.834L792.254 599.469ZM846.266 576.384L847.729 580.106L856.516 576.652L847.922 572.743L846.266 576.384ZM759.588 611.997L760.676 615.846L760.683 615.844L759.588 611.997ZM745.747 612.846L744.268 616.563L744.269 616.563L745.747 612.846ZM741.781 605.887L737.802 605.481L737.799 605.505L737.797 605.529L741.781 605.887ZM750.575 589.523L753.09 592.633L753.144 592.59L753.196 592.544L750.575 589.523ZM768.766 576.377L766.81 572.888L766.751 572.921L766.694 572.956L768.766 576.377ZM807.5 558.869L806.052 555.14L806.052 555.14L807.5 558.869ZM807.647 558.816L809.304 555.175L807.869 554.522L806.374 555.024L807.647 558.816ZM871.309 566.85L869.627 570.479L871.05 571.138L872.542 570.655L871.309 566.85ZM871.5 566.78L873.01 570.484L873.01 570.484L871.5 566.78ZM885.876 546.25L889.119 543.909L889.099 543.881L889.078 543.854L885.876 546.25ZM882.703 543.461L880.554 546.834L880.583 546.853L880.613 546.871L882.703 543.461ZM868.631 541.505L868.376 537.513L868.252 537.521L868.128 537.537L868.631 541.505ZM837.694 547.734L836.654 543.872V543.872L837.694 547.734ZM835.774 548.251L834.734 544.389L834.55 544.438L834.372 544.505L835.774 548.251ZM833.232 549.201L831.835 545.452L822.854 548.799L831.55 552.83L833.232 549.201ZM793.911 603.11C811.479 595.112 829.316 587.344 847.729 580.106L844.802 572.661C826.216 579.967 808.242 587.796 790.596 595.829L793.911 603.11ZM760.683 615.844C774.562 611.894 782.013 608.577 793.924 603.104L790.583 595.834C778.802 601.248 771.786 604.367 758.493 608.15L760.683 615.844ZM744.269 616.563C747.143 617.706 750.24 617.759 752.96 617.468C755.709 617.173 758.421 616.483 760.676 615.846L758.501 608.148C756.355 608.754 754.167 609.292 752.107 609.513C750.016 609.737 748.393 609.594 747.225 609.129L744.269 616.563ZM737.797 605.529C737.646 607.212 737.733 609.368 738.702 611.468C739.726 613.688 741.573 615.49 744.268 616.563L747.226 609.13C746.338 608.776 746.088 608.381 745.967 608.118C745.79 607.735 745.686 607.124 745.765 606.245L737.797 605.529ZM748.06 586.412C744.24 589.502 741.711 592.214 740.141 595.424C738.594 598.585 738.17 601.867 737.802 605.481L745.76 606.292C746.133 602.641 746.477 600.677 747.326 598.94C748.153 597.251 749.651 595.414 753.09 592.633L748.06 586.412ZM766.694 572.956C759.819 577.121 753.546 581.651 747.954 586.501L753.196 592.544C758.415 588.018 764.316 583.751 770.839 579.798L766.694 572.956ZM806.052 555.14C792.252 560.498 778.577 566.291 766.81 572.888L770.723 579.866C781.988 573.55 795.242 567.919 808.948 562.598L806.052 555.14ZM806.374 555.024C806.268 555.06 806.161 555.098 806.052 555.14L808.948 562.598C808.934 562.603 808.925 562.607 808.92 562.608L806.374 555.024ZM805.991 562.457L844.609 580.024L847.922 572.743L809.304 555.175L805.991 562.457ZM872.542 570.655C872.693 570.606 872.85 570.55 873.01 570.484L869.99 563.076C870.03 563.06 870.06 563.05 870.077 563.044L872.542 570.655ZM873.01 570.484C878.742 568.147 884.897 565.186 888.609 561.128C890.553 559.004 892.041 556.351 892.226 553.161C892.41 549.974 891.256 546.87 889.119 543.909L882.633 548.592C884.031 550.529 884.288 551.852 884.239 552.7C884.19 553.544 883.802 554.531 882.707 555.728C880.342 558.313 875.772 560.719 869.99 563.076L873.01 570.484ZM889.078 543.854C887.947 542.342 886.464 541.074 884.793 540.05L880.613 546.871C881.593 547.472 882.259 548.093 882.673 548.647L889.078 543.854ZM884.852 540.087C882.391 538.519 879.406 537.857 876.677 537.572C873.888 537.281 870.969 537.347 868.376 537.513L868.886 545.497C871.282 545.344 873.698 545.304 875.847 545.529C878.056 545.759 879.612 546.234 880.554 546.834L884.852 540.087ZM868.128 537.537C853.136 539.439 850.96 540.018 836.654 543.872L838.735 551.597C852.776 547.814 854.585 547.319 869.135 545.473L868.128 537.537ZM836.654 543.872C836.037 544.038 835.398 544.21 834.734 544.389L836.813 552.114C837.478 551.935 838.118 551.763 838.735 551.597L836.654 543.872ZM834.372 544.505C833.53 544.82 832.684 545.136 831.835 545.452L834.629 552.949C835.48 552.631 836.33 552.314 837.176 551.998L834.372 544.505ZM872.992 563.221L834.914 545.571L831.55 552.83L869.627 570.479L872.992 563.221ZM872.736 570.59L872.922 570.519L870.078 563.042L869.891 563.113L872.736 570.59Z" fill="black"/>
<path fill-rule="evenodd" clip-rule="evenodd" d="M200.229 571.371L148.885 592.812C147.093 597.468 145.654 602.542 144.61 608.161C144.002 610.854 143.847 613.643 144.152 616.395C144.318 617.77 144.762 619.09 145.451 620.262C146.141 621.434 147.06 622.431 148.144 623.182C152.79 626.066 155.94 621.103 158.568 616.962C159.285 615.832 159.964 614.763 160.623 613.931C164.152 609.5 165.338 608.159 167.606 605.595C168.505 604.578 169.574 603.369 171.027 601.699C180.316 591.105 190.061 580.985 200.229 571.371ZM173.742 558.35C178.047 554.323 182.679 550.338 187.557 546.163C194.897 540.02 208.9 529.32 216.798 524.038C218.066 523.162 219.351 522.233 220.655 521.291C226.667 516.945 233.091 512.302 240.174 511.179C241.539 510.843 242.968 510.982 244.255 511.576C246.458 512.816 246.96 515.915 247.212 518.586C247.49 521.563 246.879 524.48 245.681 527.285L173.742 558.35Z" fill="#00E0AC"/>
<path d="M148.885 592.812L147.343 589.121L145.765 589.78L145.151 591.375L148.885 592.812ZM200.229 571.371L202.977 574.278L198.688 567.68L200.229 571.371ZM144.61 608.161L148.512 609.043L148.529 608.967L148.543 608.891L144.61 608.161ZM144.152 616.395L140.176 616.836L140.179 616.855L140.181 616.875L144.152 616.395ZM145.451 620.262L148.899 618.234L145.451 620.262ZM148.144 623.182L145.866 626.47L145.949 626.527L146.034 626.58L148.144 623.182ZM158.568 616.962L161.945 619.105L161.945 619.105L158.568 616.962ZM160.623 613.931L157.494 611.439L157.489 611.446L160.623 613.931ZM167.606 605.595L164.609 602.945L167.606 605.595ZM171.027 601.699L168.02 599.062L168.015 599.068L168.009 599.074L171.027 601.699ZM187.557 546.163L184.99 543.096L184.973 543.11L184.957 543.124L187.557 546.163ZM173.742 558.35L171.009 555.429L175.328 562.022L173.742 558.35ZM216.798 524.038L219.022 527.363L219.047 527.346L219.071 527.329L216.798 524.038ZM220.655 521.291L218.312 518.049L218.312 518.049L220.655 521.291ZM240.174 511.179L240.8 515.129L240.966 515.103L241.129 515.063L240.174 511.179ZM244.255 511.576L246.216 508.09L246.077 508.012L245.931 507.944L244.255 511.576ZM247.212 518.586L251.195 518.214L251.194 518.211L247.212 518.586ZM245.681 527.285L247.267 530.958L248.733 530.325L249.36 528.856L245.681 527.285ZM150.426 596.503L201.77 575.063L198.688 567.68L147.343 589.121L150.426 596.503ZM145.151 591.375C143.267 596.273 141.763 601.585 140.678 607.431L148.543 608.891C149.544 603.499 150.919 598.663 152.618 594.248L145.151 591.375ZM140.709 607.28C140.002 610.408 139.822 613.643 140.176 616.836L148.128 615.954C147.871 613.642 148.002 611.301 148.512 609.043L140.709 607.28ZM140.181 616.875C140.412 618.786 141.029 620.634 142.003 622.29L148.899 618.234C148.494 617.545 148.225 616.754 148.123 615.914L140.181 616.875ZM142.003 622.29C142.978 623.946 144.29 625.378 145.866 626.47L150.422 619.894C149.829 619.483 149.304 618.922 148.899 618.234L142.003 622.29ZM146.034 626.58C147.841 627.702 149.819 628.235 151.862 627.978C153.836 627.73 155.436 626.799 156.656 625.794C158.947 623.907 160.736 621.011 161.945 619.105L155.191 614.819C153.772 617.054 152.672 618.711 151.569 619.619C151.093 620.012 150.87 620.04 150.865 620.04C150.863 620.041 150.843 620.045 150.776 620.029C150.702 620.011 150.53 619.955 150.254 619.783L146.034 626.58ZM161.945 619.105C162.697 617.92 163.256 617.049 163.757 616.416L157.489 611.446C156.671 612.476 155.873 613.743 155.191 614.819L161.945 619.105ZM163.752 616.423C167.229 612.057 168.37 610.769 170.602 608.245L164.609 602.945C162.307 605.549 161.074 606.944 157.494 611.439L163.752 616.423ZM170.602 608.245C171.502 607.227 172.581 606.008 174.045 604.324L168.009 599.074C166.568 600.731 165.507 601.93 164.609 602.945L170.602 608.245ZM174.035 604.336C183.242 593.836 192.9 583.805 202.977 574.278L197.481 568.465C187.222 578.165 177.391 588.375 168.02 599.062L174.035 604.336ZM184.957 543.124C180.084 547.294 175.388 551.333 171.009 555.429L176.474 561.271C180.706 557.313 185.273 553.382 190.158 549.202L184.957 543.124ZM214.574 520.713C206.531 526.092 192.413 536.883 184.99 543.096L190.125 549.23C197.381 543.157 211.268 532.548 219.022 527.363L214.574 520.713ZM218.312 518.049C217.001 518.996 215.751 519.899 214.525 520.746L219.071 527.329C220.381 526.425 221.701 525.47 222.998 524.532L218.312 518.049ZM239.547 507.228C231.345 508.529 224.129 513.844 218.312 518.049L222.998 524.532C229.204 520.047 234.837 516.075 240.8 515.129L239.547 507.228ZM245.931 507.944C243.828 506.974 241.472 506.741 239.219 507.295L241.129 515.063C241.606 514.946 242.108 514.991 242.579 515.208L245.931 507.944ZM251.194 518.211C251.065 516.833 250.845 514.989 250.25 513.249C249.651 511.501 248.51 509.381 246.216 508.09L242.293 515.062C242.202 515.011 242.414 515.06 242.681 515.84C242.95 516.627 243.108 517.668 243.229 518.961L251.194 518.211ZM249.36 528.856C250.757 525.583 251.547 521.995 251.195 518.214L243.229 518.957C243.432 521.132 243 523.377 242.002 525.715L249.36 528.856ZM244.096 523.613L172.156 554.678L175.328 562.022L247.267 530.958L244.096 523.613Z" fill="black"/>
</svg>
