<svg width="1000" height="1000" viewBox="0 0 1000 1000" fill="none" xmlns="http://www.w3.org/2000/svg">
<path d="M140.097 326.627L120.024 336.648C118.477 337.42 117.849 339.301 118.621 340.848L128.642 360.921C129.415 362.468 131.295 363.096 132.842 362.324L152.916 352.302C154.463 351.53 155.091 349.65 154.318 348.103L144.297 328.029C143.525 326.482 141.644 325.854 140.097 326.627Z" fill="white" stroke="black" stroke-width="8"/>
<path d="M129.485 464.986L107.118 466.735C105.394 466.87 104.105 468.377 104.24 470.1L105.989 492.468C106.123 494.192 107.63 495.48 109.354 495.345L131.722 493.597C133.446 493.462 134.734 491.955 134.599 490.231L132.851 467.864C132.716 466.14 131.209 464.852 129.485 464.986Z" fill="white" stroke="black" stroke-width="8"/>
<path d="M519.009 337.888L496.759 340.774C495.044 340.996 493.835 342.567 494.057 344.282L496.943 366.531C497.165 368.246 498.736 369.456 500.45 369.233L522.7 366.348C524.415 366.125 525.625 364.555 525.402 362.84L522.516 340.591C522.294 338.876 520.723 337.666 519.009 337.888Z" fill="white" stroke="black" stroke-width="8"/>
<path d="M468.221 421.935L454.6 404.107C453.55 402.733 451.585 402.47 450.211 403.52L432.383 417.141C431.009 418.19 430.746 420.155 431.796 421.529L445.417 439.357C446.467 440.732 448.431 440.994 449.806 439.945L467.634 426.324C469.008 425.274 469.271 423.309 468.221 421.935Z" fill="white" stroke="black" stroke-width="8"/>
<path d="M545.783 461.711L534.565 481.141C533.701 482.639 534.214 484.553 535.712 485.418L555.141 496.636C556.639 497.5 558.554 496.987 559.418 495.49L570.636 476.06C571.501 474.562 570.988 472.648 569.49 471.783L550.06 460.565C548.563 459.701 546.648 460.214 545.783 461.711Z" fill="white" stroke="black" stroke-width="8"/>
<path d="M574.276 368.664L552.738 362.382C551.078 361.898 549.34 362.851 548.856 364.511L542.574 386.049C542.09 387.709 543.043 389.448 544.703 389.932L566.241 396.214C567.901 396.698 569.639 395.745 570.124 394.085L576.406 372.546C576.89 370.886 575.937 369.148 574.276 368.664Z" fill="white" stroke="black" stroke-width="8"/>
<path d="M310.03 579.092L306.494 601.247C306.221 602.955 307.384 604.56 309.092 604.832L331.247 608.369C332.955 608.642 334.56 607.479 334.832 605.771L338.369 583.616C338.642 581.908 337.479 580.303 335.771 580.03L313.616 576.494C311.908 576.221 310.303 577.384 310.03 579.092Z" fill="white" stroke="black" stroke-width="8"/>
<path d="M380.414 496.349L360.34 506.37C358.793 507.142 358.165 509.023 358.938 510.57L368.959 530.643C369.731 532.19 371.612 532.818 373.159 532.046L393.232 522.025C394.779 521.252 395.407 519.372 394.635 517.825L384.613 497.752C383.841 496.204 381.961 495.576 380.414 496.349Z" fill="white" stroke="black" stroke-width="8"/>
<path d="M193.42 507.285L172.733 498.601C171.138 497.932 169.303 498.682 168.634 500.277L159.951 520.964C159.281 522.558 160.031 524.393 161.626 525.063L182.313 533.746C183.907 534.415 185.742 533.665 186.412 532.071L195.095 511.384C195.764 509.789 195.014 507.954 193.42 507.285Z" fill="white" stroke="black" stroke-width="8"/>
<path d="M176.491 638.783L157.061 627.566C155.564 626.701 153.649 627.214 152.784 628.711L141.566 648.141C140.702 649.639 141.215 651.554 142.712 652.418L162.142 663.636C163.64 664.501 165.555 663.988 166.419 662.49L177.637 643.06C178.502 641.563 177.989 639.648 176.491 638.783Z" fill="white" stroke="black" stroke-width="8"/>
<path d="M249.41 571.92L227.06 569.953C225.338 569.802 223.818 571.075 223.667 572.798L221.7 595.147C221.548 596.87 222.822 598.389 224.544 598.54L246.894 600.508C248.616 600.659 250.135 599.386 250.287 597.663L252.254 575.314C252.406 573.591 251.132 572.072 249.41 571.92Z" fill="white" stroke="black" stroke-width="8"/>
<path d="M266.988 724.539L246.915 734.56C245.367 735.332 244.739 737.213 245.512 738.76L255.533 758.833C256.305 760.38 258.186 761.008 259.733 760.236L279.806 750.215C281.353 749.442 281.981 747.562 281.209 746.015L271.188 725.941C270.415 724.394 268.535 723.766 266.988 724.539Z" fill="white" stroke="black" stroke-width="8"/>
<path d="M724.582 538.653L712.663 557.661C711.745 559.126 712.188 561.058 713.653 561.977L732.66 573.896C734.126 574.814 736.058 574.372 736.976 572.907L748.895 553.899C749.814 552.434 749.371 550.501 747.906 549.583L728.898 537.664C727.433 536.745 725.501 537.188 724.582 538.653Z" fill="white" stroke="black" stroke-width="8"/>
<path d="M202.536 328.06L192.641 348.196C191.878 349.748 192.518 351.624 194.07 352.387L214.206 362.282C215.758 363.044 217.634 362.404 218.397 360.853L228.292 340.717C229.054 339.165 228.414 337.288 226.862 336.526L206.727 326.631C205.175 325.868 203.298 326.508 202.536 328.06Z" fill="white" stroke="black" stroke-width="8"/>
<path d="M322.738 712.815L328.033 734.617C328.441 736.297 330.134 737.329 331.814 736.921L353.616 731.626C355.296 731.218 356.328 729.525 355.92 727.845L350.625 706.043C350.217 704.362 348.524 703.331 346.844 703.739L325.042 709.034C323.361 709.442 322.33 711.135 322.738 712.815Z" fill="white" stroke="black" stroke-width="8"/>
<path d="M527.625 268.214L506.101 261.883C504.443 261.396 502.702 262.345 502.214 264.004L495.883 285.528C495.395 287.187 496.345 288.927 498.004 289.415L519.528 295.746C521.187 296.234 522.927 295.284 523.415 293.626L529.746 272.102C530.234 270.443 529.284 268.702 527.625 268.214Z" fill="white" stroke="black" stroke-width="8"/>
<path d="M861.354 516.252L839.105 519.137C837.39 519.36 836.18 520.93 836.403 522.645L839.288 544.894C839.511 546.609 841.081 547.819 842.796 547.597L865.046 544.711C866.76 544.489 867.97 542.918 867.748 541.203L864.862 518.954C864.64 517.239 863.069 516.029 861.354 516.252Z" fill="white" stroke="black" stroke-width="8"/>
<path d="M739.374 694.962L735.837 717.117C735.565 718.825 736.728 720.43 738.436 720.703L760.591 724.239C762.298 724.512 763.904 723.349 764.176 721.641L767.713 699.486C767.986 697.778 766.822 696.173 765.115 695.9L742.96 692.364C741.252 692.091 739.647 693.254 739.374 694.962Z" fill="white" stroke="black" stroke-width="8"/>
<path d="M802.512 382.064L780.988 375.734C779.329 375.246 777.589 376.195 777.101 377.854L770.77 399.378C770.282 401.037 771.231 402.777 772.89 403.265L794.414 409.596C796.073 410.084 797.814 409.135 798.302 407.476L804.632 385.952C805.12 384.293 804.171 382.552 802.512 382.064Z" fill="white" stroke="black" stroke-width="8"/>
<path d="M843.184 646.641L829.563 628.813C828.513 627.439 826.548 627.176 825.174 628.226L807.346 641.847C805.972 642.897 805.709 644.861 806.759 646.236L820.38 664.064C821.429 665.438 823.394 665.7 824.768 664.651L842.596 651.03C843.971 649.98 844.233 648.015 843.184 646.641Z" fill="white" stroke="black" stroke-width="8"/>
<path d="M782.078 551.543L768.13 569.116C767.055 570.47 767.282 572.44 768.636 573.515L786.209 587.463C787.563 588.538 789.533 588.312 790.608 586.957L804.556 569.384C805.631 568.03 805.405 566.06 804.05 564.985L786.477 551.037C785.123 549.962 783.153 550.189 782.078 551.543Z" fill="white" stroke="black" stroke-width="8"/>
<path d="M876.641 349.897L854.392 352.783C852.677 353.005 851.467 354.576 851.69 356.291L854.576 378.54C854.798 380.255 856.368 381.465 858.083 381.242L880.333 378.356C882.047 378.134 883.257 376.564 883.035 374.849L880.149 352.599C879.927 350.885 878.356 349.675 876.641 349.897Z" fill="white" stroke="black" stroke-width="8"/>
<path d="M795.62 202.552L773.371 205.438C771.656 205.66 770.446 207.23 770.668 208.945L773.554 231.195C773.776 232.91 775.347 234.119 777.062 233.897L799.311 231.011C801.026 230.789 802.236 229.218 802.013 227.504L799.128 205.254C798.905 203.539 797.335 202.329 795.62 202.552Z" fill="white" stroke="black" stroke-width="8"/>
<path d="M735.162 263.185L725.141 243.112C724.368 241.565 722.488 240.937 720.941 241.709L700.868 251.73C699.32 252.503 698.692 254.383 699.465 255.93L709.486 276.003C710.258 277.551 712.139 278.179 713.686 277.406L733.759 267.385C735.306 266.613 735.934 264.732 735.162 263.185Z" fill="white" stroke="black" stroke-width="8"/>
<path d="M602.311 172.407L580.1 175.323C578.388 175.548 577.182 177.118 577.407 178.83L580.324 201.042C580.548 202.753 582.118 203.959 583.83 203.734L606.042 200.818C607.754 200.593 608.959 199.023 608.734 197.311L605.818 175.099C605.593 173.388 604.023 172.182 602.311 172.407Z" fill="white" stroke="black" stroke-width="8"/>
<path d="M434.31 209.438L421.447 227.821C420.456 229.238 420.801 231.19 422.218 232.181L440.6 245.043C442.017 246.035 443.97 245.69 444.961 244.273L457.823 225.89C458.814 224.473 458.469 222.521 457.053 221.53L438.67 208.668C437.253 207.676 435.301 208.021 434.31 209.438Z" fill="white" stroke="black" stroke-width="8"/>
<path d="M349.291 237.09L327.301 241.54C325.606 241.883 324.51 243.535 324.853 245.23L329.303 267.22C329.646 268.915 331.298 270.011 332.993 269.668L354.983 265.218C356.678 264.875 357.774 263.223 357.431 261.528L352.981 239.538C352.638 237.843 350.986 236.747 349.291 237.09Z" fill="white" stroke="black" stroke-width="8"/>
<path d="M274.014 202.787L254.585 191.569C253.087 190.704 251.172 191.217 250.308 192.715L239.09 212.145C238.225 213.642 238.738 215.557 240.236 216.422L259.666 227.64C261.163 228.504 263.078 227.991 263.943 226.494L275.16 207.064C276.025 205.566 275.512 203.651 274.014 202.787Z" fill="white" stroke="black" stroke-width="8"/>
<path d="M548.869 747.041L531.296 733.093C529.942 732.018 527.972 732.244 526.897 733.599L512.949 751.172C511.874 752.526 512.101 754.496 513.455 755.571L531.028 769.519C532.382 770.594 534.352 770.368 535.427 769.013L549.375 751.44C550.45 750.086 550.224 748.116 548.869 747.041Z" fill="white" stroke="black" stroke-width="8"/>
<path d="M640.354 516.403L618.105 519.289C616.39 519.511 615.18 521.082 615.403 522.796L618.288 545.046C618.511 546.761 620.081 547.97 621.796 547.748L644.046 544.862C645.76 544.64 646.97 543.069 646.748 541.355L643.862 519.105C643.64 517.39 642.069 516.181 640.354 516.403Z" fill="white" stroke="black" stroke-width="8"/>
<path d="M649.974 696.121L632.146 709.741C630.772 710.791 630.509 712.756 631.559 714.13L645.18 731.958C646.23 733.332 648.194 733.595 649.569 732.545L667.397 718.925C668.771 717.875 669.033 715.91 667.984 714.536L654.363 696.708C653.313 695.334 651.348 695.071 649.974 696.121Z" fill="white" stroke="black" stroke-width="8"/>
<path d="M674.495 771.385L652.246 774.271C650.531 774.493 649.321 776.064 649.543 777.778L652.429 800.028C652.651 801.743 654.222 802.952 655.937 802.73L678.186 799.844C679.901 799.622 681.111 798.051 680.888 796.337L678.003 774.087C677.78 772.372 676.21 771.162 674.495 771.385Z" fill="white" stroke="black" stroke-width="8"/>
<path d="M486.981 787.597L464.732 790.483C463.017 790.705 461.807 792.275 462.03 793.99L464.915 816.24C465.138 817.954 466.708 819.164 468.423 818.942L490.672 816.056C492.387 815.834 493.597 814.263 493.375 812.548L490.489 790.299C490.267 788.584 488.696 787.374 486.981 787.597Z" fill="white" stroke="black" stroke-width="8"/>
</svg>
